<?xml version="1.0" encoding="utf-8"?>
<!-- Generator: Adobe Illustrator 19.1.0, SVG Export Plug-In . SVG Version: 6.00 Build 0)  -->
<!DOCTYPE svg PUBLIC "-//W3C//DTD SVG 1.1//EN" "http://www.w3.org/Graphics/SVG/1.1/DTD/svg11.dtd">
<svg version="1.1"
	 id="svg5664" sodipodi:docname="Complete Left Hand.svg" inkscape:version="0.91 r13725" xmlns:inkscape="http://www.inkscape.org/namespaces/inkscape" xmlns:cc="http://creativecommons.org/ns#" xmlns:rdf="http://www.w3.org/1999/02/22-rdf-syntax-ns#" xmlns:dc="http://purl.org/dc/elements/1.1/" xmlns:svg="http://www.w3.org/2000/svg" xmlns:sodipodi="http://sodipodi.sourceforge.net/DTD/sodipodi-0.dtd"
	 xmlns="http://www.w3.org/2000/svg" xmlns:xlink="http://www.w3.org/1999/xlink" x="0px" y="0px" width="595.3px" height="841.9px"
	 viewBox="-213 -36.9 595.3 841.9" style="enable-background:new -213 -36.9 595.3 841.9;" xml:space="preserve">
<style type="text/css">
	.st0{fill:none;stroke:#000000;stroke-width:2.8346;}
	.st1{stroke:#000000;stroke-width:5;}
	.st2{fill:#FFFFFF;}
	.st3{fill:none;stroke:#000000;stroke-miterlimit:10;}
	.st4{fill:none;stroke:#00252E;stroke-width:0.7087;stroke-linecap:round;stroke-linejoin:round;stroke-dasharray:0.7087,2.126;}
	.st5{fill:none;stroke:#000008;stroke-width:2.4803;}
	.st6{fill:none;stroke:#000000;stroke-width:2.6575;stroke-linecap:round;stroke-linejoin:round;}
	.st7{fill:none;stroke:#000000;stroke-width:2.4803;}
	.st8{enable-background:new    ;}
	.st9{fill:none;stroke:#000000;stroke-width:2.6575;}
	.st10{fill:#DA0000;}
	.st11{fill:none;stroke:#FFFFFF;stroke-width:6.378;stroke-linecap:round;}
	.st12{fill:none;stroke:#FFFFFF;stroke-width:5.315;}
	.st13{fill:none;stroke:#000000;stroke-width:2.3209;}
	.st14{fill:none;stroke:#000000;stroke-width:2.3209;stroke-linecap:round;}
	.st15{fill:none;stroke:#000000;stroke-width:2.657;}
</style>
<sodipodi:namedview  inkscape:document-units="px" inkscape:window-x="1192" inkscape:current-layer="layer1" inkscape:window-maximized="1" inkscape:pageshadow="2" inkscape:pageopacity="0.0" inkscape:window-width="2560" inkscape:window-height="1377" inkscape:window-y="-8" bordercolor="#666666" showgrid="false" pagecolor="#ffffff" borderopacity="1.0" inkscape:cy="292.19339" inkscape:cx="-40.133259" id="base" inkscape:zoom="0.49497475">
	</sodipodi:namedview>
<g id="layer1" inkscape:groupmode="layer" inkscape:label="Layer 1">
	<g id="g8090" transform="matrix(0.99026807,0.1391731,-0.1391731,0.99026807,49.630249,-82.832538)">
		
			<rect id="rect7967" x="185.8" y="203.2" transform="matrix(-1 1.462819e-05 -1.462819e-05 -1 381.7359 410.0026)" width="10.1" height="3.6"/>
		
			<rect id="rect7969" x="185.8" y="196" transform="matrix(-1 1.462819e-05 -1.462819e-05 -1 381.7332 395.6022)" width="10.1" height="3.6"/>
		
			<rect id="rect7971" x="185.8" y="188.8" transform="matrix(-1 1.462819e-05 -1.462819e-05 -1 381.7335 381.2022)" width="10.1" height="3.6"/>
		
			<rect id="rect7973" x="185.8" y="181.6" transform="matrix(-1 1.462819e-05 -1.462819e-05 -1 381.7339 366.8018)" width="10.1" height="3.6"/>
		
			<rect id="rect7975" x="185.8" y="174.4" transform="matrix(-1 1.462819e-05 -1.462819e-05 -1 381.735 352.4018)" width="10.1" height="3.6"/>
		
			<rect id="rect7977" x="-44.4" y="236.8" transform="matrix(-0.9962 8.716776e-02 -8.716776e-02 -0.9962 -58.4218 485.407)" width="9.2" height="9.2"/>
		
			<rect id="rect7979" x="19.6" y="219.9" transform="matrix(-0.9962 8.716776e-02 -8.716776e-02 -0.9962 67.8086 445.9637)" width="9.2" height="9.2"/>
		
			<rect id="rect7981" x="83.8" y="205.7" transform="matrix(-0.9962 8.716776e-02 -8.716776e-02 -0.9962 194.8834 412.1171)" width="9.2" height="9.2"/>
		
			<rect id="rect7983" x="143.4" y="201.7" transform="matrix(-0.9962 8.716776e-02 -8.716776e-02 -0.9962 313.4063 398.9657)" width="9.2" height="9.2"/>
		<polygon id="rect7985" points="158.4,157.6 132.4,158.4 134.6,167.6 160.7,166.8 		"/>
		<path id="path7987" sodipodi:nodetypes="cc" inkscape:connector-curvature="0" class="st0" d="M186.1,183.3
			c-18.2,0.5-9,27.6-37.6,25.9"/>
		<path id="path7989" sodipodi:nodetypes="csc" inkscape:connector-curvature="0" class="st0" d="M187.7,190.6
			c-16.5,1-8.8,19.4-26.9,22.3c-65.8,10.3-74.2,12.5-72.1-1.3"/>
		<path id="path7991" sodipodi:nodetypes="cc" inkscape:connector-curvature="0" class="st0" d="M186.1,176.1
			c-11.4,0.6-26.2-13.8-36.7-13.2"/>
		<path id="path7993" sodipodi:nodetypes="csc" inkscape:connector-curvature="0" class="st0" d="M187.7,197.8
			c-11.6-1-6.9,17.6-25.7,20c-132.3,17-131.1,23.9-136.7,8.7"/>
		<path id="path7995" sodipodi:nodetypes="cssc" inkscape:connector-curvature="0" class="st0" d="M187.7,205
			c-11.6,2.4-4.1,14.3-22.9,17.1c-10.7,1.6-65.9,9.1-112.8,15.4c-47.5,6.4-86.6,11.6-90.4,6.2"/>
	</g>
	<g id="g8069" transform="translate(-270.70279,-277.47795)">
		<g id="g8004" transform="matrix(-1,0,0,1,724.37363,0)">
			<polygon id="rect7780" class="st1" points="493.2,445.4 503.4,445.4 503.4,445.4 			"/>
			<polygon id="rect7782" class="st1" points="493.2,438.2 503.4,438.2 503.4,438.2 			"/>
			<polygon id="rect7784" class="st1" points="493.2,431 503.4,431 503.4,431 			"/>
			<polygon id="rect7786" class="st1" points="493.2,423.8 503.4,423.8 503.4,423.8 			"/>
			<polygon id="rect7788" class="st1" points="493.2,416.6 503.4,416.6 503.4,416.6 			"/>
			<polygon id="rect7790" class="st1" points="493.2,452.6 503.4,452.6 503.4,452.6 			"/>
		</g>
		<rect id="rect14308" x="144.4" y="327.5" width="8.5" height="8.5"/>
		<rect id="rect7959" x="144.4" y="587.6" width="8.5" height="8.5"/>
		<rect id="rect7961" x="144.4" y="392.5" width="8.5" height="8.5"/>
		<rect id="rect7963" x="144.4" y="457.5" width="8.5" height="8.5"/>
		<rect id="rect7965" x="144.4" y="522.6" width="8.5" height="8.5"/>
		<rect id="rect8045" x="159.9" y="558.2" width="8.5" height="18.2"/>
		<path id="path8017" sodipodi:nodetypes="cc" inkscape:connector-curvature="0" class="st0" d="M223.4,431
			c-74.7-1-67-3.2-74.3,29.6"/>
		<path id="path8019" sodipodi:nodetypes="cc" inkscape:connector-curvature="0" class="st0" d="M224.6,438.2
			c-87.8,0.8-57-8.9-73.9,88.7"/>
		<path id="path8021" sodipodi:nodetypes="cc" inkscape:connector-curvature="0" class="st0" d="M222.2,445.2
			c-78.2,1.6-50.7-22.4-70.3,146.7"/>
		<path id="path8023" sodipodi:nodetypes="cc" inkscape:connector-curvature="0" class="st0" d="M224.2,452.7
			c-68.5,1.2-53.9-18.8-62.8,107.2"/>
		<path id="path8025" sodipodi:nodetypes="cc" inkscape:connector-curvature="0" class="st0" d="M224.2,423.8
			c-51.1,0-71.6,4.7-75.1-23.8"/>
		<path id="path8027" sodipodi:nodetypes="csc" inkscape:connector-curvature="0" class="st0" d="M224.2,416.6
			c-79.3-0.1-66.1,2-67.5-45.7c-1.1-35.5-2.2-33.2-4.8-38.4"/>
	</g>
	<g id="g8956" transform="matrix(0,-1,1,0,-128.02949,642.35277)">
		
			<rect id="rect8836" x="294.7" y="190.6" transform="matrix(-2.535182e-06 -1 1 -2.535182e-06 243.459 638.2415)" width="292.2" height="13.6"/>
		<circle id="circle8838" class="st2" cx="442.4" cy="255.7" r="6.4"/>
		
			<rect id="rect8840" x="434.3" y="239.5" transform="matrix(-2.535182e-06 -1 1 -2.535182e-06 199.6633 685.0273)" class="st2" width="16" height="6.4"/>
		<circle id="circle8842" class="st2" cx="442.4" cy="320.3" r="6.4"/>
		
			<rect id="rect8844" x="434.7" y="304.4" transform="matrix(-2.535182e-06 -1 1 -2.535182e-06 134.7599 749.926)" class="st2" width="15.2" height="6.4"/>
		<circle id="circle8846" class="st2" cx="442.4" cy="190.4" r="6.4"/>
		
			<rect id="rect8848" x="434.4" y="174.3" transform="matrix(-2.535182e-06 -1 1 -2.535182e-06 264.6981 619.7786)" class="st2" width="15.7" height="6.4"/>
		<circle id="circle8850" class="st2" cx="442.4" cy="125.4" r="6.4"/>
		
			<rect id="rect8852" x="434.2" y="135.3" transform="matrix(-2.535182e-06 -1 1 -2.535182e-06 303.6587 580.7295)" class="st2" width="16" height="6.4"/>
		<circle id="circle8854" class="st2" cx="442.4" cy="60" r="6.4"/>
		<path id="path8856" inkscape:connector-curvature="0" d="M442.4,121c2.3,0,4.3,1.9,4.3,4.3c0,2.3-1.9,4.3-4.3,4.3
			c-2.3,0-4.3-1.9-4.3-4.3C438.1,123,440.1,121,442.4,121z M442.4,123.5c-1,0-1.8,0.8-1.8,1.8l0,0c0,1,0.8,1.8,1.8,1.8l0,0
			c1,0,1.8-0.8,1.8-1.8l0,0C444.2,124.2,443.4,123.5,442.4,123.5L442.4,123.5z"/>
		
			<rect id="rect8858" x="438.2" y="132.3" transform="matrix(-2.535182e-06 -1 1 -2.535182e-06 308.8767 575.5784)" width="8" height="2.1"/>
		<path id="path8860" inkscape:connector-curvature="0" d="M442.4,194.7c2.3,0,4.3-1.9,4.3-4.3c0-2.3-1.9-4.3-4.3-4.3
			c-2.3,0-4.3,1.9-4.3,4.3C438.1,192.7,440.1,194.7,442.4,194.7z M442.4,192.2c-1,0-1.8-0.8-1.8-1.8l0,0c0-1,0.8-1.8,1.8-1.8l0,0
			c1,0,1.8,0.8,1.8,1.8l0,0C444.2,191.4,443.4,192.2,442.4,192.2L442.4,192.2z"/>
		
			<rect id="rect8862" x="438.3" y="181.7" transform="matrix(-2.535182e-06 -1 1 -2.535182e-06 259.526 625.0783)" width="8" height="2.1"/>
		<path id="path8864" inkscape:connector-curvature="0" d="M442.4,259.8c2.3,0,4.3-1.9,4.3-4.3c0-2.3-1.9-4.3-4.3-4.3
			c-2.3,0-4.3,1.9-4.3,4.3C438.1,257.9,440.1,259.8,442.4,259.8z M442.4,257.4c-1,0-1.8-0.8-1.8-1.8l0,0c0-1,0.8-1.8,1.8-1.8l0,0
			c1,0,1.8,0.8,1.8,1.8l0,0C444.2,256.7,443.4,257.4,442.4,257.4L442.4,257.4z"/>
		
			<rect id="rect8866" x="438.2" y="246.8" transform="matrix(-2.535182e-06 -1 1 -2.535182e-06 194.3608 690.0764)" width="8" height="2.1"/>
		<path id="path8868" inkscape:connector-curvature="0" d="M442.4,325c2.3,0,4.3-1.9,4.3-4.3c0-2.3-1.9-4.3-4.3-4.3
			c-2.3,0-4.3,1.9-4.3,4.3C438.1,323.2,440.1,325,442.4,325z M442.4,322.7c-1,0-1.8-0.8-1.8-1.8l0,0c0-1,0.8-1.8,1.8-1.8l0,0
			c1,0,1.8,0.8,1.8,1.8l0,0C444.2,321.8,443.4,322.7,442.4,322.7L442.4,322.7z"/>
		
			<rect id="rect8870" x="438.3" y="312.1" transform="matrix(-2.535182e-06 -1 1 -2.535182e-06 129.1812 755.4751)" width="8" height="2.1"/>
		
			<rect id="rect8872" x="434.6" y="69.8" transform="matrix(-2.535182e-06 -1 1 -2.535182e-06 369.4977 515.4263)" class="st2" width="15.8" height="6.4"/>
		
			<rect id="rect8874" x="438.2" y="66.5" transform="matrix(-2.535182e-06 -1 1 -2.535182e-06 374.5973 509.7801)" width="8" height="2.1"/>
		<path id="path8876" inkscape:connector-curvature="0" d="M442.4,55.8c2.3,0,4.3,1.9,4.3,4.3c0,2.3-1.9,4.3-4.3,4.3
			c-2.3,0-4.3-1.9-4.3-4.3C438.1,57.8,440.1,55.8,442.4,55.8z M442.4,58.3c-1,0-1.8,0.8-1.8,1.8l0,0c0,1,0.8,1.8,1.8,1.8l0,0
			c1,0,1.8-0.8,1.8-1.8l0,0C444.2,59,443.4,58.3,442.4,58.3L442.4,58.3z"/>
		<g id="g8878" transform="matrix(0,1,-1,0,762.68827,-294.76343)">
			<rect id="rect8880" x="364.3" y="318.9" width="2.6" height="2.7"/>
			<rect id="rect8882" x="373.2" y="318.9" width="2.6" height="2.7"/>
		</g>
		<g id="g8884" transform="matrix(0,1,-1,0,762.68827,-212.50083)">
			<rect id="rect8886" x="347.8" y="318.9" width="2.6" height="2.7"/>
			<rect id="rect8888" x="356.7" y="318.9" width="2.6" height="2.7"/>
		</g>
		<g id="g8890" transform="matrix(0,1,-1,0,762.68827,-169.78503)">
			<rect id="rect8892" x="339.3" y="318.9" width="2.6" height="2.7"/>
			<rect id="rect8894" x="348.2" y="318.9" width="2.6" height="2.7"/>
		</g>
		<g id="g8896" transform="matrix(0,1,-1,0,762.68827,-88.467029)">
			<rect id="rect8898" x="323" y="318.9" width="2.6" height="2.7"/>
			<rect id="rect8900" x="331.9" y="318.9" width="2.6" height="2.7"/>
		</g>
		<g id="g8902" transform="matrix(0,1,-1,0,762.68827,-6.9012286)">
			<rect id="rect8904" x="306.7" y="318.9" width="2.6" height="2.7"/>
			<rect id="rect8906" x="315.6" y="318.9" width="2.6" height="2.7"/>
		</g>
		<g id="g8908" transform="translate(147.02493,-0.61651615)">
			
				<rect id="rect8910" x="290.8" y="145.1" transform="matrix(-2.535182e-06 -1 1 -2.535182e-06 140.2871 443.4467)" class="st2" width="2.1" height="13"/>
			
				<rect id="rect8912" x="290.8" y="159.5" transform="matrix(-2.535182e-06 -1 1 -2.535182e-06 125.887 457.8468)" class="st2" width="2.1" height="13"/>
		</g>
		
			<rect id="rect8914" x="437.8" y="323.7" transform="matrix(-2.535182e-06 -1 1 -2.535182e-06 108.6513 769.1435)" class="st2" width="2.1" height="13"/>
	</g>
	<g id="g5599" transform="translate(42.934034,-548.51283)">
		<rect id="rect9000" x="-119.8" y="727.8" width="292.2" height="13.6"/>
		<circle id="circle9002" class="st2" cx="84.7" cy="733.1" r="6.4"/>
		<rect id="rect9004" x="63.6" y="729.9" class="st2" width="16" height="6.4"/>
		<circle id="circle9006" class="st2" cx="149.2" cy="733.1" r="6.4"/>
		<rect id="rect9008" x="129" y="729.9" class="st2" width="15.2" height="6.4"/>
		<circle id="circle9010" class="st2" cx="19.4" cy="733.1" r="6.4"/>
		<rect id="rect9012" x="-1.3" y="729.9" class="st2" width="15.7" height="6.4"/>
		<circle id="circle9014" class="st2" cx="-45.7" cy="733.1" r="6.4"/>
		<rect id="rect9016" x="-40.4" y="729.9" class="st2" width="16" height="6.4"/>
		<circle id="circle9018" class="st2" cx="-111" cy="733.1" r="6.4"/>
		<path id="path9020" inkscape:connector-curvature="0" d="M-50,733.1c0-2.3,1.9-4.3,4.3-4.3c2.3,0,4.3,1.9,4.3,4.3
			c0,2.3-1.9,4.3-4.3,4.3S-50,735.5-50,733.1z M-47.4,733.1c0,1,0.8,1.8,1.8,1.8l0,0c1,0,1.8-0.8,1.8-1.8l0,0c0-1-0.8-1.8-1.8-1.8
			l0,0C-46.7,731.4-47.4,732.2-47.4,733.1L-47.4,733.1z"/>
		<rect id="rect9022" x="-41.7" y="732.1" width="8" height="2.1"/>
		<path id="path9024" inkscape:connector-curvature="0" d="M23.8,733.1c0-2.3-1.9-4.3-4.3-4.3c-2.3,0-4.3,1.9-4.3,4.3
			c0,2.3,1.9,4.3,4.3,4.3S23.8,735.5,23.8,733.1z M21.3,733.1c0,1-0.8,1.8-1.8,1.8l0,0c-1,0-1.8-0.8-1.8-1.8l0,0
			c0-1,0.8-1.8,1.8-1.8l0,0C20.4,731.4,21.3,732.2,21.3,733.1L21.3,733.1z"/>
		<rect id="rect9026" x="7.9" y="732.1" width="8" height="2.1"/>
		<path id="path9028" inkscape:connector-curvature="0" d="M89,733.1c0-2.3-1.9-4.3-4.3-4.3c-2.3,0-4.3,1.9-4.3,4.3
			c0,2.3,1.9,4.3,4.3,4.3S89,735.5,89,733.1z M86.5,733.1c0,1-0.8,1.8-1.8,1.8l0,0c-1,0-1.8-0.8-1.8-1.8l0,0c0-1,0.8-1.8,1.8-1.8
			l0,0C85.6,731.4,86.5,732.2,86.5,733.1L86.5,733.1z"/>
		<rect id="rect9030" x="72.9" y="732.1" width="8" height="2.1"/>
		<path id="path9032" inkscape:connector-curvature="0" d="M154.2,733.1c0-2.3-1.9-4.3-4.3-4.3c-2.3,0-4.3,1.9-4.3,4.3
			c0,2.3,1.9,4.3,4.3,4.3C152.2,737.4,154.2,735.5,154.2,733.1z M151.7,733.1c0,1-0.8,1.8-1.8,1.8l0,0c-1,0-1.8-0.8-1.8-1.8l0,0
			c0-1,0.8-1.8,1.8-1.8l0,0C150.9,731.4,151.7,732.2,151.7,733.1L151.7,733.1z"/>
		<rect id="rect9034" x="138.2" y="732.1" width="8" height="2.1"/>
		<rect id="rect9036" x="-106" y="729.9" class="st2" width="15.8" height="6.4"/>
		<rect id="rect9038" x="-107.4" y="732.1" width="8" height="2.1"/>
		<path id="path9040" inkscape:connector-curvature="0" d="M-115.1,733.1c0-2.3,1.9-4.3,4.3-4.3c2.3,0,4.3,1.9,4.3,4.3
			c0,2.3-1.9,4.3-4.3,4.3C-113.3,737.4-115.1,735.5-115.1,733.1z M-112.6,733.1c0,1,0.8,1.8,1.8,1.8l0,0c1,0,1.8-0.8,1.8-1.8l0,0
			c0-1-0.8-1.8-1.8-1.8l0,0C-111.9,731.4-112.6,732.2-112.6,733.1L-112.6,733.1z"/>
		<g id="g9042" transform="translate(-465.72695,409.01203)">
			<rect id="rect9044" x="364.3" y="322.8" width="2.6" height="2.7"/>
			<rect id="rect9046" x="373.2" y="322.8" width="2.6" height="2.7"/>
		</g>
		<g id="g9048" transform="translate(-383.46435,409.01203)">
			<rect id="rect9050" x="347.8" y="322.8" width="2.6" height="2.7"/>
			<rect id="rect9052" x="356.7" y="322.8" width="2.6" height="2.7"/>
		</g>
		<g id="g9054" transform="translate(-340.74855,409.01203)">
			<rect id="rect9056" x="339.3" y="322.8" width="2.6" height="2.7"/>
			<rect id="rect9058" x="348.2" y="322.8" width="2.6" height="2.7"/>
		</g>
		<g id="g9060" transform="translate(-259.43055,409.01203)">
			<rect id="rect9062" x="323" y="322.8" width="2.6" height="2.7"/>
			<rect id="rect9064" x="331.9" y="322.8" width="2.6" height="2.7"/>
		</g>
		<g id="g9066" transform="translate(-177.86475,409.01203)">
			<rect id="rect9068" x="306.7" y="322.8" width="2.6" height="2.7"/>
			<rect id="rect9070" x="315.7" y="322.8" width="2.6" height="2.7"/>
		</g>
		<g id="g9072" transform="matrix(0,-1,1,0,-171.58004,1024.6754)">
			
				<rect id="rect9074" x="286.9" y="145" transform="matrix(-2.535182e-06 -1 1 -2.535182e-06 136.4867 439.5111)" class="st2" width="2.1" height="13"/>
			
				<rect id="rect9076" x="286.9" y="159.4" transform="matrix(-2.535182e-06 -1 1 -2.535182e-06 122.087 453.9104)" class="st2" width="2.1" height="13"/>
		</g>
		<rect id="rect9078" x="158" y="729.9" class="st2" width="2.1" height="13"/>
	</g>
	<g id="g9080" transform="matrix(0,-1,1,0,-160.76409,450.14471)">
		<polygon id="rect9082" points="395.3,57.8 408.9,57.8 409.1,300 426.1,300 425.9,350.6 412.3,350.6 412.3,311.7 395.3,311.4 		"/>
		<circle id="circle9084" class="st2" cx="403.6" cy="262.3" r="6.4"/>
		
			<rect id="rect9086" x="395.5" y="246" transform="matrix(-2.535182e-06 -1 1 -2.535182e-06 154.2851 652.7636)" class="st2" width="16" height="6.4"/>
		<circle id="circle9088" class="st2" cx="421.3" cy="326.8" r="6.4"/>
		
			<rect id="rect9090" x="413.5" y="310.9" transform="matrix(-2.535182e-06 -1 1 -2.535182e-06 107.0077 735.2348)" class="st2" width="15.2" height="6.4"/>
		<circle id="circle9092" class="st2" cx="403.6" cy="196.9" r="6.4"/>
		
			<rect id="rect9094" x="395.8" y="180.9" transform="matrix(-2.535182e-06 -1 1 -2.535182e-06 219.5198 587.7156)" class="st2" width="15.7" height="6.4"/>
		<circle id="circle9096" class="st2" cx="403.6" cy="131.9" r="6.4"/>
		
			<rect id="rect9098" x="395.7" y="142" transform="matrix(-2.535182e-06 -1 1 -2.535182e-06 258.4795 548.8656)" class="st2" width="16" height="6.4"/>
		<circle id="circle9100" class="st2" cx="403.6" cy="66.6" r="6.4"/>
		<path id="path9102" inkscape:connector-curvature="0" d="M403.6,127.6c2.3,0,4.3,1.9,4.3,4.3c0,2.3-1.9,4.3-4.3,4.3
			c-2.3,0-4.3-1.9-4.3-4.3S401.2,127.6,403.6,127.6z M403.6,130c-1,0-1.8,0.8-1.8,1.8l0,0c0,1,0.8,1.8,1.8,1.8l0,0
			c1,0,1.8-0.8,1.8-1.8l0,0C405.3,130.9,404.5,130,403.6,130L403.6,130z"/>
		
			<rect id="rect9104" x="399.4" y="139" transform="matrix(-2.535182e-06 -1 1 -2.535182e-06 263.3981 543.4156)" width="8" height="2.1"/>
		<path id="path9106" inkscape:connector-curvature="0" d="M403.6,201.2c2.3,0,4.3-1.9,4.3-4.3c0-2.3-1.9-4.3-4.3-4.3
			c-2.3,0-4.3,1.9-4.3,4.3S401.2,201.2,403.6,201.2z M403.6,198.7c-1,0-1.8-0.8-1.8-1.8l0,0c0-1,0.8-1.8,1.8-1.8l0,0
			c1,0,1.8,0.8,1.8,1.8l0,0C405.3,197.9,404.5,198.7,403.6,198.7L403.6,198.7z"/>
		
			<rect id="rect9108" x="399.5" y="188.3" transform="matrix(-2.535182e-06 -1 1 -2.535182e-06 214.1476 592.8146)" width="8" height="2.1"/>
		<path id="path9110" inkscape:connector-curvature="0" d="M403.6,266.4c2.3,0,4.3-1.9,4.3-4.3c0-2.3-1.9-4.3-4.3-4.3
			c-2.3,0-4.3,1.9-4.3,4.3C399.3,264.6,401.2,266.4,403.6,266.4z M403.6,263.9c-1,0-1.8-0.8-1.8-1.8l0,0c0-1,0.8-1.8,1.8-1.8l0,0
			c1,0,1.8,0.8,1.8,1.8l0,0C405.3,263.2,404.5,263.9,403.6,263.9L403.6,263.9z"/>
		
			<rect id="rect9112" x="399.4" y="253.5" transform="matrix(-2.535182e-06 -1 1 -2.535182e-06 148.8826 657.9136)" width="8" height="2.1"/>
		<path id="path9114" inkscape:connector-curvature="0" d="M421.3,331.7c2.3,0,4.3-1.9,4.3-4.3c0-2.3-1.9-4.3-4.3-4.3
			c-2.3,0-4.3,1.9-4.3,4.3S418.9,331.7,421.3,331.7z M421.3,329.2c-1,0-1.8-0.8-1.8-1.8l0,0c0-1,0.8-1.8,1.8-1.8l0,0
			c1,0,1.8,0.8,1.8,1.8l0,0C423.1,328.4,422.3,329.2,421.3,329.2L421.3,329.2z"/>
		
			<rect id="rect9116" x="417.1" y="318.5" transform="matrix(-2.535182e-06 -1 1 -2.535182e-06 101.5292 740.6848)" width="8" height="2.1"/>
		
			<rect id="rect9118" x="395.6" y="76.4" transform="matrix(-2.535182e-06 -1 1 -2.535182e-06 323.9195 483.1627)" class="st2" width="15.8" height="6.4"/>
		
			<rect id="rect9120" x="399.6" y="73.1" transform="matrix(-2.535182e-06 -1 1 -2.535182e-06 329.4189 477.7168)" width="8" height="2.1"/>
		<path id="path9122" inkscape:connector-curvature="0" d="M403.6,62.3c2.3,0,4.3,1.9,4.3,4.3c0,2.3-1.9,4.3-4.3,4.3
			c-2.3,0-4.3-1.9-4.3-4.3C399.3,64.3,401.2,62.3,403.6,62.3z M403.6,64.9c-1,0-1.8,0.8-1.8,1.8l0,0c0,1,0.8,1.8,1.8,1.8l0,0
			c1,0,1.8-0.8,1.8-1.8l0,0C405.3,65.6,404.5,64.9,403.6,64.9L403.6,64.9z"/>
		<g id="g9124" transform="matrix(0,1,-1,0,762.68827,-294.76343)">
			<rect id="rect9126" x="370.8" y="357.8" width="2.6" height="2.7"/>
			<rect id="rect9128" x="379.7" y="357.8" width="2.6" height="2.7"/>
		</g>
		<g id="g9130" transform="matrix(0,1,-1,0,762.68827,-212.50083)">
			<rect id="rect9132" x="354.4" y="357.8" width="2.6" height="2.7"/>
			<rect id="rect9134" x="363.3" y="357.8" width="2.6" height="2.7"/>
		</g>
		<g id="g9136" transform="matrix(0,1,-1,0,762.68827,-169.78503)">
			<rect id="rect9138" x="345.8" y="357.8" width="2.6" height="2.7"/>
			<rect id="rect9140" x="354.7" y="357.8" width="2.6" height="2.7"/>
		</g>
		<g id="g9142" transform="matrix(0,1,-1,0,762.68827,-88.467029)">
			<rect id="rect9144" x="329.6" y="357.8" width="2.6" height="2.7"/>
			<rect id="rect9146" x="338.6" y="357.8" width="2.6" height="2.7"/>
		</g>
		<g id="g9148" transform="matrix(0,1,-1,0,762.68827,-6.9012286)">
			<rect id="rect9150" x="313.2" y="340.1" width="2.6" height="2.7"/>
			<rect id="rect9152" x="322.2" y="340.1" width="2.6" height="2.7"/>
		</g>
		<g id="g9154" transform="translate(147.02493,-0.61651615)">
			
				<rect id="rect9156" x="252.1" y="151.5" transform="matrix(-2.535182e-06 -1 1 -2.535182e-06 95.1087 411.1834)" class="st2" width="2.1" height="13"/>
			
				<rect id="rect9158" x="252.1" y="165.9" transform="matrix(-2.535182e-06 -1 1 -2.535182e-06 80.7085 425.5829)" class="st2" width="2.1" height="13"/>
		</g>
		
			<rect id="rect9160" x="416.8" y="330.2" transform="matrix(-2.535182e-06 -1 1 -2.535182e-06 81.1993 754.5524)" class="st2" width="2.1" height="13"/>
		<path class="st3" d="M395.4,314.1"/>
		<path class="st3" d="M412.3,314.1"/>
	</g>
	<g id="g9162" transform="matrix(0,-1,1,0,-161.23326,493.26362)">
		
			<rect id="rect9164" x="264.9" y="197.2" transform="matrix(-2.535182e-06 -1 1 -2.535182e-06 206.9853 614.9842)" width="292.2" height="13.6"/>
		<circle id="circle9166" class="st2" cx="412.6" cy="262.3" r="6.4"/>
		
			<rect id="rect9168" x="404.4" y="246" transform="matrix(-2.535182e-06 -1 1 -2.535182e-06 163.1895 661.5699)" class="st2" width="16" height="6.4"/>
		<circle id="circle9170" class="st2" cx="412.6" cy="326.8" r="6.4"/>
		
			<rect id="rect9172" x="404.9" y="311" transform="matrix(-2.535182e-06 -1 1 -2.535182e-06 98.2863 726.6682)" class="st2" width="15.2" height="6.4"/>
		<circle id="circle9174" class="st2" cx="412.6" cy="197" r="6.4"/>
		
			<rect id="rect9176" x="404.5" y="181" transform="matrix(-2.535182e-06 -1 1 -2.535182e-06 228.1244 596.6212)" class="st2" width="15.7" height="6.4"/>
		<circle id="circle9178" class="st2" cx="412.6" cy="131.9" r="6.4"/>
		
			<rect id="rect9180" x="404.5" y="142" transform="matrix(-2.535182e-06 -1 1 -2.535182e-06 267.2845 557.7718)" class="st2" width="16" height="6.4"/>
		<circle id="circle9182" class="st2" cx="412.6" cy="66.6" r="6.4"/>
		<path id="path9184" inkscape:connector-curvature="0" d="M412.6,127.6c2.3,0,4.3,1.9,4.3,4.3c0,2.3-1.9,4.3-4.3,4.3
			c-2.3,0-4.3-1.9-4.3-4.3C408.3,129.6,410.2,127.6,412.6,127.6z M412.6,130.1c-1,0-1.8,0.8-1.8,1.8l0,0c0,1,0.8,1.8,1.8,1.8l0,0
			c1,0,1.8-0.8,1.8-1.8l0,0C414.4,130.9,413.6,130.1,412.6,130.1L412.6,130.1z"/>
		
			<rect id="rect9186" x="408.4" y="139" transform="matrix(-2.535182e-06 -1 1 -2.535182e-06 272.3037 552.421)" width="8" height="2.1"/>
		<path id="path9188" inkscape:connector-curvature="0" d="M412.6,201.4c2.3,0,4.3-1.9,4.3-4.3c0-2.3-1.9-4.3-4.3-4.3
			c-2.3,0-4.3,1.9-4.3,4.3S410.2,201.4,412.6,201.4z M412.6,198.9c-1,0-1.8-0.8-1.8-1.8l0,0c0-1,0.8-1.8,1.8-1.8l0,0
			c1,0,1.8,0.8,1.8,1.8l0,0C414.4,198,413.6,198.9,412.6,198.9L412.6,198.9z"/>
		
			<rect id="rect9190" x="408.4" y="188.4" transform="matrix(-2.535182e-06 -1 1 -2.535182e-06 222.9526 601.9206)" width="8" height="2.1"/>
		<path id="path9192" inkscape:connector-curvature="0" d="M412.6,266.6c2.3,0,4.3-1.9,4.3-4.3c0-2.3-1.9-4.3-4.3-4.3
			c-2.3,0-4.3,1.9-4.3,4.3S410.2,266.6,412.6,266.6z M412.6,264c-1,0-1.8-0.8-1.8-1.8l0,0c0-1,0.8-1.8,1.8-1.8l0,0
			c1,0,1.8,0.8,1.8,1.8l0,0C414.4,263.2,413.6,264,412.6,264L412.6,264z"/>
		
			<rect id="rect9194" x="408.4" y="253.5" transform="matrix(-2.535182e-06 -1 1 -2.535182e-06 157.7876 666.919)" width="8" height="2.1"/>
		<path id="path9196" inkscape:connector-curvature="0" d="M412.6,331.8c2.3,0,4.3-1.9,4.3-4.3c0-2.3-1.9-4.3-4.3-4.3
			c-2.3,0-4.3,1.9-4.3,4.3S410.2,331.8,412.6,331.8z M412.6,329.3c-1,0-1.8-0.8-1.8-1.8l0,0c0-1,0.8-1.8,1.8-1.8l0,0
			c1,0,1.8,0.8,1.8,1.8l0,0C414.4,328.4,413.6,329.3,412.6,329.3L412.6,329.3z"/>
		
			<rect id="rect9198" x="408.4" y="318.7" transform="matrix(-2.535182e-06 -1 1 -2.535182e-06 92.6076 732.1182)" width="8" height="2.1"/>
		
			<rect id="rect9200" x="404.5" y="76.3" transform="matrix(-2.535182e-06 -1 1 -2.535182e-06 332.9245 491.8688)" class="st2" width="15.8" height="6.4"/>
		
			<rect id="rect9202" x="408.4" y="73.3" transform="matrix(-2.535182e-06 -1 1 -2.535182e-06 338.1235 486.7228)" width="8" height="2.1"/>
		<path id="path9204" inkscape:connector-curvature="0" d="M412.6,62.5c2.3,0,4.3,1.9,4.3,4.3c0,2.3-1.9,4.3-4.3,4.3
			c-2.3,0-4.3-1.9-4.3-4.3S410.2,62.5,412.6,62.5z M412.6,65c-1,0-1.8,0.8-1.8,1.8l0,0c0,1,0.8,1.8,1.8,1.8l0,0c1,0,1.8-0.8,1.8-1.8
			l0,0C414.4,65.7,413.6,65,412.6,65L412.6,65z"/>
		<g id="g9206" transform="matrix(0,1,-1,0,762.68827,-294.76343)">
			<rect id="rect9208" x="370.9" y="348.8" width="2.6" height="2.7"/>
			<rect id="rect9210" x="379.8" y="348.8" width="2.6" height="2.7"/>
		</g>
		<g id="g9212" transform="matrix(0,1,-1,0,762.68827,-212.50083)">
			<rect id="rect9214" x="354.3" y="348.8" width="2.6" height="2.7"/>
			<rect id="rect9216" x="363.3" y="348.8" width="2.6" height="2.7"/>
		</g>
		<g id="g9218" transform="matrix(0,1,-1,0,762.68827,-169.78503)">
			<rect id="rect9220" x="345.8" y="348.8" width="2.6" height="2.7"/>
			<rect id="rect9222" x="354.8" y="348.8" width="2.6" height="2.7"/>
		</g>
		<g id="g9224" transform="matrix(0,1,-1,0,762.68827,-88.467029)">
			<rect id="rect9226" x="329.7" y="348.8" width="2.6" height="2.7"/>
			<rect id="rect9228" x="338.7" y="348.8" width="2.6" height="2.7"/>
		</g>
		<g id="g9230" transform="matrix(0,1,-1,0,762.68827,-6.9012286)">
			<rect id="rect9232" x="313.3" y="348.8" width="2.6" height="2.7"/>
			<rect id="rect9234" x="322.3" y="348.8" width="2.6" height="2.7"/>
		</g>
		<g id="g9236" transform="translate(147.02493,-0.61651615)">
			
				<rect id="rect9238" x="261.2" y="151.7" transform="matrix(-2.535182e-06 -1 1 -2.535182e-06 104.0135 420.3893)" class="st2" width="2.1" height="13"/>
			
				<rect id="rect9240" x="261.2" y="166.1" transform="matrix(-2.535182e-06 -1 1 -2.535182e-06 89.6136 434.7886)" class="st2" width="2.1" height="13"/>
		</g>
		
			<rect id="rect9242" x="408" y="330.4" transform="matrix(-2.535182e-06 -1 1 -2.535182e-06 72.1779 745.8867)" class="st2" width="2.1" height="13"/>
	</g>
	<g id="g9244" transform="matrix(0,-1,1,0,-161.35581,471.93591)">
		
			<rect id="rect9246" x="260.6" y="197.3" transform="matrix(-2.535182e-06 -1 1 -2.535182e-06 202.6817 610.8077)" width="292.2" height="13.6"/>
		<circle id="circle9248" class="st2" cx="408.3" cy="262.3" r="6.4"/>
		
			<rect id="rect9250" x="400.2" y="246.2" transform="matrix(-2.535182e-06 -1 1 -2.535182e-06 158.8865 657.5939)" class="st2" width="16" height="6.4"/>
		<circle id="circle9252" class="st2" cx="408.3" cy="326.8" r="6.4"/>
		
			<rect id="rect9254" x="400.6" y="311.2" transform="matrix(-2.535182e-06 -1 1 -2.535182e-06 93.8823 722.5928)" class="st2" width="15.2" height="6.4"/>
		<circle id="circle9256" class="st2" cx="408.3" cy="197" r="6.4"/>
		
			<rect id="rect9258" x="400.4" y="181" transform="matrix(-2.535182e-06 -1 1 -2.535182e-06 224.021 592.446)" class="st2" width="15.7" height="6.4"/>
		<circle id="circle9260" class="st2" cx="408.3" cy="132" r="6.4"/>
		
			<rect id="rect9262" x="400.2" y="142.1" transform="matrix(-2.535182e-06 -1 1 -2.535182e-06 262.8809 553.4968)" class="st2" width="16" height="6.4"/>
		<circle id="circle9264" class="st2" cx="408.3" cy="66.7" r="6.4"/>
		<path id="path9266" inkscape:connector-curvature="0" d="M408.3,127.6c2.3,0,4.3,1.9,4.3,4.3c0,2.3-1.9,4.3-4.3,4.3
			c-2.3,0-4.3-1.9-4.3-4.3C404.1,129.6,406,127.6,408.3,127.6z M408.3,130.1c-1,0-1.8,0.8-1.8,1.8l0,0c0,1,0.8,1.8,1.8,1.8l0,0
			c1,0,1.8-0.8,1.8-1.8l0,0C410.1,130.9,409.3,130.1,408.3,130.1L408.3,130.1z"/>
		
			<rect id="rect9268" x="404.1" y="139.2" transform="matrix(-2.535182e-06 -1 1 -2.535182e-06 267.8996 548.3459)" width="8" height="2.1"/>
		<path id="path9270" inkscape:connector-curvature="0" d="M408.3,201.4c2.3,0,4.3-1.9,4.3-4.3c0-2.3-1.9-4.3-4.3-4.3
			c-2.3,0-4.3,1.9-4.3,4.3C404.1,199.4,406,201.4,408.3,201.4z M408.3,198.9c-1,0-1.8-0.8-1.8-1.8l0,0c0-1,0.8-1.8,1.8-1.8l0,0
			c1,0,1.8,0.8,1.8,1.8l0,0C410.1,198,409.3,198.9,408.3,198.9L408.3,198.9z"/>
		
			<rect id="rect9272" x="404.2" y="188.5" transform="matrix(-2.535182e-06 -1 1 -2.535182e-06 218.6486 597.7449)" width="8" height="2.1"/>
		<path id="path9274" inkscape:connector-curvature="0" d="M408.3,266.6c2.3,0,4.3-1.9,4.3-4.3c0-2.3-1.9-4.3-4.3-4.3
			c-2.3,0-4.3,1.9-4.3,4.3C404.1,264.7,406,266.6,408.3,266.6z M408.3,264c-1,0-1.8-0.8-1.8-1.8l0,0c0-1,0.8-1.8,1.8-1.8l0,0
			c1,0,1.8,0.8,1.8,1.8l0,0C410.1,263.2,409.3,264,408.3,264L408.3,264z"/>
		
			<rect id="rect9276" x="404.1" y="253.6" transform="matrix(-2.535182e-06 -1 1 -2.535182e-06 153.4836 662.7438)" width="8" height="2.1"/>
		<path id="path9278-5" inkscape:connector-curvature="0" d="M408.3,331.8c2.3,0,4.3-1.9,4.3-4.3c0-2.3-1.9-4.3-4.3-4.3
			c-2.3,0-4.3,1.9-4.3,4.3C404.1,329.8,406,331.8,408.3,331.8z M408.3,329.3c-1,0-1.8-0.8-1.8-1.8l0,0c0-1,0.8-1.8,1.8-1.8l0,0
			c1,0,1.8,0.8,1.8,1.8l0,0C410.1,328.4,409.3,329.3,408.3,329.3L408.3,329.3z"/>
		
			<rect id="rect9280" x="404.1" y="318.9" transform="matrix(-2.535182e-06 -1 1 -2.535182e-06 88.2046 728.0424)" width="8" height="2.1"/>
		
			<rect id="rect9282" x="400.5" y="76.4" transform="matrix(-2.535182e-06 -1 1 -2.535182e-06 328.7208 487.9931)" class="st2" width="15.8" height="6.4"/>
		
			<rect id="rect9284" x="404.2" y="73.2" transform="matrix(-2.535182e-06 -1 1 -2.535182e-06 333.9201 482.447)" width="8" height="2.1"/>
		<path id="path9286" inkscape:connector-curvature="0" d="M408.3,62.5c2.3,0,4.3,1.9,4.3,4.3c0,2.3-1.9,4.3-4.3,4.3
			c-2.3,0-4.3-1.9-4.3-4.3C404.1,64.3,406,62.5,408.3,62.5z M408.3,65c-1,0-1.8,0.8-1.8,1.8l0,0c0,1,0.8,1.8,1.8,1.8l0,0
			c1,0,1.8-0.8,1.8-1.8l0,0C410.1,65.7,409.3,65,408.3,65L408.3,65z"/>
		<g id="g9288" transform="matrix(0,1,-1,0,762.68827,-294.76343)">
			<rect id="rect9290" x="370.8" y="353" width="2.6" height="2.7"/>
			<rect id="rect9292" x="379.8" y="353" width="2.6" height="2.7"/>
		</g>
		<g id="g9294" transform="matrix(0,1,-1,0,762.68827,-212.50083)">
			<rect id="rect9296" x="354.4" y="353" width="2.6" height="2.7"/>
			<rect id="rect9298" x="363.3" y="353" width="2.6" height="2.7"/>
		</g>
		<g id="g9300" transform="matrix(0,1,-1,0,762.68827,-169.78503)">
			<rect id="rect9302" x="345.8" y="353" width="2.6" height="2.7"/>
			<rect id="rect9304" x="354.8" y="353" width="2.6" height="2.7"/>
		</g>
		<g id="g9306" transform="matrix(0,1,-1,0,762.68827,-88.467029)">
			<rect id="rect9308" x="329.7" y="353" width="2.6" height="2.7"/>
			<rect id="rect9310" x="338.6" y="353" width="2.6" height="2.7"/>
		</g>
		<g id="g9312" transform="matrix(0,1,-1,0,762.68827,-6.9012286)">
			<rect id="rect9314" x="313.3" y="353" width="2.6" height="2.7"/>
			<rect id="rect9316" x="322.3" y="353" width="2.6" height="2.7"/>
		</g>
		<g id="g9318" transform="translate(147.02493,-0.61651615)">
			
				<rect id="rect9320" x="256.8" y="151.7" transform="matrix(-2.535182e-06 -1 1 -2.535182e-06 99.7101 416.0135)" class="st2" width="2.1" height="13"/>
			
				<rect id="rect9322" x="256.8" y="166.1" transform="matrix(-2.535182e-06 -1 1 -2.535182e-06 85.3095 430.4133)" class="st2" width="2.1" height="13"/>
		</g>
		
			<rect id="rect9324" x="403.8" y="330.3" transform="matrix(-2.535182e-06 -1 1 -2.535182e-06 68.074 741.7106)" class="st2" width="2.1" height="13"/>
	</g>
	<g id="g9491" transform="matrix(0,-1,1,0,-52.956335,664.3741)">
		
			<rect id="rect9367" x="381" y="142.3" transform="matrix(-2.535182e-06 -1 1 -2.535182e-06 344.7605 642.8691)" width="225.6" height="13.6"/>
		<circle id="circle9369" class="st2" cx="492.5" cy="45.4" r="6.4"/>
		
			<rect id="rect9371" x="484.3" y="55.4" transform="matrix(-2.535182e-06 -1 1 -2.535182e-06 433.7342 550.8835)" class="st2" width="16" height="6.4"/>
		<circle id="circle9373" class="st2" cx="492.5" cy="110.7" r="6.4"/>
		
			<rect id="rect9375" x="484.6" y="120.6" transform="matrix(-2.535182e-06 -1 1 -2.535182e-06 368.5988 616.2321)" class="st2" width="15.7" height="6.4"/>
		<circle id="circle9377" class="st2" cx="492.5" cy="175.9" r="6.4"/>
		
			<rect id="rect9379" x="484.4" y="159.4" transform="matrix(-2.535182e-06 -1 1 -2.535182e-06 329.7388 654.9804)" class="st2" width="16" height="6.4"/>
		<circle id="circle9381" class="st2" cx="492.5" cy="241.2" r="6.4"/>
		<path id="path9383" inkscape:connector-curvature="0" d="M492.5,180.2c-2.3,0-4.3-1.9-4.3-4.3c0-2.3,1.9-4.3,4.3-4.3
			c2.3,0,4.3,1.9,4.3,4.3C496.7,178.2,494.8,180.2,492.5,180.2z M492.5,177.7c1,0,1.8-0.8,1.8-1.8l0,0c0-1-0.8-1.8-1.8-1.8l0,0
			c-1,0-1.8,0.8-1.8,1.8l0,0C490.7,176.9,491.5,177.7,492.5,177.7L492.5,177.7z"/>
		
			<rect id="rect9385" x="488.3" y="166.8" transform="matrix(-2.535182e-06 -1 1 -2.535182e-06 324.5204 660.1311)" width="8" height="2.1"/>
		<path id="path9387" inkscape:connector-curvature="0" d="M492.5,106.5c-2.3,0-4.3,1.9-4.3,4.3c0,2.3,1.9,4.3,4.3,4.3
			c2.3,0,4.3-1.9,4.3-4.3C496.7,108.4,494.8,106.5,492.5,106.5z M492.5,109c1,0,1.8,0.8,1.8,1.8l0,0c0,1-0.8,1.8-1.8,1.8l0,0
			c-1,0-1.8-0.8-1.8-1.8l0,0C490.7,109.7,491.5,109,492.5,109L492.5,109z"/>
		
			<rect id="rect9389" x="488.4" y="117.3" transform="matrix(-2.535182e-06 -1 1 -2.535182e-06 373.971 610.733)" width="8" height="2.1"/>
		<path id="path9391" inkscape:connector-curvature="0" d="M492.5,41.3c-2.3,0-4.3,1.9-4.3,4.3c0,2.3,1.9,4.3,4.3,4.3
			c2.3,0,4.3-1.9,4.3-4.3C496.7,43.1,494.8,41.3,492.5,41.3z M492.5,43.8c1,0,1.8,0.8,1.8,1.8l0,0c0,1-0.8,1.8-1.8,1.8l0,0
			c-1,0-1.8-0.8-1.8-1.8l0,0C490.7,44.6,491.5,43.8,492.5,43.8L492.5,43.8z"/>
		
			<rect id="rect9393" x="488.3" y="52.2" transform="matrix(-2.535182e-06 -1 1 -2.535182e-06 439.0358 545.6343)" width="8" height="2.1"/>
		
			<rect id="rect9395" x="484.4" y="225.1" transform="matrix(-2.535182e-06 -1 1 -2.535182e-06 263.9988 720.5849)" class="st2" width="15.8" height="6.4"/>
		
			<rect id="rect9397" x="488.4" y="232.6" transform="matrix(-2.535182e-06 -1 1 -2.535182e-06 258.6994 726.0307)" width="8" height="2.1"/>
		<path id="path9399" inkscape:connector-curvature="0" d="M492.5,245.4c-2.3,0-4.3-1.9-4.3-4.3c0-2.3,1.9-4.3,4.3-4.3
			c2.3,0,4.3,1.9,4.3,4.3C496.7,243.4,494.8,245.4,492.5,245.4z M492.5,242.9c1,0,1.8-0.8,1.8-1.8l0,0c0-1-0.8-1.8-1.8-1.8l0,0
			c-1,0-1.8,0.8-1.8,1.8l0,0C490.7,242,491.5,242.9,492.5,242.9L492.5,242.9z"/>
		
			<rect id="rect9403" x="491.1" y="229.1" transform="matrix(-2.535182e-06 -1 1 -2.535182e-06 261.9325 722.8299)" width="2.6" height="2.7"/>
		
			<rect id="rect9405" x="491.1" y="220.2" transform="matrix(-2.535182e-06 -1 1 -2.535182e-06 270.8008 713.9297)" width="2.6" height="2.7"/>
		
			<rect id="rect9409" x="491" y="163.3" transform="matrix(-2.535182e-06 -1 1 -2.535182e-06 327.6516 657.0314)" width="2.6" height="2.7"/>
		
			<rect id="rect9411" x="491" y="154.4" transform="matrix(-2.535182e-06 -1 1 -2.535182e-06 336.619 648.0315)" width="2.6" height="2.7"/>
		
			<rect id="rect9415" x="491.1" y="129.1" transform="matrix(-2.535182e-06 -1 1 -2.535182e-06 361.8708 622.8313)" width="2.6" height="2.7"/>
		
			<rect id="rect9417" x="491" y="120.2" transform="matrix(-2.535182e-06 -1 1 -2.535182e-06 370.7383 613.932)" width="2.6" height="2.7"/>
		
			<rect id="rect9421" x="491" y="64" transform="matrix(-2.535182e-06 -1 1 -2.535182e-06 426.9362 557.7328)" width="2.6" height="2.7"/>
		
			<rect id="rect9423" x="491" y="55.2" transform="matrix(-2.535182e-06 -1 1 -2.535182e-06 435.8029 548.8336)" width="2.6" height="2.7"/>
		
			<rect id="rect9427" x="494.5" y="203" transform="matrix(-2.535182e-06 -1 1 -2.535182e-06 286.0446 705.0615)" class="st2" width="2.1" height="13"/>
		
			<rect id="rect9429" x="494.5" y="188.6" transform="matrix(-2.535182e-06 -1 1 -2.535182e-06 300.4446 690.6622)" class="st2" width="2.1" height="13"/>
		
			<rect id="rect9433" x="494.5" y="86.2" transform="matrix(-2.535182e-06 -1 1 -2.535182e-06 402.8449 588.2638)" class="st2" width="2.1" height="13"/>
		
			<rect id="rect9435" x="494.5" y="71.8" transform="matrix(-2.535182e-06 -1 1 -2.535182e-06 417.245 573.8646)" class="st2" width="2.1" height="13"/>
		
			<rect id="rect9439" x="495" y="244.5" transform="matrix(-2.535182e-06 -1 1 -2.535182e-06 245.0673 747.0092)" class="st2" width="2.1" height="13"/>
	</g>
	<rect id="rect5158" x="-130.6" y="16.4" class="st4" width="432" height="432"/>
	<path id="path7136" sodipodi:nodetypes="cccccc" inkscape:connector-curvature="0" class="st5" d="M79.9,332.7l5-3.8l140.5-0.3
		l8.5,10.9h13.9l1.8-1.4"/>
	<g id="g7146" transform="matrix(0,1,-1,0,912.88445,389.64617)">
		<path id="path7148" inkscape:connector-curvature="0" d="M-75.9,661.2c0,1.8-1.5,3.2-3.2,3.2c-1.8,0-3.2-1.5-3.2-3.2
			c0-1.8,1.5-3.2,3.2-3.2S-75.9,659.4-75.9,661.2z M-77.8,661.2c0-0.7-0.6-1.4-1.3-1.4l0,0c-0.7,0-1.4,0.6-1.4,1.3l0,0
			c0,0.7,0.6,1.4,1.3,1.4l0,0C-78.4,662.5-77.8,662-77.8,661.2L-77.8,661.2z"/>
		<path id="path7150" inkscape:connector-curvature="0" d="M-49.5,661.2c0,1.8-1.5,3.2-3.2,3.2c-1.8,0-3.2-1.5-3.2-3.2
			c0-1.8,1.5-3.2,3.2-3.2S-49.5,659.4-49.5,661.2z M-51.4,661.2c0-0.7-0.6-1.4-1.3-1.4l0,0c-0.7,0-1.4,0.6-1.4,1.3l0,0
			c0,0.7,0.6,1.4,1.3,1.4l0,0C-52,662.5-51.4,662-51.4,661.2L-51.4,661.2z"/>
		<path id="path7152" inkscape:connector-curvature="0" d="M-52.1,675.4c0,1.8-1.5,3.2-3.2,3.2c-1.8,0-3.2-1.5-3.2-3.2
			c0-1.8,1.5-3.2,3.2-3.2C-53.5,672.2-52.1,673.7-52.1,675.4z M-54,675.4c0-0.7-0.6-1.4-1.3-1.4l0,0c-0.7,0-1.4,0.6-1.4,1.4l0,0
			c0,0.7,0.6,1.4,1.3,1.4l0,0C-54.6,676.7-54,676.2-54,675.4L-54,675.4z"/>
		<path id="path7154" inkscape:connector-curvature="0" d="M-67.3,684.4c0,1.8-1.5,3.2-3.2,3.2c-1.8,0-3.2-1.5-3.2-3.2
			c0-1.8,1.5-3.2,3.2-3.2C-68.7,681.2-67.3,682.7-67.3,684.4z M-69.1,684.4c0-0.7-0.6-1.4-1.3-1.4l0,0c-0.7,0-1.4,0.6-1.4,1.3l0,0
			c0,0.7,0.6,1.4,1.3,1.4l0,0C-69.8,685.9-69.1,685.2-69.1,684.4L-69.1,684.4z"/>
	</g>
	<path id="path7156" inkscape:connector-curvature="0" d="M150.4,312.4c1.8,0,3.2-1.5,3.2-3.2c0-1.8-1.5-3.2-3.2-3.2
		c-1.8,0-3.2,1.5-3.2,3.2C147.2,311,148.6,312.4,150.4,312.4z M150.4,310.5c-0.7,0-1.4-0.6-1.4-1.4l0,0c0-0.7,0.6-1.4,1.4-1.4l0,0
		c0.7,0,1.4,0.6,1.4,1.3l0,0C151.7,309.9,151,310.5,150.4,310.5L150.4,310.5z"/>
	<path id="path7158" inkscape:connector-curvature="0" d="M143.2,312.4c1.8,0,3.2-1.5,3.2-3.2c0-1.8-1.5-3.2-3.2-3.2
		c-1.8,0-3.2,1.5-3.2,3.2C139.9,311,141.4,312.4,143.2,312.4z M143.2,310.5c-0.7,0-1.4-0.6-1.4-1.4l0,0c0-0.7,0.6-1.4,1.3-1.4l0,0
		c0.7,0,1.4,0.6,1.4,1.3l0,0C144.6,309.9,143.9,310.5,143.2,310.5L143.2,310.5z"/>
	<path id="path7160" inkscape:connector-curvature="0" d="M135.9,312.4c1.8,0,3.2-1.5,3.2-3.2c0-1.8-1.5-3.2-3.2-3.2
		c-1.8,0-3.2,1.5-3.2,3.2C132.7,311,134.2,312.4,135.9,312.4z M135.9,310.5c-0.7,0-1.4-0.6-1.4-1.4l0,0c0-0.7,0.6-1.4,1.4-1.4l0,0
		c0.7,0,1.4,0.6,1.4,1.3l0,0C137.4,309.9,136.7,310.5,135.9,310.5L135.9,310.5z"/>
	<path id="path7162" inkscape:connector-curvature="0" d="M128.7,312.4c1.8,0,3.2-1.5,3.2-3.2c0-1.8-1.5-3.2-3.2-3.2
		c-1.8,0-3.2,1.5-3.2,3.2C125.6,311,127,312.4,128.7,312.4z M128.7,310.5c-0.7,0-1.4-0.6-1.4-1.3l0,0c0-0.7,0.6-1.4,1.3-1.4l0,0
		c0.7,0,1.4,0.6,1.4,1.3l0,0C130.2,309.9,129.4,310.5,128.7,310.5L128.7,310.5z"/>
	<path id="path7164" inkscape:connector-curvature="0" d="M121.6,312.4c1.8,0,3.2-1.5,3.2-3.2c0-1.8-1.5-3.2-3.2-3.2
		c-1.8,0-3.2,1.5-3.2,3.2C118.4,311,119.7,312.4,121.6,312.4z M121.6,310.5c-0.7,0-1.4-0.6-1.4-1.3l0,0c0-0.7,0.6-1.4,1.3-1.4l0,0
		c0.7,0,1.4,0.6,1.4,1.3l0,0C122.9,309.9,122.2,310.5,121.6,310.5L121.6,310.5z"/>
	<path id="path7166" inkscape:connector-curvature="0" d="M114.4,312.4c1.8,0,3.2-1.5,3.2-3.2c0-1.8-1.5-3.2-3.2-3.2
		c-1.8,0-3.2,1.5-3.2,3.2C111.1,311,112.6,312.4,114.4,312.4z M114.4,310.5c-0.7,0-1.4-0.6-1.4-1.4l0,0c0-0.7,0.6-1.4,1.3-1.4l0,0
		c0.7,0,1.4,0.6,1.4,1.3l0,0C115.6,309.9,115,310.5,114.4,310.5L114.4,310.5z"/>
	<path id="path7168" inkscape:connector-curvature="0" d="M92.7,312.4c1.8,0,3.2-1.5,3.2-3.2c0-1.8-1.5-3.2-3.2-3.2
		c-1.8,0-3.2,1.5-3.2,3.2C89.6,311,91,312.4,92.7,312.4z M92.7,310.5c-0.7,0-1.4-0.6-1.4-1.4l0,0c0-0.7,0.6-1.4,1.3-1.4l0,0
		c0.7,0,1.4,0.6,1.4,1.3l0,0C94,309.9,93.5,310.5,92.7,310.5L92.7,310.5z"/>
	<path id="path7170" inkscape:connector-curvature="0" d="M85.6,312.4c1.8,0,3.2-1.5,3.2-3.2c0-1.8-1.5-3.2-3.2-3.2
		c-1.8,0-3.2,1.5-3.2,3.2C82.4,311,83.7,312.4,85.6,312.4z M85.6,310.5c-0.7,0-1.4-0.6-1.4-1.4l0,0c0-0.7,0.6-1.4,1.3-1.4l0,0
		c0.7,0,1.4,0.6,1.4,1.3l0,0C86.9,309.9,86.2,310.5,85.6,310.5L85.6,310.5z"/>
	<path id="path7172" inkscape:connector-curvature="0" d="M78.4,312.4c1.8,0,3.2-1.5,3.2-3.2c0-1.8-1.5-3.2-3.2-3.2
		c-1.8,0-3.2,1.5-3.2,3.2C75.1,311,76.6,312.4,78.4,312.4z M78.4,310.5c-0.7,0-1.4-0.6-1.4-1.3l0,0c0-0.7,0.6-1.4,1.3-1.4l0,0
		c0.7,0,1.4,0.6,1.4,1.3l0,0C79.6,309.9,79,310.5,78.4,310.5L78.4,310.5z"/>
	<path id="path7174" inkscape:connector-curvature="0" d="M164.7,312.4c1.8,0,3.2-1.5,3.2-3.2c0-1.8-1.5-3.2-3.2-3.2
		c-1.8,0-3.2,1.5-3.2,3.2C161.6,311,162.9,312.4,164.7,312.4z M164.7,310.5c-0.7,0-1.4-0.6-1.4-1.4l0,0c0-0.7,0.6-1.4,1.3-1.4l0,0
		c0.7,0,1.4,0.6,1.4,1.3l0,0C166.2,309.9,165.6,310.5,164.7,310.5L164.7,310.5z"/>
	<path id="path7176" inkscape:connector-curvature="0" d="M150.4,337.9c1.8,0,3.2-1.5,3.2-3.2c0-1.8-1.5-3.2-3.2-3.2
		c-1.8,0-3.2,1.5-3.2,3.2C147.2,336.5,148.6,337.9,150.4,337.9z M150.4,336c-0.7,0-1.4-0.6-1.4-1.4l0,0c0-0.7,0.6-1.4,1.4-1.4l0,0
		c0.7,0,1.4,0.6,1.4,1.3l0,0C151.7,335.4,151,336,150.4,336L150.4,336z"/>
	<path id="path7178" inkscape:connector-curvature="0" d="M143.2,337.9c1.8,0,3.2-1.5,3.2-3.2c0-1.8-1.5-3.2-3.2-3.2
		c-1.8,0-3.2,1.5-3.2,3.2C139.9,336.5,141.4,337.9,143.2,337.9z M143.2,336c-0.7,0-1.4-0.6-1.4-1.4l0,0c0-0.7,0.6-1.4,1.3-1.4l0,0
		c0.7,0,1.4,0.6,1.4,1.3l0,0C144.6,335.4,143.9,336,143.2,336L143.2,336z"/>
	<path id="path7180" inkscape:connector-curvature="0" d="M135.9,337.9c1.8,0,3.2-1.5,3.2-3.2c0-1.8-1.5-3.2-3.2-3.2
		c-1.8,0-3.2,1.5-3.2,3.2C132.7,336.5,134.2,337.9,135.9,337.9z M135.9,336c-0.7,0-1.4-0.6-1.4-1.4l0,0c0-0.7,0.6-1.4,1.4-1.4l0,0
		c0.7,0,1.4,0.6,1.4,1.3l0,0C137.4,335.4,136.7,336,135.9,336L135.9,336z"/>
	<path id="path7182" inkscape:connector-curvature="0" d="M128.7,337.9c1.8,0,3.2-1.5,3.2-3.2c0-1.8-1.5-3.2-3.2-3.2
		c-1.8,0-3.2,1.5-3.2,3.2C125.6,336.5,127,337.9,128.7,337.9z M128.7,336c-0.7,0-1.4-0.6-1.4-1.3l0,0c0-0.7,0.6-1.4,1.3-1.4l0,0
		c0.7,0,1.4,0.6,1.4,1.3l0,0C130.2,335.4,129.4,336,128.7,336L128.7,336z"/>
	<path id="path7184" inkscape:connector-curvature="0" d="M121.6,337.9c1.8,0,3.2-1.5,3.2-3.2c0-1.8-1.5-3.2-3.2-3.2
		c-1.8,0-3.2,1.5-3.2,3.2C118.4,336.5,119.7,337.9,121.6,337.9z M121.6,336c-0.7,0-1.4-0.6-1.4-1.3l0,0c0-0.7,0.6-1.4,1.3-1.4l0,0
		c0.7,0,1.4,0.6,1.4,1.3l0,0C122.9,335.4,122.2,336,121.6,336L121.6,336z"/>
	<path id="path7186" inkscape:connector-curvature="0" d="M114.4,337.9c1.8,0,3.2-1.5,3.2-3.2c0-1.8-1.5-3.2-3.2-3.2
		c-1.8,0-3.2,1.5-3.2,3.2C111.1,336.5,112.6,337.9,114.4,337.9z M114.4,336c-0.7,0-1.4-0.6-1.4-1.4l0,0c0-0.7,0.6-1.4,1.3-1.4l0,0
		c0.7,0,1.4,0.6,1.4,1.3l0,0C115.6,335.4,115,336,114.4,336L114.4,336z"/>
	<path id="path7188" inkscape:connector-curvature="0" d="M107.1,337.9c1.8,0,3.2-1.5,3.2-3.2c0-1.8-1.5-3.2-3.2-3.2
		c-1.8,0-3.2,1.5-3.2,3.2C104,336.5,105.4,337.9,107.1,337.9z M107.1,336c-0.7,0-1.4-0.6-1.4-1.4l0,0c0-0.7,0.6-1.4,1.4-1.4l0,0
		c0.7,0,1.4,0.6,1.4,1.3l0,0C108.5,335.4,107.9,336,107.1,336L107.1,336z"/>
	<path id="path7190" inkscape:connector-curvature="0" d="M78.4,337.9c1.8,0,3.2-1.5,3.2-3.2c0-1.8-1.5-3.2-3.2-3.2
		c-1.8,0-3.2,1.5-3.2,3.2C75.1,336.5,76.6,337.9,78.4,337.9z M78.4,336c-0.7,0-1.4-0.6-1.4-1.3l0,0c0-0.7,0.6-1.4,1.3-1.4l0,0
		c0.7,0,1.4,0.6,1.4,1.3l0,0C79.6,335.4,79,336,78.4,336L78.4,336z"/>
	<path id="path7192" inkscape:connector-curvature="0" d="M71.1,337.9c1.8,0,3.2-1.5,3.2-3.2c0-1.8-1.5-3.2-3.2-3.2
		c-1.8,0-3.2,1.5-3.2,3.2C68,336.5,69.4,337.9,71.1,337.9z M71.1,336c-0.7,0-1.4-0.6-1.4-1.4l0,0c0-0.7,0.6-1.4,1.4-1.4l0,0
		c0.7,0,1.4,0.6,1.4,1.3l0,0C72.5,335.4,71.9,336,71.1,336L71.1,336z"/>
	<path id="path7246" sodipodi:nodetypes="ccccc" inkscape:connector-curvature="0" class="st5" d="M249.7,310.4l-31.4-0.3l-5.2,5
		l-42.4-0.2l-3.9-4.4"/>
	<path id="path7248" sodipodi:nodetypes="ccccccc" inkscape:connector-curvature="0" class="st5" d="M162.7,311.1l-4.3,3.9h-51.5
		l-11.1-11.1H75.5l-3.7,3.4v25"/>
	<path id="path7250" sodipodi:nodetypes="cccccc" inkscape:connector-curvature="0" class="st5" d="M93.7,311.3l8.3,7.2l113.5-0.1
		l4.4-4.9l11.3,0.2l18.7,21.5"/>
	<path id="path7252" sodipodi:nodetypes="cccc" inkscape:connector-curvature="0" class="st5" d="M86.9,311.1L98.2,322l128.3-0.1
		l0.5-0.7"/>
	<path id="path7254" sodipodi:nodetypes="cccc" inkscape:connector-curvature="0" class="st5" d="M79.6,311.7l14.7,13.8h135.4
		l5.8,6.9"/>
	<path id="path7256" sodipodi:nodetypes="ccccc" inkscape:connector-curvature="0" d="M79.9,329.3l-5.2-0.1l-0.1-16.6l12,10.4
		L79.9,329.3z"/>
	<g id="g8344" transform="translate(-144.85714,-556)">
		<circle id="circle7165" cx="71.6" cy="663.4" r="3.2"/>
		<path id="path7167" sodipodi:nodetypes="cc" inkscape:connector-curvature="0" class="st6" d="M51,657l20.7,6.8"/>
		<circle id="circle7169" cx="133.9" cy="657.8" r="3.2"/>
		<path id="path7171" sodipodi:nodetypes="ccc" inkscape:connector-curvature="0" class="st6" d="M50.6,664.1l20.5,6.1l62.6-11.9"/>
		<circle id="circle7173" cx="200.4" cy="663.4" r="3.2"/>
		<circle id="circle7175" cx="272.8" cy="674.8" r="3.2"/>
		<circle id="circle7177" cx="336.6" cy="674.8" r="3.2"/>
		<path id="path7179" sodipodi:nodetypes="cccc" inkscape:connector-curvature="0" class="st6" d="M51,670.7
			c8.7,1.4,11.9,2.8,20.2,3.8l60.1-11.4l70,0.5"/>
		<path id="path7181" sodipodi:nodetypes="cccccc" inkscape:connector-curvature="0" class="st6" d="M51.1,678.1
			c10.3-0.2,7.4,0.1,20,0.6l60.1-11.4l61.7,0.5l2.5,1.6l75.9,5.5"/>
		<path id="path7183" sodipodi:nodetypes="cccccccc" inkscape:connector-curvature="0" class="st6" d="M50.8,685
			c5.2-5.9,13.2-0.8,24.1-2.6l56.3-10.9l60.4,0.7l3.1,1.6l70.9,4.9l3.7,3.1l67.7-6.3"/>
		<rect id="rect7199" x="68.2" y="660.2" width="6.5" height="6.5"/>
		<rect id="rect7201" x="130.6" y="654.5" width="6.5" height="6.5"/>
		<rect id="rect7203" x="197.2" y="660.2" width="6.5" height="6.5"/>
		<rect id="rect7205" x="269.7" y="671.5" width="6.5" height="6.5"/>
		<rect id="rect7207" x="333.3" y="671.5" width="6.5" height="6.5"/>
		<circle id="circle7209" cx="71.6" cy="663.4" r="3.2"/>
		<path id="path7249" inkscape:connector-curvature="0" d="M51.6,656.4c0-1.8-1.5-3.2-3.2-3.2c-1.8,0-3.2,1.5-3.2,3.2
			c0,1.8,1.5,3.2,3.2,3.2C50.1,659.7,51.6,658.2,51.6,656.4z M49.8,656.4c0,0.7-0.6,1.4-1.4,1.4l0,0c-0.7,0-1.4-0.6-1.4-1.4l0,0
			c0-0.7,0.6-1.4,1.3-1.4l0,0C49.1,655.1,49.8,655.7,49.8,656.4L49.8,656.4z"/>
		<path id="path7251" inkscape:connector-curvature="0" d="M51.6,663.6c0-1.8-1.5-3.2-3.2-3.2c-1.8,0-3.2,1.5-3.2,3.2
			c0,1.8,1.5,3.2,3.2,3.2C50.1,666.9,51.6,665.4,51.6,663.6z M49.8,663.6c0,0.7-0.6,1.4-1.3,1.4l0,0c-0.7,0-1.4-0.6-1.4-1.4l0,0
			c0-0.7,0.6-1.4,1.3-1.4l0,0C49.1,662.3,49.8,662.9,49.8,663.6L49.8,663.6z"/>
		<path id="path7253" inkscape:connector-curvature="0" d="M51.6,670.8c0-1.8-1.5-3.2-3.2-3.2c-1.8,0-3.2,1.5-3.2,3.2
			c0,1.8,1.5,3.2,3.2,3.2C50.1,674.1,51.6,672.6,51.6,670.8z M49.8,670.8c0,0.7-0.6,1.4-1.3,1.4l0,0c-0.7,0-1.4-0.6-1.4-1.4l0,0
			c0-0.7,0.6-1.4,1.3-1.4l0,0C49.1,669.5,49.8,670.1,49.8,670.8L49.8,670.8z"/>
		<path id="path7255" inkscape:connector-curvature="0" d="M51.6,678c0-1.8-1.5-3.2-3.2-3.2c-1.8,0-3.2,1.5-3.2,3.2
			c0,1.8,1.5,3.2,3.2,3.2C50.1,681.3,51.6,679.8,51.6,678z M49.8,678c0,0.7-0.6,1.4-1.4,1.4l0,0c-0.7,0-1.4-0.6-1.4-1.3l0,0
			c0-0.7,0.6-1.4,1.3-1.4l0,0C49.1,676.7,49.8,677.3,49.8,678L49.8,678z"/>
		<path id="path7257" inkscape:connector-curvature="0" d="M51.6,685.2c0-1.8-1.5-3.2-3.2-3.2c-1.8,0-3.2,1.5-3.2,3.2
			c0,1.8,1.5,3.2,3.2,3.2C50.1,688.5,51.6,687,51.6,685.2z M49.8,685.2c0,0.7-0.6,1.4-1.4,1.4l0,0c-0.7,0-1.4-0.6-1.4-1.3l0,0
			c0-0.7,0.6-1.4,1.3-1.4l0,0C49.1,683.9,49.8,684.5,49.8,685.2L49.8,685.2z"/>
	</g>
	<g id="g8367" transform="matrix(0,1,-1,0,1268.6691,147.2811)">
		
			<rect id="rect7185" x="118.9" y="1013" transform="matrix(2.535182e-06 1 -1 2.535182e-06 1151.1958 876.8433)" width="36.5" height="2.1"/>
		
			<rect id="rect7187" x="-100.5" y="1161.7" transform="matrix(2.535182e-06 1 -1 2.535182e-06 1227.5284 1097.8729)" width="330.6" height="2.1"/>
		
			<rect id="rect7189" x="105.7" y="954" transform="matrix(2.535182e-06 1 -1 2.535182e-06 1097.0206 883.4719)" width="2.1" height="72.5"/>
		
			<rect id="rect7191" x="117.4" y="1014" transform="matrix(2.535182e-06 1 -1 2.535182e-06 1157.0765 873.0143)" width="49.3" height="2.1"/>
		
			<rect id="rect7193" x="137.1" y="1034.8" transform="matrix(2.535182e-06 1 -1 2.535182e-06 1176.8452 900.6216)" width="2.1" height="7.8"/>
		
			<rect id="rect7195" x="99.4" y="960.2" transform="matrix(2.535182e-06 1 -1 2.535182e-06 1097.2582 896.4318)" width="2.1" height="73.2"/>
		<circle id="circle7197" cx="70.4" cy="990.2" r="3.2"/>
		
			<rect id="rect7211" x="67.3" y="987" transform="matrix(2.535182e-06 1 -1 2.535182e-06 1060.8204 919.7733)" width="6.5" height="6.5"/>
		<path id="path7244" inkscape:connector-curvature="0" d="M135.2,1031.8c0-1.8-1.5-3.2-3.2-3.2c-1.8,0-3.2,1.5-3.2,3.2
			c0,1.8,1.5,3.2,3.2,3.2C133.8,1035,135.2,1033.4,135.2,1031.8z M133.3,1031.8c0,0.7-0.6,1.4-1.4,1.4l0,0c-0.7,0-1.4-0.6-1.4-1.3
			l0,0c0-0.7,0.6-1.4,1.3-1.4l0,0C132.7,1030.4,133.3,1031,133.3,1031.8L133.3,1031.8z"/>
		<path id="path7247" inkscape:connector-curvature="0" d="M135.2,1039c0-1.8-1.5-3.2-3.2-3.2c-1.8,0-3.2,1.5-3.2,3.2
			c0,1.8,1.5,3.2,3.2,3.2C133.8,1042.1,135.2,1040.6,135.2,1039z M133.3,1039c0,0.7-0.6,1.4-1.4,1.4l0,0c-0.7,0-1.4-0.6-1.4-1.3l0,0
			c0-0.7,0.6-1.4,1.3-1.4l0,0C132.7,1037.5,133.3,1038.1,133.3,1039L133.3,1039z"/>
		
			<rect id="rect7462" x="135.1" y="1029.6" transform="matrix(2.535182e-06 1 -1 2.535182e-06 1167.7449 895.3715)" width="2.1" height="4"/>
	</g>
	<g id="flowRoot8493">
	</g>
	<g id="g13056" transform="translate(-43.932926,-375.06967)">
		<path id="path17660" sodipodi:nodetypes="cc" inkscape:connector-curvature="0" class="st7" d="M1.1,599.5l74.9,0.1"/>
		<path id="path17652" sodipodi:nodetypes="cc" inkscape:connector-curvature="0" class="st7" d="M76.6,599.4l64.7-2.7"/>
		<path id="path17644" sodipodi:nodetypes="cc" inkscape:connector-curvature="0" class="st7" d="M141.9,596.5
			c63.6,1.5,0.3-4,64.7-2.7"/>
		<path id="path17628" sodipodi:nodetypes="cc" inkscape:connector-curvature="0" class="st7" d="M265.7,596.5l-59-2.7"/>
		<rect id="rect17620" x="264.8" y="596.7" width="2.1" height="29.2"/>
		<rect id="rect17614" x="307.4" y="599.5" width="2.1" height="26.4"/>
		<rect id="rect17618" x="265.6" y="623.8" width="43.8" height="2.1"/>
		<g id="g8485" transform="translate(95.763991,6.0609152)">
			<rect id="rect8487" x="-50.8" y="587" width="7.7" height="11.3"/>
			<g class="st8">
				<path class="st2" d="M-46.8,590.7c1.1,0,1.9,1,1.9,2.2l0,0c0,1.2-0.7,2.2-1.9,2.2c-1.1,0-1.9-1-1.9-2.2l0,0
					C-48.7,591.7-47.9,590.7-46.8,590.7z M-46.8,591.6c-0.6,0-0.9,0.6-0.9,1.3l0,0c0,0.8,0.4,1.3,0.9,1.3s0.9-0.6,0.9-1.3l0,0
					C-45.9,592.1-46.2,591.6-46.8,591.6z"/>
			</g>
		</g>
		<g id="g12675" transform="translate(498.91572,-15.262389)">
			<circle id="circle12677" class="st2" cx="-190.4" cy="614.7" r="2.4"/>
			<path id="path12679" inkscape:connector-curvature="0" d="M-186.1,614.7c0-2.3-1.9-4.3-4.3-4.3c-2.3,0-4.3,1.9-4.3,4.3
				c0,2.3,1.9,4.3,4.3,4.3S-186.1,617.1-186.1,614.7z M-188.6,614.7c0,1-0.8,1.8-1.8,1.8l0,0c-1,0-1.8-0.8-1.8-1.8l0,0
				c0-1,0.8-1.8,1.8-1.8l0,0C-189.4,612.9-188.6,613.7-188.6,614.7L-188.6,614.7z"/>
		</g>
		<g id="g12681" transform="translate(445.76609,-18.805699)">
			<circle id="circle12683" class="st2" cx="-179.8" cy="615.4" r="2.4"/>
			<path id="path12685" inkscape:connector-curvature="0" d="M-175.6,615.4c0-2.3-1.9-4.3-4.3-4.3c-2.3,0-4.3,1.9-4.3,4.3
				c0,2.3,1.9,4.3,4.3,4.3C-177.4,619.7-175.6,617.8-175.6,615.4z M-178.1,615.4c0,1-0.8,1.8-1.8,1.8l0,0c-1,0-1.8-0.8-1.8-1.8l0,0
				c0-1,0.8-1.8,1.8-1.8l0,0C-178.8,613.6-178.1,614.4-178.1,615.4L-178.1,615.4z"/>
		</g>
		<g id="g12687" transform="translate(371.35665,-22.348999)">
			<circle id="circle12689" class="st2" cx="-165" cy="616.1" r="2.4"/>
			<path id="path12691" inkscape:connector-curvature="0" d="M-160.6,616.1c0-2.3-1.9-4.3-4.3-4.3c-2.3,0-4.3,1.9-4.3,4.3
				c0,2.3,1.9,4.3,4.3,4.3S-160.6,618.5-160.6,616.1z M-163.1,616.1c0,1-0.8,1.8-1.8,1.8l0,0c-1,0-1.8-0.8-1.8-1.8l0,0
				c0-1,0.8-1.8,1.8-1.8l0,0C-164,614.4-163.1,615.1-163.1,616.1L-163.1,616.1z"/>
		</g>
		<g id="g12693" transform="translate(289.8606,-18.805699)">
			<circle id="circle12695" class="st2" cx="-148.6" cy="615.4" r="2.4"/>
			<path id="path12697" inkscape:connector-curvature="0" d="M-144.3,615.4c0-2.3-1.9-4.3-4.3-4.3c-2.3,0-4.3,1.9-4.3,4.3
				c0,2.3,1.9,4.3,4.3,4.3C-146.3,619.7-144.3,617.8-144.3,615.4z M-146.8,615.4c0,1-0.8,1.8-1.8,1.8l0,0c-1,0-1.8-0.8-1.8-1.8l0,0
				c0-1,0.8-1.8,1.8-1.8l0,0C-147.6,613.6-146.8,614.4-146.8,615.4L-146.8,615.4z"/>
		</g>
		<g id="g12699" transform="translate(208.36453,-15.262389)">
			<circle id="circle12701" class="st2" cx="-132.3" cy="614.7" r="2.4"/>
			<path id="path12703" inkscape:connector-curvature="0" d="M-128.1,614.7c0-2.3-1.9-4.3-4.3-4.3c-2.3,0-4.3,1.9-4.3,4.3
				c0,2.3,1.9,4.3,4.3,4.3C-130,619-128.1,617.1-128.1,614.7z M-130.6,614.7c0,1-0.8,1.8-1.8,1.8l0,0c-1,0-1.8-0.8-1.8-1.8l0,0
				c0-1,0.8-1.8,1.8-1.8l0,0C-131.3,612.9-130.6,613.7-130.6,614.7L-130.6,614.7z"/>
		</g>
		<g id="g12705" transform="translate(137.49839,-15.262389)">
			<circle id="circle12707" class="st2" cx="-136.4" cy="614.7" r="2.4"/>
			<path id="path12709" inkscape:connector-curvature="0" d="M-132.2,614.7c0-2.3-1.9-4.3-4.3-4.3c-2.3,0-4.3,1.9-4.3,4.3
				c0,2.3,1.9,4.3,4.3,4.3S-132.2,617.1-132.2,614.7z M-134.6,614.7c0,1-0.8,1.8-1.8,1.8l0,0c-1,0-1.8-0.8-1.8-1.8l0,0
				c0-1,0.8-1.8,1.8-1.8l0,0C-135.4,612.9-134.6,613.7-134.6,614.7L-134.6,614.7z"/>
		</g>
	</g>
	<g id="g12999" transform="translate(-97.491315,-372.54429)">
		<path id="path17844" sodipodi:nodetypes="cc" inkscape:connector-curvature="0" class="st9" d="M305.7,607.5
			c-9.7-3.3-0.3-3.6-42-2.3"/>
		<path id="path17790" sodipodi:nodetypes="cc" inkscape:connector-curvature="0" class="st9" d="M-2.7,621.7h75.6"/>
		<path id="path17792" sodipodi:nodetypes="cc" inkscape:connector-curvature="0" class="st9" d="M73.1,621.4
			c34.3,1.2,0.7-12.5,65.3-11"/>
		<path id="path17794" sodipodi:nodetypes="cc" inkscape:connector-curvature="0" class="st9" d="M139.2,609.8
			c30.4,1.1-0.3-8.6,64.4-7.9"/>
		<path id="path17796" sodipodi:nodetypes="cc" inkscape:connector-curvature="0" class="st9" d="M262.8,604.6l-59-2.7"/>
		<ellipse id="path8222" class="st10" cx="-2.7" cy="621.7" rx="0.4" ry="0.1"/>
		<g id="g8551" transform="translate(74.642857,-15.714286)">
			<rect id="rect8516" x="-35.9" y="632.5" width="7.7" height="11.3"/>
			<g class="st8">
				<path class="st2" d="M-31.9,640.2c-0.9,0-1.5-0.6-1.5-1.4l0,0c0-0.8,0.6-1.1,1.1-1.2l-0.8-0.8c-0.2-0.2-0.3-0.3-0.3-0.5
					c0-0.3,0.2-0.4,0.5-0.4h2c0.2,0,0.4,0.2,0.4,0.4s-0.2,0.4-0.4,0.4h-1.3l0.8,0.8c0.1,0.1,0.2,0.3,0.2,0.4c0,0.2-0.2,0.4-0.4,0.4
					h-0.1c-0.5,0-0.8,0.2-0.8,0.5l0,0c0,0.3,0.2,0.5,0.6,0.5c0.3,0,0.6-0.1,0.8-0.3c0.1-0.1,0.2-0.1,0.3-0.1c0.2,0,0.4,0.2,0.4,0.4
					c0,0.1-0.1,0.3-0.2,0.3C-30.8,640-31.3,640.2-31.9,640.2z"/>
			</g>
		</g>
		<g id="g12711" transform="translate(481.82944,-4.5136492)">
			<circle id="circle12713" class="st2" cx="-176.3" cy="612.1" r="2.4"/>
			<path id="path12715" inkscape:connector-curvature="0" d="M-172.1,612.1c0-2.3-1.9-4.3-4.3-4.3c-2.3,0-4.3,1.9-4.3,4.3
				c0,2.3,1.9,4.3,4.3,4.3C-174,616.3-172.1,614.4-172.1,612.1z M-174.6,612.1c0,1-0.8,1.8-1.8,1.8l0,0c-1,0-1.8-0.8-1.8-1.8l0,0
				c0-1,0.8-1.8,1.8-1.8l0,0C-175.3,610.3-174.6,611.1-174.6,612.1L-174.6,612.1z"/>
		</g>
		<g id="g12717" transform="translate(428.67982,-8.0569592)">
			<circle id="circle12719" class="st2" cx="-165.6" cy="612.8" r="2.4"/>
			<path id="path12721" inkscape:connector-curvature="0" d="M-161.4,612.8c0-2.3-1.9-4.3-4.3-4.3c-2.3,0-4.3,1.9-4.3,4.3
				c0,2.3,1.9,4.3,4.3,4.3C-163.3,617-161.4,615.1-161.4,612.8z M-164,612.8c0,1-0.8,1.8-1.8,1.8l0,0c-1,0-1.8-0.8-1.8-1.8l0,0
				c0-1,0.8-1.8,1.8-1.8l0,0C-164.8,611-164,611.8-164,612.8L-164,612.8z"/>
		</g>
		<g id="g12723" transform="translate(354.27038,-11.600259)">
			<circle id="circle12725" class="st2" cx="-150.8" cy="613.5" r="2.4"/>
			<path id="path12727" inkscape:connector-curvature="0" d="M-146.6,613.5c0-2.3-1.9-4.3-4.3-4.3c-2.3,0-4.3,1.9-4.3,4.3
				c0,2.3,1.9,4.3,4.3,4.3C-148.4,617.7-146.6,615.8-146.6,613.5z M-149.1,613.5c0,1-0.8,1.8-1.8,1.8l0,0c-1,0-1.8-0.8-1.8-1.8l0,0
				c0-1,0.8-1.8,1.8-1.8l0,0C-149.8,611.7-149.1,612.5-149.1,613.5L-149.1,613.5z"/>
		</g>
		<g id="g12729" transform="translate(272.77433,-0.97034916)">
			<circle id="circle12731" class="st2" cx="-134.4" cy="611.3" r="2.4"/>
			<path id="path12733" inkscape:connector-curvature="0" d="M-130.3,611.3c0-2.3-1.9-4.3-4.3-4.3c-2.3,0-4.3,1.9-4.3,4.3
				c0,2.3,1.9,4.3,4.3,4.3S-130.3,613.7-130.3,611.3z M-132.8,611.3c0,1-0.8,1.8-1.8,1.8l0,0c-1,0-1.8-0.8-1.8-1.8l0,0
				c0-1,0.8-1.8,1.8-1.8l0,0C-133.6,609.6-132.8,610.4-132.8,611.3L-132.8,611.3z"/>
		</g>
		<g id="g12735" transform="translate(191.27826,13.202881)">
			<circle id="circle12737" class="st2" cx="-118.1" cy="608.5" r="2.4"/>
			<path id="path12739" inkscape:connector-curvature="0" d="M-114,608.5c0-2.3-1.9-4.3-4.3-4.3c-2.3,0-4.3,1.9-4.3,4.3
				c0,2.3,1.9,4.3,4.3,4.3S-114,610.9-114,608.5z M-116.4,608.5c0,1-0.8,1.8-1.8,1.8l0,0c-1,0-1.8-0.8-1.8-1.8l0,0
				c0-1,0.8-1.8,1.8-1.8l0,0C-117.3,606.7-116.4,607.5-116.4,608.5L-116.4,608.5z"/>
		</g>
		<g id="g12741" transform="translate(120.41212,13.202881)">
			<circle id="circle12743" class="st2" cx="-123.1" cy="608.5" r="2.4"/>
			<path id="path12745" inkscape:connector-curvature="0" d="M-118.8,608.5c0-2.3-1.9-4.3-4.3-4.3c-2.3,0-4.3,1.9-4.3,4.3
				c0,2.3,1.9,4.3,4.3,4.3S-118.8,610.9-118.8,608.5z M-121.3,608.5c0,1-0.8,1.8-1.8,1.8l0,0c-1,0-1.8-0.8-1.8-1.8l0,0
				c0-1,0.8-1.8,1.8-1.8l0,0C-122.1,606.7-121.3,607.5-121.3,608.5L-121.3,608.5z"/>
		</g>
	</g>
	<g id="g12906" transform="translate(2.33104,-437.63821)">
		<path id="path17736" sodipodi:nodetypes="cc" inkscape:connector-curvature="0" class="st9" d="M-84.8,710.8h73.3"/>
		<path id="path17738" sodipodi:nodetypes="cc" inkscape:connector-curvature="0" class="st9" d="M-10.4,710.8
			c33.8,0.6,1.2-8.8,64.4-8.4"/>
		<path id="path17740" sodipodi:nodetypes="cc" inkscape:connector-curvature="0" class="st9" d="M54,702.4
			c31.3,0.6,0.4-9.4,65.1-8.6"/>
		<path id="path17742" sodipodi:nodetypes="cc" inkscape:connector-curvature="0" class="st9" d="M178.4,696.6l-59-2.7"/>
		<rect id="rect17744" x="177.6" y="697.6" width="2.1" height="39.7"/>
		<rect id="rect17746" x="220" y="700.9" width="2.1" height="36.5"/>
		<rect id="rect17760" x="178.2" y="735.2" width="43.8" height="2.1"/>
		<g id="g8546" transform="translate(-5.555839,95.459415)">
			<rect id="rect8510" x="-39.7" y="608.8" width="7.7" height="11.3"/>
			<g class="st8">
				<path class="st2" d="M-34.2,616.1c0,0.3-0.2,0.4-0.5,0.4H-37c-0.2,0-0.4-0.2-0.4-0.4s0.2-0.4,0.4-0.4h1.5l-0.7-0.5
					c-0.7-0.6-1.1-0.9-1.1-1.6l0,0c0-0.8,0.6-1.3,1.4-1.3c0.6,0,1,0.2,1.4,0.6c0.1,0.1,0.1,0.2,0.1,0.3c0,0.2-0.2,0.4-0.4,0.4
					c-0.1,0-0.3-0.1-0.3-0.1c-0.2-0.3-0.4-0.4-0.7-0.4c-0.3,0-0.6,0.2-0.6,0.5s0.2,0.6,0.7,1l1.2,1
					C-34.3,615.7-34.2,615.9-34.2,616.1z"/>
			</g>
		</g>
		<g id="g12747" transform="translate(401.27866,94.115811)">
			<circle id="circle12749" class="st2" cx="-180.1" cy="605.3" r="2.4"/>
			<path id="path12751" inkscape:connector-curvature="0" d="M-176,605.3c0-2.3-1.9-4.3-4.3-4.3c-2.3,0-4.3,1.9-4.3,4.3
				c0,2.3,1.9,4.3,4.3,4.3S-176,607.7-176,605.3z M-178.3,605.3c0,1-0.8,1.8-1.8,1.8l0,0c-1,0-1.8-0.8-1.8-1.8l0,0
				c0-1,0.8-1.8,1.8-1.8l0,0C-179.1,603.6-178.3,604.4-178.3,605.3L-178.3,605.3z"/>
		</g>
		<g id="g12753" transform="translate(348.12904,90.572501)">
			<circle id="circle12755" class="st2" cx="-169.6" cy="606.1" r="2.4"/>
			<path id="path12757" inkscape:connector-curvature="0" d="M-165.3,606.1c0-2.3-1.9-4.3-4.3-4.3c-2.3,0-4.3,1.9-4.3,4.3
				c0,2.3,1.9,4.3,4.3,4.3C-167.1,610.3-165.3,608.4-165.3,606.1z M-167.8,606.1c0,1-0.8,1.8-1.8,1.8l0,0c-1,0-1.8-0.8-1.8-1.8l0,0
				c0-1,0.8-1.8,1.8-1.8l0,0C-168.6,604.3-167.8,605.1-167.8,606.1L-167.8,606.1z"/>
		</g>
		<g id="g12759" transform="translate(273.7196,87.029201)">
			<circle id="circle12761" class="st2" cx="-154.6" cy="606.8" r="2.4"/>
			<path id="path12763" inkscape:connector-curvature="0" d="M-150.4,606.8c0-2.3-1.9-4.3-4.3-4.3c-2.3,0-4.3,1.9-4.3,4.3
				c0,2.3,1.9,4.3,4.3,4.3C-152.3,611-150.4,609.1-150.4,606.8z M-152.8,606.8c0,1-0.8,1.8-1.8,1.8l0,0c-1,0-1.8-0.8-1.8-1.8l0,0
				c0-1,0.8-1.8,1.8-1.8l0,0C-153.6,605-152.8,605.8-152.8,606.8L-152.8,606.8z"/>
		</g>
		<g id="g12765" transform="translate(192.22355,97.659111)">
			<circle id="circle12767" class="st2" cx="-138.3" cy="604.6" r="2.4"/>
			<path id="path12769" inkscape:connector-curvature="0" d="M-134.1,604.6c0-2.3-1.9-4.3-4.3-4.3c-2.3,0-4.3,1.9-4.3,4.3
				c0,2.3,1.9,4.3,4.3,4.3S-134.1,607-134.1,604.6z M-136.6,604.6c0,1-0.8,1.8-1.8,1.8l0,0c-1,0-1.8-0.8-1.8-1.8l0,0
				c0-1,0.8-1.8,1.8-1.8l0,0C-137.3,602.9-136.6,603.7-136.6,604.6L-136.6,604.6z"/>
		</g>
		<g id="g12771" transform="translate(110.72748,108.28903)">
			<circle id="circle12773" class="st2" cx="-122.1" cy="602.5" r="2.4"/>
			<path id="path12775" inkscape:connector-curvature="0" d="M-117.8,602.5c0-2.3-1.9-4.3-4.3-4.3c-2.3,0-4.3,1.9-4.3,4.3
				c0,2.3,1.9,4.3,4.3,4.3S-117.8,604.9-117.8,602.5z M-120.3,602.5c0,1-0.8,1.8-1.8,1.8l0,0c-1,0-1.8-0.8-1.8-1.8l0,0
				c0-1,0.8-1.8,1.8-1.8l0,0C-121.1,600.7-120.3,601.5-120.3,602.5L-120.3,602.5z"/>
		</g>
		<g id="g12777" transform="translate(39.861336,108.28903)">
			<path id="path12781" inkscape:connector-curvature="0" d="M-123.3,602.5c0-2.3-1.9-4.3-4.3-4.3c-2.3,0-4.3,1.9-4.3,4.3
				c0,2.3,1.9,4.3,4.3,4.3S-123.3,604.9-123.3,602.5z M-125.8,602.5c0,1-0.8,1.8-1.8,1.8l0,0c-1,0-1.8-0.8-1.8-1.8l0,0
				c0-1,0.8-1.8,1.8-1.8l0,0C-126.6,600.7-125.8,601.5-125.8,602.5L-125.8,602.5z"/>
		</g>
	</g>
	<g id="g12937" transform="translate(-86.071428,-287.85714)">
		<path id="path8208" inkscape:connector-curvature="0" d="M305.6,541.8c0-2.3-1.9-4.3-4.3-4.3c-2.3,0-4.3,1.9-4.3,4.3
			c0,2.3,1.9,4.3,4.3,4.3C303.7,546,305.6,544.1,305.6,541.8z M303,541.8c0,1-0.8,1.8-1.8,1.8l0,0c-1,0-1.8-0.8-1.8-1.8l0,0
			c0-1,0.8-1.8,1.8-1.8l0,0C302.3,540,303,540.8,303,541.8L303,541.8z"/>
		<path id="path8210" inkscape:connector-curvature="0" d="M262.9,538.9c0-2.3-1.9-4.3-4.3-4.3c-2.3,0-4.3,1.9-4.3,4.3
			c0,2.3,1.9,4.3,4.3,4.3S262.9,541.3,262.9,538.9z M260.6,538.9c0,1-0.8,1.8-1.8,1.8l0,0c-1,0-1.8-0.8-1.8-1.8l0,0
			c0-1,0.8-1.8,1.8-1.8l0,0C259.7,537.2,260.6,538,260.6,538.9L260.6,538.9z"/>
		<path id="path8212" inkscape:connector-curvature="0" d="M203.4,536.1c0-2.3-1.9-4.3-4.3-4.3c-2.3,0-4.3,1.9-4.3,4.3
			c0,2.3,1.9,4.3,4.3,4.3S203.4,538.5,203.4,536.1z M200.9,536.1c0,1-0.8,1.8-1.8,1.8l0,0c-1,0-1.8-0.8-1.8-1.8l0,0
			c0-1,0.8-1.8,1.8-1.8l0,0C200.2,534.3,200.9,535.1,200.9,536.1L200.9,536.1z"/>
		<path id="path8214" inkscape:connector-curvature="0" d="M138.2,541.8c0-2.3-1.9-4.3-4.3-4.3c-2.3,0-4.3,1.9-4.3,4.3
			c0,2.3,1.9,4.3,4.3,4.3C136.4,546,138.2,544.1,138.2,541.8z M135.7,541.8c0,1-0.8,1.8-1.8,1.8l0,0c-1,0-1.8-0.8-1.8-1.8l0,0
			c0-1,0.8-1.8,1.8-1.8l0,0C134.9,540,135.7,540.8,135.7,541.8L135.7,541.8z"/>
		<path id="path8216" inkscape:connector-curvature="0" d="M73,550.3c0-2.3-1.9-4.3-4.3-4.3c-2.3,0-4.3,1.9-4.3,4.3
			c0,2.3,1.9,4.3,4.3,4.3C71.1,554.5,73,552.6,73,550.3z M70.6,550.3c0,1-0.8,1.8-1.8,1.8l0,0c-1,0-1.8-0.8-1.8-1.8l0,0
			c0-1,0.8-1.8,1.8-1.8l0,0C69.7,548.5,70.6,549.3,70.6,550.3L70.6,550.3z"/>
		<path id="path8218" inkscape:connector-curvature="0" d="M-3.7,550.3c0-2.3-1.9-4.3-4.3-4.3c-2.3,0-4.3,1.9-4.3,4.3
			c0,2.3,1.9,4.3,4.3,4.3C-5.6,554.5-3.7,552.6-3.7,550.3z M-6.1,550.3c0,1-0.8,1.8-1.8,1.8l0,0c-1,0-1.8-0.8-1.8-1.8l0,0
			c0-1,0.8-1.8,1.8-1.8l0,0C-6.9,548.5-6.1,549.3-6.1,550.3L-6.1,550.3z"/>
		<path id="path17686" sodipodi:nodetypes="cc" inkscape:connector-curvature="0" class="st9" d="M-7.9,550.3h76.7"/>
		<path id="path17688" sodipodi:nodetypes="cc" inkscape:connector-curvature="0" class="st9" d="M69.5,549.4
			c31.9,0.6,1.4-8.5,64.7-7.6"/>
		<path id="path17690" sodipodi:nodetypes="cc" inkscape:connector-curvature="0" class="st9" d="M134.4,541.1
			c33.9,1.2,0.2-5.7,64.9-5"/>
		<path id="path17692" sodipodi:nodetypes="cc" inkscape:connector-curvature="0" class="st9" d="M258.6,538.9l-59-2.7"/>
		<rect id="rect17694" x="257.7" y="530.8" width="2.1" height="9"/>
		<rect id="rect17696" x="300.2" y="530.8" width="2.1" height="10.1"/>
		<rect id="rect17710" x="258.3" y="530.8" width="43.8" height="2.1"/>
		<g id="g8444" transform="translate(479.36243,-65.54666)">
			<circle id="circle8446" class="st2" cx="-178.1" cy="607.3" r="2.4"/>
			<path id="path8448" inkscape:connector-curvature="0" d="M-173.8,607.3c0-2.3-1.9-4.3-4.3-4.3c-2.3,0-4.3,1.9-4.3,4.3
				c0,2.3,1.9,4.3,4.3,4.3S-173.8,609.7-173.8,607.3z M-176.3,607.3c0,1-0.8,1.8-1.8,1.8l0,0c-1,0-1.8-0.8-1.8-1.8l0,0
				c0-1,0.8-1.8,1.8-1.8l0,0C-177.1,605.6-176.3,606.3-176.3,607.3L-176.3,607.3z"/>
		</g>
		<g id="g8450" transform="translate(426.21281,-69.08997)">
			<circle id="circle8452" class="st2" cx="-167.4" cy="608" r="2.4"/>
			<path id="path8454" inkscape:connector-curvature="0" d="M-163.3,608c0-2.3-1.9-4.3-4.3-4.3c-2.3,0-4.3,1.9-4.3,4.3
				c0,2.3,1.9,4.3,4.3,4.3S-163.3,610.4-163.3,608z M-165.6,608c0,1-0.8,1.8-1.8,1.8l0,0c-1,0-1.8-0.8-1.8-1.8l0,0
				c0-1,0.8-1.8,1.8-1.8l0,0C-166.4,606.3-165.6,607.1-165.6,608L-165.6,608z"/>
		</g>
		<g id="g8456" transform="translate(351.80337,-72.63327)">
			<circle id="circle8458" class="st2" cx="-152.6" cy="608.7" r="2.4"/>
			<path id="path8460" inkscape:connector-curvature="0" d="M-148.3,608.7c0-2.3-1.9-4.3-4.3-4.3c-2.3,0-4.3,1.9-4.3,4.3
				c0,2.3,1.9,4.3,4.3,4.3S-148.3,611.1-148.3,608.7z M-150.8,608.7c0,1-0.8,1.8-1.8,1.8l0,0c-1,0-1.8-0.8-1.8-1.8l0,0
				c0-1,0.8-1.8,1.8-1.8l0,0C-151.6,607-150.8,607.8-150.8,608.7L-150.8,608.7z"/>
		</g>
		<g id="g8462" transform="translate(270.30732,-65.54667)">
			<circle id="circle8464" class="st2" cx="-136.3" cy="607.3" r="2.4"/>
			<path id="path8466" inkscape:connector-curvature="0" d="M-132.1,607.3c0-2.3-1.9-4.3-4.3-4.3c-2.3,0-4.3,1.9-4.3,4.3
				c0,2.3,1.9,4.3,4.3,4.3S-132.1,609.7-132.1,607.3z M-134.6,607.3c0,1-0.8,1.8-1.8,1.8l0,0c-1,0-1.8-0.8-1.8-1.8l0,0
				c0-1,0.8-1.8,1.8-1.8l0,0C-135.3,605.6-134.6,606.3-134.6,607.3L-134.6,607.3z"/>
		</g>
		<g id="g8474" transform="translate(117.94511,-54.91674)">
			<circle id="circle8476" class="st2" cx="-125.9" cy="605.2" r="2.4"/>
			<path id="path8478" inkscape:connector-curvature="0" d="M-121.6,605.2c0-2.3-1.9-4.3-4.3-4.3c-2.3,0-4.3,1.9-4.3,4.3
				c0,2.3,1.9,4.3,4.3,4.3C-123.5,609.4-121.6,607.5-121.6,605.2z M-124.1,605.2c0,1-0.8,1.8-1.8,1.8l0,0c-1,0-1.8-0.8-1.8-1.8l0,0
				c0-1,0.8-1.8,1.8-1.8l0,0C-124.9,603.4-124.1,604.2-124.1,605.2L-124.1,605.2z"/>
		</g>
		<g id="g8540" transform="translate(69.464285,-49.464285)">
			<rect id="rect8504" x="-37" y="595.1" width="7.7" height="11.3"/>
			<g class="st8">
				<path class="st2" d="M-32.7,602.3c0,0.3-0.2,0.5-0.5,0.5s-0.5-0.2-0.5-0.5v-3.4c0-0.3,0.2-0.5,0.5-0.5l0,0c0.1,0,0.3,0,0.4,0.1
					l0.6,0.2c0.2,0.1,0.3,0.2,0.3,0.4s-0.2,0.4-0.4,0.4c0,0-0.1,0-0.2,0l-0.3-0.1v2.9L-32.7,602.3L-32.7,602.3z"/>
			</g>
		</g>
		<g id="g8468" transform="translate(188.81125,-54.91674)">
			<circle id="circle8470" class="st2" cx="-120" cy="605.2" r="2.4"/>
			<path id="path8472" inkscape:connector-curvature="0" d="M-115.8,605.2c0-2.3-1.9-4.3-4.3-4.3c-2.3,0-4.3,1.9-4.3,4.3
				c0,2.3,1.9,4.3,4.3,4.3C-117.6,609.4-115.8,607.5-115.8,605.2z M-118.3,605.2c0,1-0.8,1.8-1.8,1.8l0,0c-1,0-1.8-0.8-1.8-1.8l0,0
				c0-1,0.8-1.8,1.8-1.8l0,0C-119.1,603.4-118.3,604.2-118.3,605.2L-118.3,605.2z"/>
		</g>
	</g>
	<g id="g13138" transform="translate(-66.428571,-450.42856)">
		<path id="path17850" sodipodi:nodetypes="cc" inkscape:connector-curvature="0" class="st9" d="M355.7,722.3v-56.6"/>
		<path id="path17852" sodipodi:nodetypes="cc" inkscape:connector-curvature="0" class="st9" d="M355.7,665.3
			c1.1-31.7-12.1-0.8-11.3-65"/>
		<path id="path17854" sodipodi:nodetypes="cc" inkscape:connector-curvature="0" class="st9" d="M344.3,600.5
			c1.1-34-9.2-0.7-8.4-65.4"/>
		<path id="path17856" sodipodi:nodetypes="cc" inkscape:connector-curvature="0" class="st9" d="M338.6,475.9l-2.7,59"/>
		<g id="g8556" transform="translate(54.043161,90.913728)">
			<rect id="rect8522" x="296.6" y="599" width="11.3" height="7.7"/>
			<g class="st8">
				<path class="st2" d="M303.8,603c0.2,0,0.4,0.2,0.4,0.4s-0.2,0.4-0.4,0.4h-0.5v0.2c0,0.2-0.2,0.4-0.4,0.4s-0.4-0.2-0.4-0.4v-0.2
					h-2.2c-0.2,0-0.4-0.2-0.4-0.4c0-0.3,0.1-0.4,0.3-0.6l2.1-1.8c0.2-0.1,0.3-0.2,0.5-0.2s0.4,0.2,0.4,0.4v1.7L303.8,603L303.8,603z
					 M302.5,601.9l-1.3,1.1h1.3V601.9z"/>
			</g>
		</g>
		<g id="g13108" transform="translate(405.32268,114.72875)">
			<circle id="circle13110" class="st2" cx="-66.6" cy="360.9" r="2.4"/>
			<path id="path13112" inkscape:connector-curvature="0" d="M-66.6,356.6c-2.3,0-4.3,1.9-4.3,4.3c0,2.3,1.9,4.3,4.3,4.3
				c2.3,0,4.3-1.9,4.3-4.3C-62.4,358.5-64.4,356.6-66.6,356.6z M-66.6,359.1c1,0,1.8,0.8,1.8,1.8l0,0c0,1-0.8,1.8-1.8,1.8l0,0
				c-1,0-1.8-0.8-1.8-1.8l0,0C-68.4,359.9-67.6,359.1-66.6,359.1L-66.6,359.1z"/>
		</g>
		<g id="g13114" transform="translate(330.91324,111.18545)">
			<circle id="circle13116" class="st2" cx="4.9" cy="424" r="2.4"/>
			<path id="path13118" inkscape:connector-curvature="0" d="M4.9,419.7c-2.3,0-4.3,1.9-4.3,4.3c0,2.3,1.9,4.3,4.3,4.3
				c2.3,0,4.3-1.9,4.3-4.3C9.1,421.6,7.2,419.7,4.9,419.7z M4.9,422.2c1,0,1.8,0.8,1.8,1.8l0,0c0,1-0.8,1.8-1.8,1.8l0,0
				c-1,0-1.8-0.8-1.8-1.8l0,0C3.2,423,3.9,422.2,4.9,422.2L4.9,422.2z"/>
		</g>
		<g id="g13120" transform="translate(249.41719,121.81536)">
			<circle id="circle13122" class="st2" cx="95" cy="478.5" r="2.4"/>
			<path id="path13124" inkscape:connector-curvature="0" d="M95,474.2c-2.3,0-4.3,1.9-4.3,4.3c0,2.3,1.9,4.3,4.3,4.3
				c2.3,0,4.3-1.9,4.3-4.3C99.1,476.1,97.2,474.2,95,474.2z M95,476.7c1,0,1.8,0.8,1.8,1.8l0,0c0,1-0.8,1.8-1.8,1.8l0,0
				c-1,0-1.8-0.8-1.8-1.8l0,0C93.1,477.5,94,476.7,95,476.7L95,476.7z"/>
		</g>
		<g id="g13126" transform="translate(167.92112,135.9886)">
			<circle id="circle13128" class="st2" cx="187.7" cy="529.5" r="2.4"/>
			<path id="path13130" inkscape:connector-curvature="0" d="M187.7,525.2c-2.3,0-4.3,1.9-4.3,4.3c0,2.3,1.9,4.3,4.3,4.3
				c2.3,0,4.3-1.9,4.3-4.3S190.2,525.2,187.7,525.2z M187.7,527.7c1,0,1.8,0.8,1.8,1.8l0,0c0,1-0.8,1.8-1.8,1.8l0,0
				c-1,0-1.8-0.8-1.8-1.8l0,0C186,528.5,186.9,527.7,187.7,527.7L187.7,527.7z"/>
		</g>
		<g id="g13132" transform="translate(97.054976,135.9886)">
			<circle id="circle13134" class="st2" cx="258.7" cy="586.2" r="2.4"/>
			<path id="path13136" inkscape:connector-curvature="0" d="M258.7,582c-2.3,0-4.3,1.9-4.3,4.3c0,2.3,1.9,4.3,4.3,4.3
				c2.3,0,4.3-1.9,4.3-4.3C262.9,583.9,261,582,258.7,582z M258.7,584.4c1,0,1.8,0.8,1.8,1.8l0,0c0,1-0.8,1.8-1.8,1.8l0,0
				c-1,0-1.8-0.8-1.8-1.8l0,0C256.9,585.2,257.8,584.4,258.7,584.4L258.7,584.4z"/>
		</g>
	</g>
	<g id="g8168" transform="translate(-140.85281,-0.88832201)">
		<path id="path14429" sodipodi:nodetypes="ccccccccccccc" inkscape:connector-curvature="0" d="M201.2,281.8l-61.8-0.2L108.9,310
			l-45.7,0.7l-0.4,77.1l17.1,16.9l21.9,5.7l58.4-0.3l10.7,21.2l26,14.1l8,0.3l0.1-146.4L201.2,281.8z"/>
		<rect id="rect14431" x="87" y="383.2" class="st2" width="4.5" height="4.7"/>
		<rect id="rect14433" x="146.2" y="383.2" class="st2" width="4.5" height="4.7"/>
		<rect id="rect14435" x="137.2" y="383.2" class="st2" width="4.5" height="4.7"/>
		<rect id="rect14437" x="145.2" y="383.7" class="st2" width="11.9" height="3.7"/>
		<rect id="rect14439" x="185.2" y="418.7" class="st2" width="4.5" height="4.7"/>
		<rect id="rect14441" x="176.2" y="418.7" class="st2" width="4.5" height="4.7"/>
		<circle id="circle14443" class="st2" cx="162.6" cy="403.5" r="5.8"/>
		<circle id="circle14445" class="st2" cx="155.4" cy="385.5" r="5.8"/>
		<circle id="circle14447" class="st2" cx="103" cy="403.5" r="5.8"/>
		<circle id="circle14449" class="st2" cx="95.9" cy="385.5" r="5.8"/>
		<circle id="circle14451" class="st2" cx="193.2" cy="354.3" r="5.8"/>
		<circle id="circle14453" class="st2" cx="200.4" cy="372.3" r="5.8"/>
		<circle id="circle14455" class="st2" cx="194.3" cy="420.9" r="5.8"/>
		<circle id="circle14457" class="st2" cx="200.4" cy="438.9" r="5.8"/>
		<rect id="rect14459" x="183.7" y="351.9" class="st2" width="4.5" height="4.7"/>
		<rect id="rect14461" x="175" y="352" class="st2" width="4.5" height="4.7"/>
		<rect id="rect14463" x="182.9" y="352.4" class="st2" width="11.9" height="3.7"/>
		<rect id="rect14465" x="184.2" y="419.2" class="st2" width="11.9" height="3.7"/>
		<rect id="rect14467" x="78" y="383.2" class="st2" width="4.5" height="4.7"/>
		<rect id="rect14469" x="86" y="383.7" class="st2" width="11.9" height="3.7"/>
		<rect id="rect14471" x="56.5" y="382.1" class="st2" width="17.7" height="6.3"/>
		<rect id="rect14473" x="56.5" y="374.9" class="st2" width="17.7" height="6.3"/>
		<rect id="rect14475" x="56.5" y="367.7" class="st2" width="17.7" height="6.3"/>
		<rect id="rect14477" x="56.5" y="360.5" class="st2" width="17.7" height="6.3"/>
		<rect id="rect14479" x="56.5" y="352.4" class="st2" width="17.7" height="37"/>
		<circle id="circle14481" class="st2" cx="193.2" cy="287.7" r="5.8"/>
		<rect id="rect14483" x="176.2" y="285.6" class="st2" width="4.5" height="4.7"/>
		<rect id="rect14485" x="184.2" y="286.1" class="st2" width="11.9" height="3.7"/>
		<circle id="circle14487" class="st2" cx="155.4" cy="285.6" r="5.8"/>
		<circle id="circle14493" cx="193.2" cy="287.7" r="3.3"/>
		<circle id="circle14497" class="st2" cx="200.4" cy="305.7" r="5.8"/>
		<circle id="circle14499" cx="200.4" cy="305.7" r="3.3"/>
		<circle id="circle14505" cx="162.6" cy="403.5" r="3.3"/>
		<path id="path14507" sodipodi:nodetypes="ccc" inkscape:connector-curvature="0" class="st11" d="M176.2,353.9l-9.1,8.9l-99.4,0.3
			"/>
		<circle id="circle14509" cx="155.4" cy="385.5" r="3.3"/>
		<rect id="rect14513" x="137.5" y="282.3" class="st2" width="4.5" height="4.7"/>
		<rect id="rect14515" x="145.6" y="282.8" class="st2" width="11.9" height="3.7"/>
		<circle id="circle14517" cx="103" cy="403.5" r="3.3"/>
		<circle id="circle14519" cx="95.9" cy="385.5" r="3.3"/>
		<circle id="circle14523" cx="193.2" cy="354.3" r="3.3"/>
		<circle id="circle14525" cx="200.4" cy="372.3" r="3.3"/>
		<circle id="circle14527" cx="193.2" cy="420.9" r="3.3"/>
		<circle id="circle14529" cx="200.4" cy="438.9" r="3.3"/>
		<circle id="circle14531" class="st2" cx="162.6" cy="303.6" r="5.8"/>
		<path id="path14701" sodipodi:nodetypes="cccc" inkscape:connector-curvature="0" class="st12" d="M200.4,438.4l0.3-66l-0.3-66
			l-37.9-2.9"/>
		<path id="path14533" sodipodi:nodetypes="cccc" inkscape:connector-curvature="0" class="st13" d="M200.4,438.4l0.3-66l-0.3-66
			l-37.9-2.9"/>
		<path id="path14703" sodipodi:nodetypes="cccc" inkscape:connector-curvature="0" class="st12" d="M199.9,438.7L174,426.2
			l-11.2-22.6l-60.3-0.3"/>
		<path id="path14535" sodipodi:nodetypes="cccc" inkscape:connector-curvature="0" class="st13" d="M199.9,438.7L174,426.2
			l-11.2-22.6l-60.3-0.3"/>
		<path id="path14705" sodipodi:nodetypes="ccccc" inkscape:connector-curvature="0" class="st12" d="M178.6,420.8l-10.9-23.1H78.3
			l-6.8-6.5l-2.6-6.4"/>
		<g id="g14537" transform="matrix(-1,0,0,1,794.37515,-59.552897)">
			<polygon id="rect14539" points="607,415.2 609.4,415.2 609.4,415.2 			"/>
			<polygon id="rect14541" points="616,415.2 618.4,415.2 618.4,415.2 			"/>
		</g>
		<path id="path14707" sodipodi:nodetypes="cccccc" inkscape:connector-curvature="0" class="st12" d="M139.7,385.7l-4.9,6.9
			l-54.3,0.3l-4.7-3.8l-1.9-9.1l-4.8-2.6"/>
		<rect id="rect14543" x="185.6" y="353.2" width="6.8" height="2.1"/>
		<path id="path14709" sodipodi:nodetypes="ccc" inkscape:connector-curvature="0" class="st12" d="M80.2,385.1l-2-11.3l-8.5-3.6"/>
		<g class="st8">
			<path d="M187.7,348.7c-0.7,0-1.1-0.2-1.5-0.5c-0.1-0.1-0.2-0.2-0.2-0.3c0-0.2,0.2-0.4,0.4-0.4c0.1,0,0.2,0,0.3,0.1
				c0.3,0.2,0.5,0.3,0.9,0.3c0.7,0,1.2-0.6,1.2-1.3l0,0c0-0.7-0.5-1.3-1.2-1.3c-0.3,0-0.6,0.1-0.9,0.3c-0.1,0-0.1,0.1-0.3,0.1
				c-0.3,0-0.5-0.2-0.5-0.5c0-0.2,0.1-0.3,0.2-0.4c0.3-0.3,0.8-0.4,1.4-0.4c1.3,0,2.2,1,2.2,2.2l0,0
				C189.8,347.8,188.9,348.7,187.7,348.7z"/>
			<path d="M183.8,348.7c-1,0-1.7-0.8-1.7-1.7l0,0c0-0.9,0.7-1.7,1.7-1.7s1.7,0.8,1.7,1.7l0,0C185.5,348,184.8,348.7,183.8,348.7z
				 M183.8,348c0.5,0,0.8-0.4,0.8-0.9l0,0c0-0.5-0.3-0.9-0.8-0.9s-0.8,0.4-0.8,0.9l0,0C182.9,347.6,183.3,348,183.8,348z"/>
			<path d="M181.3,348.3c0,0.3-0.2,0.5-0.5,0.5s-0.5-0.2-0.5-0.5v-3.5c0-0.3,0.2-0.5,0.5-0.5s0.5,0.2,0.5,0.5V348.3z"/>
			<path d="M177.1,348.3c0,0.3-0.2,0.5-0.5,0.5s-0.5-0.2-0.5-0.5v-3.4c0-0.3,0.2-0.5,0.5-0.5l0,0c0.1,0,0.3,0,0.4,0.1l0.6,0.2
				c0.2,0.1,0.3,0.2,0.3,0.4c0,0.2-0.2,0.4-0.4,0.4c0,0-0.1,0-0.2,0l-0.3-0.1L177.1,348.3L177.1,348.3z"/>
		</g>
		<path id="path14711" sodipodi:nodetypes="ccc" inkscape:connector-curvature="0" class="st12" d="M162.9,305.6L100,356.7H69"/>
		<g class="st8">
			<path d="M193.6,415c-0.7,0-1.1-0.2-1.5-0.5c-0.1-0.1-0.2-0.2-0.2-0.3c0-0.2,0.2-0.4,0.4-0.4c0.1,0,0.2,0,0.3,0.1
				c0.3,0.2,0.5,0.3,0.9,0.3c0.7,0,1.2-0.6,1.2-1.3l0,0c0-0.7-0.5-1.3-1.2-1.3c-0.3,0-0.6,0.1-0.9,0.3c-0.1,0-0.1,0.1-0.3,0.1
				c-0.3,0-0.5-0.2-0.5-0.5c0-0.2,0.1-0.3,0.2-0.4c0.3-0.3,0.8-0.4,1.4-0.4c1.3,0,2.2,1,2.2,2.2l0,0
				C195.8,414.1,194.8,415,193.6,415z"/>
			<path d="M189.7,415c-1,0-1.7-0.8-1.7-1.7l0,0c0-0.9,0.7-1.7,1.7-1.7s1.7,0.8,1.7,1.7l0,0C191.5,414.3,190.7,415,189.7,415z
				 M189.7,414.2c0.5,0,0.8-0.4,0.8-0.9l0,0c0-0.5-0.3-0.9-0.8-0.9s-0.8,0.4-0.8,0.9l0,0C188.9,413.8,189.2,414.2,189.7,414.2z"/>
			<path d="M187.3,414.5c0,0.3-0.2,0.5-0.5,0.5s-0.5-0.2-0.5-0.5V411c0-0.3,0.2-0.5,0.5-0.5s0.5,0.2,0.5,0.5V414.5z"/>
			<path d="M181.7,414.6c0,0.2-0.2,0.4-0.4,0.4s-0.4-0.2-0.4-0.4v-0.5h-0.2c-0.2,0-0.4-0.2-0.4-0.4s0.2-0.4,0.4-0.4h0.2v-2.2
				c0-0.2,0.2-0.4,0.4-0.4c0.3,0,0.4,0.1,0.6,0.3l1.8,2.1c0.1,0.2,0.2,0.3,0.2,0.5s-0.2,0.4-0.4,0.4h-1.7v0.6H181.7z M182.8,413.3
				l-1.1-1.3v1.3H182.8z"/>
		</g>
		<path id="path14713" sodipodi:nodetypes="cccc" inkscape:connector-curvature="0" class="st12" d="M178.2,287.9l-21.7,7
			l-52.2,47.6l-6.2-0.1"/>
		<g class="st8">
			<path d="M160.5,379.7c-0.7,0-1.1-0.2-1.5-0.5c-0.1-0.1-0.2-0.2-0.2-0.3c0-0.2,0.2-0.4,0.4-0.4c0.1,0,0.2,0,0.3,0.1
				c0.3,0.2,0.5,0.3,0.9,0.3c0.7,0,1.2-0.6,1.2-1.3l0,0c0-0.7-0.5-1.3-1.2-1.3c-0.3,0-0.6,0.1-0.9,0.3c-0.1,0-0.1,0.1-0.3,0.1
				c-0.3,0-0.5-0.2-0.5-0.5c0-0.2,0.1-0.3,0.2-0.4c0.3-0.3,0.8-0.4,1.4-0.4c1.3,0,2.2,1,2.2,2.2l0,0
				C162.7,378.7,161.8,379.7,160.5,379.7z"/>
			<path d="M156.6,379.7c-1,0-1.7-0.8-1.7-1.7l0,0c0-0.9,0.7-1.7,1.7-1.7s1.7,0.8,1.7,1.7l0,0C158.4,379,157.6,379.7,156.6,379.7z
				 M156.6,378.9c0.5,0,0.8-0.4,0.8-0.9l0,0c0-0.5-0.3-0.9-0.8-0.9s-0.8,0.4-0.8,0.9l0,0C155.8,378.5,156.1,378.9,156.6,378.9z"/>
			<path d="M154.2,379.2c0,0.3-0.2,0.5-0.5,0.5s-0.5-0.2-0.5-0.5v-3.5c0-0.3,0.2-0.5,0.5-0.5s0.5,0.2,0.5,0.5V379.2z"/>
			<path d="M149.2,379.7c-0.9,0-1.5-0.6-1.5-1.4l0,0c0-0.8,0.6-1.1,1.1-1.2l-0.8-0.8c-0.2-0.2-0.3-0.3-0.3-0.5
				c0-0.3,0.2-0.4,0.5-0.4h2c0.2,0,0.4,0.2,0.4,0.4s-0.2,0.4-0.4,0.4h-1.3l0.8,0.8c0.1,0.1,0.2,0.3,0.2,0.4c0,0.2-0.2,0.4-0.4,0.4
				h-0.1c-0.5,0-0.8,0.2-0.8,0.5l0,0c0,0.3,0.2,0.5,0.6,0.5c0.3,0,0.6-0.1,0.8-0.3c0.1-0.1,0.2-0.1,0.3-0.1c0.2,0,0.4,0.2,0.4,0.4
				c0,0.1-0.1,0.3-0.2,0.3C150.2,379.5,149.8,379.7,149.2,379.7z"/>
		</g>
		<rect id="rect14561" x="186" y="419.7" width="2.6" height="2.7"/>
		<rect id="rect14563" x="177.2" y="419.7" width="2.6" height="2.7"/>
		<rect id="rect14565" x="186.7" y="420" width="6.8" height="2.1"/>
		<rect id="rect14567" x="147.2" y="384.2" width="2.6" height="2.7"/>
		<rect id="rect14569" x="138.2" y="384.2" width="2.6" height="2.7"/>
		<rect id="rect14571" x="147.9" y="384.5" width="6.8" height="2.1"/>
		<rect id="rect14573" x="88" y="384.2" width="2.6" height="2.7"/>
		<rect id="rect14575" x="79" y="384.2" width="2.6" height="2.7"/>
		<rect id="rect14577" x="88.6" y="384.5" width="6.8" height="2.1"/>
		<rect id="rect14579" x="185.2" y="285.6" class="st2" width="4.5" height="4.7"/>
		<rect id="rect14581" x="186" y="286.6" width="2.6" height="2.7"/>
		<rect id="rect14583" x="177.2" y="286.6" width="2.6" height="2.7"/>
		<rect id="rect14585" x="186.7" y="286.9" width="6.8" height="2.1"/>
		<rect id="rect14587" x="146.4" y="282.3" class="st2" width="4.5" height="4.7"/>
		<rect id="rect14589" x="147.4" y="283.3" width="2.6" height="2.7"/>
		<rect id="rect14591" x="148" y="283.6" width="6.8" height="2.1"/>
		<path id="path14593" sodipodi:nodetypes="ccccc" inkscape:connector-curvature="0" class="st13" d="M178.6,420.8l-10.9-23.1H78.3
			l-6.8-6.5l-2.6-6.4"/>
		<path id="path14595" sodipodi:nodetypes="cccccc" inkscape:connector-curvature="0" class="st13" d="M139.7,385.7l-4.9,6.9
			l-54.3,0.3l-4.7-3.8l-1.9-9.1l-4.8-2.6"/>
		<path id="path14597" sodipodi:nodetypes="ccc" inkscape:connector-curvature="0" class="st13" d="M80.2,385.1l-2-11.3l-8.5-3.6"/>
		<path id="path14599" sodipodi:nodetypes="ccc" inkscape:connector-curvature="0" class="st14" d="M176.2,353.9l-9.1,8.9l-99.4,0.3
			"/>
		<path id="path14601" sodipodi:nodetypes="ccc" inkscape:connector-curvature="0" class="st12" d="M140,284.9l-28.3,30.4l-49.9,0.6
			"/>
		<rect id="rect14603" x="138.5" y="283.3" width="2.6" height="2.7"/>
		<path id="path14605" sodipodi:nodetypes="ccc" inkscape:connector-curvature="0" class="st13" d="M139.7,285.1l-28,30.2l-49.9,0.6
			"/>
		<path id="path14607" sodipodi:nodetypes="ccc" inkscape:connector-curvature="0" class="st13" d="M162.9,305.6L100,356.7H69"/>
		<rect id="rect14609" x="85.4" y="339.3" class="st2" width="17.7" height="6.3"/>
		<rect id="rect14611" x="89.1" y="340.7" width="10.1" height="3.6"/>
		<rect id="rect14613" x="60.3" y="383.4" width="10.1" height="3.6"/>
		<rect id="rect14615" x="60.3" y="376.2" width="10.1" height="3.6"/>
		<rect id="rect14617" x="60.3" y="369" width="10.1" height="3.6"/>
		<rect id="rect14619" x="60.3" y="361.8" width="10.1" height="3.6"/>
		<rect id="rect14621" x="60.3" y="354.6" width="10.1" height="3.6"/>
		<circle id="circle14623" cx="162.6" cy="303.6" r="3.3"/>
		<circle id="circle14625" cx="155.4" cy="285.6" r="3.3"/>
		<path id="path14627" sodipodi:nodetypes="cccc" inkscape:connector-curvature="0" class="st13" d="M178.2,287.9l-21.7,7
			l-52.2,47.6l-6.2-0.1"/>
		<g id="g14629" transform="translate(299.6781,-315.27268)">
			<circle id="circle14631" class="st2" cx="-144.3" cy="600.9" r="2.4"/>
			<path id="path14633" inkscape:connector-curvature="0" d="M-140.1,600.9c0-2.3-1.9-4.3-4.3-4.3c-2.3,0-4.3,1.9-4.3,4.3
				c0,2.3,1.9,4.3,4.3,4.3C-142,605.1-140.1,603.2-140.1,600.9z M-142.6,600.9c0,1-0.8,1.8-1.8,1.8l0,0c-1,0-1.8-0.8-1.8-1.8l0,0
				c0-1,0.8-1.8,1.8-1.8l0,0C-143.3,599.1-142.6,599.9-142.6,600.9L-142.6,600.9z"/>
		</g>
		<g id="g14635" transform="translate(308.67823,-167.87119)">
			<circle id="circle14637" class="st2" cx="-146.1" cy="571.4" r="2.4"/>
			<path id="path14639" inkscape:connector-curvature="0" d="M-141.8,571.4c0-2.3-1.9-4.3-4.3-4.3c-2.3,0-4.3,1.9-4.3,4.3
				c0,2.3,1.9,4.3,4.3,4.3C-143.8,575.6-141.8,573.7-141.8,571.4z M-144.3,571.4c0,1-0.8,1.8-1.8,1.8l0,0c-1,0-1.8-0.8-1.8-1.8l0,0
				c0-1,0.8-1.8,1.8-1.8l0,0C-145.1,569.6-144.3,570.4-144.3,571.4L-144.3,571.4z"/>
		</g>
		<g id="g14641" transform="translate(347.08765,-229.41837)">
			<circle id="circle14643" class="st2" cx="-153.8" cy="583.7" r="2.4"/>
			<path id="path14645" inkscape:connector-curvature="0" d="M-149.6,583.7c0-2.3-1.9-4.3-4.3-4.3c-2.3,0-4.3,1.9-4.3,4.3
				c0,2.3,1.9,4.3,4.3,4.3S-149.6,586.1-149.6,583.7z M-152.1,583.7c0,1-0.8,1.8-1.8,1.8l0,0c-1,0-1.8-0.8-1.8-1.8l0,0
				c0-1,0.8-1.8,1.8-1.8l0,0C-152.8,581.9-152.1,582.7-152.1,583.7L-152.1,583.7z"/>
		</g>
		<g id="g14647" transform="translate(348.28465,-146.15061)">
			<circle id="circle14649" class="st2" cx="-154.1" cy="567.1" r="2.4"/>
			<path id="path14651" inkscape:connector-curvature="0" d="M-149.8,567.1c0-2.3-1.9-4.3-4.3-4.3c-2.3,0-4.3,1.9-4.3,4.3
				c0,2.3,1.9,4.3,4.3,4.3C-151.6,571.3-149.8,569.4-149.8,567.1z M-152.3,567.1c0,1-0.8,1.8-1.8,1.8l0,0c-1,0-1.8-0.8-1.8-1.8l0,0
				c0-1,0.8-1.8,1.8-1.8l0,0C-153.1,565.3-152.3,566.1-152.3,567.1L-152.3,567.1z"/>
		</g>
		<g id="g14653" transform="translate(299.6781,-190.37119)">
			<circle id="circle14655" class="st2" cx="-144.3" cy="575.9" r="2.4"/>
			<path id="path14657" inkscape:connector-curvature="0" d="M-140.1,575.9c0-2.3-1.9-4.3-4.3-4.3c-2.3,0-4.3,1.9-4.3,4.3
				c0,2.3,1.9,4.3,4.3,4.3C-142,580.1-140.1,578.2-140.1,575.9z M-142.6,575.9c0,1-0.8,1.8-1.8,1.8l0,0c-1,0-1.8-0.8-1.8-1.8l0,0
				c0-1,0.8-1.8,1.8-1.8l0,0C-143.3,574.1-142.6,574.9-142.6,575.9L-142.6,575.9z"/>
		</g>
		<g id="g14659" transform="translate(225.2688,-190.37119)">
			<circle id="circle14661" class="st2" cx="-129.4" cy="575.9" r="2.4"/>
			<path id="path14663" inkscape:connector-curvature="0" d="M-125.1,575.9c0-2.3-1.9-4.3-4.3-4.3c-2.3,0-4.3,1.9-4.3,4.3
				c0,2.3,1.9,4.3,4.3,4.3C-127.1,580.1-125.1,578.2-125.1,575.9z M-127.6,575.9c0,1-0.8,1.8-1.8,1.8l0,0c-1,0-1.8-0.8-1.8-1.8l0,0
				c0-1,0.8-1.8,1.8-1.8l0,0C-128.4,574.1-127.6,574.9-127.6,575.9L-127.6,575.9z"/>
		</g>
		<g id="g14665" transform="translate(234.2688,-167.87119)">
			<circle id="circle14667" class="st2" cx="-131.3" cy="571.4" r="2.4"/>
			<path id="path14669" inkscape:connector-curvature="0" d="M-127,571.4c0-2.3-1.9-4.3-4.3-4.3c-2.3,0-4.3,1.9-4.3,4.3
				c0,2.3,1.9,4.3,4.3,4.3C-128.8,575.6-127,573.7-127,571.4z M-129.4,571.4c0,1-0.8,1.8-1.8,1.8l0,0c-1,0-1.8-0.8-1.8-1.8l0,0
				c0-1,0.8-1.8,1.8-1.8l0,0C-130.3,569.6-129.4,570.4-129.4,571.4L-129.4,571.4z"/>
		</g>
		<g id="g14671" transform="translate(356.08765,-123.65073)">
			<circle id="circle14673" class="st2" cx="-155.6" cy="562.6" r="2.4"/>
			<path id="path14675" inkscape:connector-curvature="0" d="M-151.3,562.6c0-2.3-1.9-4.3-4.3-4.3c-2.3,0-4.3,1.9-4.3,4.3
				c0,2.3,1.9,4.3,4.3,4.3C-153.3,566.8-151.3,564.9-151.3,562.6z M-153.8,562.6c0,1-0.8,1.8-1.8,1.8l0,0c-1,0-1.8-0.8-1.8-1.8l0,0
				c0-1,0.8-1.8,1.8-1.8l0,0C-154.6,560.8-153.8,561.6-153.8,562.6L-153.8,562.6z"/>
		</g>
		<g id="g14677" transform="translate(356.08765,-206.91837)">
			<circle id="circle14679" class="st2" cx="-155.6" cy="579.2" r="2.4"/>
			<path id="path14681" inkscape:connector-curvature="0" d="M-151.3,579.2c0-2.3-1.9-4.3-4.3-4.3c-2.3,0-4.3,1.9-4.3,4.3
				c0,2.3,1.9,4.3,4.3,4.3C-153.3,583.5-151.3,581.6-151.3,579.2z M-153.8,579.2c0,1-0.8,1.8-1.8,1.8l0,0c-1,0-1.8-0.8-1.8-1.8l0,0
				c0-1,0.8-1.8,1.8-1.8l0,0C-154.6,577.4-153.8,578.2-153.8,579.2L-153.8,579.2z"/>
		</g>
		<g id="g14683" transform="translate(308.67823,-292.77268)">
			<circle id="circle14685" class="st2" cx="-146.1" cy="596.4" r="2.4"/>
			<path id="path14687" inkscape:connector-curvature="0" d="M-141.8,596.4c0-2.3-1.9-4.3-4.3-4.3c-2.3,0-4.3,1.9-4.3,4.3
				c0,2.3,1.9,4.3,4.3,4.3C-143.8,600.6-141.8,598.7-141.8,596.4z M-144.3,596.4c0,1-0.8,1.8-1.8,1.8l0,0c-1,0-1.8-0.8-1.8-1.8l0,0
				c0-1,0.8-1.8,1.8-1.8l0,0C-145.1,594.6-144.3,595.4-144.3,596.4L-144.3,596.4z"/>
		</g>
		<g id="g14689" transform="translate(356.08765,-290.18607)">
			<circle id="circle14691" class="st2" cx="-155.6" cy="595.9" r="2.4"/>
			<path id="path14693" inkscape:connector-curvature="0" d="M-151.3,595.9c0-2.3-1.9-4.3-4.3-4.3c-2.3,0-4.3,1.9-4.3,4.3
				c0,2.3,1.9,4.3,4.3,4.3C-153.3,600.1-151.3,598.2-151.3,595.9z M-153.8,595.9c0,1-0.8,1.8-1.8,1.8l0,0c-1,0-1.8-0.8-1.8-1.8l0,0
				c0-1,0.8-1.8,1.8-1.8l0,0C-154.6,594.1-153.8,594.9-153.8,595.9L-153.8,595.9z"/>
		</g>
		<g id="g14695" transform="translate(347.08765,-312.68607)">
			<circle id="circle14697" class="st2" cx="-153.8" cy="600.4" r="2.4"/>
			<path id="path14699" inkscape:connector-curvature="0" d="M-149.6,600.4c0-2.3-1.9-4.3-4.3-4.3c-2.3,0-4.3,1.9-4.3,4.3
				c0,2.3,1.9,4.3,4.3,4.3C-151.4,604.6-149.6,602.7-149.6,600.4z M-152.1,600.4c0,1-0.8,1.8-1.8,1.8l0,0c-1,0-1.8-0.8-1.8-1.8l0,0
				c0-1,0.8-1.8,1.8-1.8l0,0C-152.8,598.6-152.1,599.4-152.1,600.4L-152.1,600.4z"/>
		</g>
		<g class="st8">
			<path class="st2" d="M184.7,332.3c0-0.7,0.6-1.3,1.3-1.3s1.3,0.6,1.3,1.3v3.4c0.6-0.7,1.5-1.4,2.9-1.4c2.2,0,4.2,1.7,4.2,4.8l0,0
				c0,3.1-2.1,4.8-4.2,4.8c-1.4,0-2.2-0.6-2.9-1.5v0.1c0,0.7-0.6,1.3-1.3,1.3s-1.3-0.6-1.3-1.3V332.3z M189.5,336.5
				c-1.2,0-2.2,1-2.2,2.6l0,0c0,1.5,1,2.6,2.2,2.6s2.3-1,2.3-2.6l0,0C191.8,337.5,190.7,336.5,189.5,336.5z"/>
			<path class="st2" d="M179.7,343.9c-1.3,0-2.2-0.5-2.8-1.2l0,0c0,0.6-0.5,1.1-1.3,1.1c-0.7,0-1.3-0.6-1.3-1.3v-4.2
				c0-1.2,0.3-2.3,1-3s1.7-1,3.1-1c1.2,0,2.1,0.2,3,0.5c0.4,0.2,0.7,0.6,0.7,1c0,0.6-0.5,1.1-1.1,1.1c-0.1,0-0.2,0-0.4-0.1
				c-0.5-0.2-1.1-0.3-1.8-0.3c-1.3,0-2,0.6-2,1.7v0.2c0.7-0.2,1.3-0.4,2.3-0.4c2.2,0,3.7,0.9,3.7,3l0,0
				C182.9,342.9,181.4,343.9,179.7,343.9z M178.9,342.1c0.8,0,1.4-0.4,1.4-1.1l0,0c0-0.8-0.7-1.3-1.8-1.3c-0.6,0-1.2,0.1-1.7,0.3
				v0.5C176.8,341.4,177.7,342.1,178.9,342.1z"/>
			<path class="st2" d="M167.7,343.9c-1.5,0-2.5-0.5-3.3-1.2c-0.2-0.2-0.4-0.5-0.4-0.8c0-0.6,0.5-1.1,1.1-1.1c0.3,0,0.6,0.1,0.7,0.2
				c0.5,0.4,1,0.6,1.7,0.6c1.4,0,2.4-1.1,2.4-2.6l0,0c0-1.4-0.9-2.5-2.2-2.5c-0.7,0-1.2,0.2-1.6,0.6c-0.2,0.1-0.4,0.3-0.8,0.3
				c-0.7,0-1.2-0.5-1.2-1.2c0-0.5,0.2-0.8,0.4-0.9c0.8-0.7,1.8-1,3.2-1c2.8,0,4.9,2.2,4.9,4.8l0,0
				C172.5,341.8,170.5,343.9,167.7,343.9z"/>
			<path class="st2" d="M159,343.9c-0.6,0-1-0.1-1.5-0.3c-0.4-0.1-0.7-0.5-0.7-1c0-0.6,0.5-1.1,1.1-1.1c0.1,0,0.2,0,0.3,0
				c0.6,0,0.8-0.3,0.8-0.9v-4h-1.2c-0.6,0-1.1-0.5-1.1-1.1s0.5-1.1,1.1-1.1h1.2v-1.2c0-0.7,0.6-1.3,1.3-1.3s1.3,0.6,1.3,1.3v1.2h0.1
				c0.6,0,1.1,0.5,1.1,1.1s-0.5,1.1-1.1,1.1h-0.1v4.4C161.7,343.2,160.7,343.9,159,343.9z"/>
			<path class="st2" d="M153.1,346.5c-1.6,0-2.4-0.7-3.1-2.6l-3.2-7.8c-0.1-0.1-0.1-0.4-0.1-0.6c0-0.7,0.6-1.2,1.2-1.2
				s1.1,0.5,1.3,1l1.9,5.4l2-5.4c0.2-0.6,0.6-1,1.3-1s1.3,0.5,1.3,1.3c0,0.2-0.1,0.4-0.1,0.6l-3.2,7.3l0.1,0.2
				c0.2,0.5,0.5,0.6,0.9,0.6c0.2,0,0.3,0,0.6-0.1c0.1,0,0.2-0.1,0.4-0.1c0.5,0,1,0.4,1,1.1c0,0.6-0.4,1-0.8,1.1
				C154.1,346.5,153.7,346.5,153.1,346.5z"/>
			<path class="st2" d="M144.7,342.5c0,0.7-0.6,1.3-1.3,1.3s-1.3-0.6-1.3-1.3v-10.2c0-0.7,0.6-1.3,1.3-1.3s1.3,0.6,1.3,1.3V342.5z"
				/>
		</g>
	</g>
	<g id="g10924" transform="translate(319.20996,-216.81606)">
		<path id="path10896" inkscape:connector-curvature="0" d="M-192.4,605.3c1.8,0,3.2,1.5,3.2,3.2c0,1.8-1.5,3.2-3.2,3.2
			c-1.8,0-3.2-1.5-3.2-3.2C-195.8,606.8-194.3,605.3-192.4,605.3z M-192.4,607.2c-0.7,0-1.4,0.6-1.4,1.3l0,0c0,0.7,0.6,1.4,1.3,1.4
			l0,0c0.7,0,1.4-0.6,1.4-1.3l0,0C-191.1,607.8-191.8,607.2-192.4,607.2L-192.4,607.2z"/>
		<path id="path10898" inkscape:connector-curvature="0" d="M-235.6,605.3c1.8,0,3.2,1.5,3.2,3.2c0,1.8-1.5,3.2-3.2,3.2
			c-1.8,0-3.2-1.5-3.2-3.2C-239,606.8-237.4,605.3-235.6,605.3z M-235.6,607.2c-0.7,0-1.4,0.6-1.4,1.3l0,0c0,0.7,0.6,1.4,1.3,1.4
			l0,0c0.7,0,1.4-0.6,1.4-1.3l0,0C-234.3,607.8-235,607.2-235.6,607.2L-235.6,607.2z"/>
		<path id="path10900" inkscape:connector-curvature="0" d="M-242.8,605.3c1.8,0,3.2,1.5,3.2,3.2c0,1.8-1.5,3.2-3.2,3.2
			c-1.8,0-3.2-1.5-3.2-3.2C-246.2,606.8-244.7,605.3-242.8,605.3z M-242.8,607.2c-0.7,0-1.4,0.6-1.4,1.3l0,0c0,0.7,0.6,1.4,1.3,1.4
			l0,0c0.7,0,1.4-0.6,1.4-1.3l0,0C-241.6,607.8-242.2,607.2-242.8,607.2L-242.8,607.2z"/>
		<path id="path10902" inkscape:connector-curvature="0" d="M-192.4,562.1c1.8,0,3.2,1.5,3.2,3.2c0,1.8-1.5,3.2-3.2,3.2
			c-1.8,0-3.2-1.5-3.2-3.2C-195.8,563.6-194.3,562.1-192.4,562.1z M-192.4,564c-0.7,0-1.4,0.6-1.4,1.4l0,0c0,0.7,0.6,1.4,1.3,1.4
			l0,0c0.7,0,1.4-0.6,1.4-1.3l0,0C-191.1,564.6-191.8,564-192.4,564L-192.4,564z"/>
		<g id="g10904" transform="matrix(0,-1,-1,0,569.55963,840.948)">
			<path id="path10906" inkscape:connector-curvature="0" d="M244,656.4c0,1.8-1.5,3.2-3.2,3.2c-1.8,0-3.2-1.5-3.2-3.2
				c0-1.8,1.5-3.2,3.2-3.2C242.6,653.2,244,654.7,244,656.4z M242.1,656.4c0-0.7-0.6-1.4-1.3-1.4l0,0c-0.7,0-1.4,0.6-1.4,1.3l0,0
				c0,0.7,0.6,1.4,1.3,1.4l0,0C241.5,657.7,242.1,657.2,242.1,656.4L242.1,656.4z"/>
			<path id="path10908" inkscape:connector-curvature="0" d="M270.4,656.4c0,1.8-1.5,3.2-3.2,3.2c-1.8,0-3.2-1.5-3.2-3.2
				c0-1.8,1.5-3.2,3.2-3.2C268.9,653.2,270.4,654.7,270.4,656.4z M268.5,656.4c0-0.7-0.6-1.4-1.3-1.4l0,0c-0.7,0-1.4,0.6-1.4,1.3
				l0,0c0,0.7,0.6,1.4,1.3,1.4l0,0C267.9,657.7,268.5,657.2,268.5,656.4L268.5,656.4z"/>
			<path id="path10910" inkscape:connector-curvature="0" d="M267.8,670.5c0,1.8-1.5,3.2-3.2,3.2c-1.8,0-3.2-1.5-3.2-3.2
				c0-1.8,1.5-3.2,3.2-3.2C266.4,667.4,267.8,668.7,267.8,670.5z M266,670.5c0-0.7-0.6-1.4-1.3-1.4l0,0c-0.7,0-1.4,0.6-1.4,1.3l0,0
				c0,0.7,0.6,1.4,1.3,1.4l0,0C265.4,672,266,671.4,266,670.5L266,670.5z"/>
			<path id="path10912" inkscape:connector-curvature="0" d="M252.7,679.7c0,1.8-1.5,3.2-3.2,3.2c-1.8,0-3.2-1.5-3.2-3.2
				c0-1.8,1.5-3.2,3.2-3.2S252.7,677.9,252.7,679.7z M250.8,679.7c0-0.7-0.6-1.4-1.3-1.4l0,0c-0.7,0-1.4,0.6-1.4,1.4l0,0
				c0,0.7,0.6,1.4,1.3,1.4l0,0C250.2,681,250.8,680.4,250.8,679.7L250.8,679.7z"/>
		</g>
		<path id="path10914" sodipodi:nodetypes="ccccc" inkscape:connector-curvature="0" class="st7" d="M-89,572.1l-8.5-1.4l-51.5,1.8
			l-10.7-6.5l-30.6-0.2"/>
		<path id="path10916" sodipodi:nodetypes="cccccc" inkscape:connector-curvature="0" class="st7" d="M-87,597.7l-26.9,0.3l-3.5-3.3
			l-34.3-0.1l-9.5,14l-28.7-0.3"/>
		<path id="path10918" sodipodi:nodetypes="ccccc" inkscape:connector-curvature="0" class="st7" d="M-112.6,591l-42,0.1l-7.7,12.7
			l-70.8-0.2l-2.1,3.2"/>
		<path id="path10920" sodipodi:nodetypes="ccccc" inkscape:connector-curvature="0" class="st7" d="M-103.4,576.4l-47.8,0.8
			l-9.7-6.7h-54.9l-25.7,36.3"/>
	</g>
</g>
<g id="g8066" transform="translate(-160.96665,267.22373)">
	<path id="path17660-2_2_" sodipodi:nodetypes="cc" inkscape:connector-curvature="0" class="st15" d="M120.9-42.9"/>
	<path id="path17660-2_1_" sodipodi:nodetypes="cc" inkscape:connector-curvature="0" class="st15" d="M188.7-42.7"/>
</g>
<g>
	<path d="M-71.1,439.5c0,0.5-0.4,0.9-0.9,0.9s-0.9-0.4-0.9-0.9v-7.1c0-0.5,0.4-0.9,0.9-0.9s0.9,0.4,0.9,0.9
		C-71.1,432.4-71.1,439.5-71.1,439.5z"/>
	<path d="M-79.9,439.9c-0.1-0.1-0.2-0.3-0.2-0.5c0-0.4,0.3-0.7,0.7-0.7c0.1,0,0.3,0,0.4,0.1c0.4,0.2,0.8,0.4,1.3,0.4
		c0.8,0,1.4-0.5,1.6-1.3h-3.6c-0.5,0-0.9-0.4-0.9-0.9c0-1.3,1-3.1,3.1-3.1c1.9,0,3.2,1.5,3.2,3.3l0,0c0,1.9-1.5,3.3-3.4,3.3
		C-78.7,440.5-79.4,440.2-79.9,439.9z M-76.1,436.6c-0.2-0.9-0.6-1.4-1.4-1.4s-1.3,0.6-1.4,1.4H-76.1z"/>
	<path d="M-82.4,439.4c0,0.5-0.4,0.9-0.9,0.9s-0.9-0.4-0.9-0.9v-4H-85c-0.5,0-0.8-0.3-0.8-0.7c0-0.4,0.4-0.7,0.8-0.7h0.8v-0.3
		c0-0.5-0.3-0.7-0.7-0.7h-0.2c-0.4,0-0.7-0.4-0.7-0.8s0.3-0.7,0.6-0.7c0.2,0,0.4,0,0.7,0c0.7,0,1.2,0.2,1.5,0.5
		c0.3,0.4,0.5,0.9,0.5,1.6v0.4h0.1c0.5,0,0.8,0.4,0.8,0.8s-0.3,0.7-0.8,0.7l0,0V439.4z"/>
	<path d="M-88.8,440.5c-0.4,0-0.7-0.1-1-0.2s-0.5-0.4-0.5-0.7c0-0.5,0.4-0.8,0.8-0.8c0,0,0.1,0,0.2,0c0.4,0,0.6-0.2,0.6-0.6v-2.7
		h-0.8c-0.5,0-0.8-0.4-0.8-0.8c0-0.5,0.4-0.8,0.8-0.8h0.8v-0.8c0-0.5,0.4-0.9,0.9-0.9s0.9,0.4,0.9,0.9v0.8h0.1
		c0.5,0,0.8,0.4,0.8,0.8c0,0.5-0.4,0.8-0.8,0.8h-0.1v3C-86.9,440-87.7,440.4-88.8,440.5z"/>
	<path d="M-95.2,441.3c0,0.5-0.4,0.9-0.9,0.9s-0.9-0.4-0.9-0.9v-1.9c-0.4,0.6-1,1-2,1c-1.5,0-2.9-1.2-2.9-3.3l0,0
		c0-2.1,1.4-3.3,2.9-3.3c0.9,0,1.6,0.4,2,1v-0.1c0-0.5,0.4-0.9,0.9-0.9s0.9,0.4,0.9,0.9V441.3z M-98.5,438.9c0.9,0,1.6-0.7,1.6-1.8
		l0,0c0-1.1-0.7-1.8-1.6-1.8s-1.6,0.7-1.6,1.8l0,0C-100.1,438.2-99.4,438.9-98.5,438.9z"/>
	<path d="M-106.4,440.5c-1.1,0-1.8-0.3-2.3-0.8c-0.2-0.2-0.3-0.4-0.3-0.6c0-0.5,0.4-0.8,0.8-0.8c0.2,0,0.4,0.1,0.5,0.2
		c0.3,0.2,0.7,0.4,1.2,0.4c1,0,1.6-0.8,1.6-1.8l0,0c0-1-0.7-1.8-1.6-1.8c-0.4,0-0.8,0.1-1.1,0.4c-0.1,0.1-0.3,0.2-0.5,0.2
		c-0.4,0-0.8-0.3-0.8-0.8c0-0.3,0.2-0.5,0.3-0.6c0.5-0.4,1.2-0.7,2.2-0.7c2,0,3.4,1.5,3.4,3.4l0,0C-103,439-104.4,440.5-106.4,440.5
		z"/>
	<path d="M-110.2,439.4c0,0.5-0.4,0.9-0.9,0.9s-0.9-0.4-0.9-0.9l0,0c-0.4,0.6-1,1-2,1c-1.5,0-2.9-1.2-2.9-3.3l0,0
		c0-2.1,1.4-3.3,2.9-3.3c0.9,0,1.6,0.4,2,1v-2.4c0-0.5,0.4-0.9,0.9-0.9s0.9,0.4,0.9,0.9V439.4z M-113.5,438.9c0.9,0,1.6-0.7,1.6-1.8
		l0,0c0-1.1-0.7-1.8-1.6-1.8s-1.6,0.7-1.6,1.8l0,0C-115.1,438.2-114.4,438.9-113.5,438.9z"/>
</g>
</svg>
