<?xml version="1.0" encoding="utf-8"?>
<!-- Generator: Adobe Illustrator 19.1.0, SVG Export Plug-In . SVG Version: 6.00 Build 0)  -->
<!DOCTYPE svg PUBLIC "-//W3C//DTD SVG 1.1//EN" "http://www.w3.org/Graphics/SVG/1.1/DTD/svg11.dtd">
<svg version="1.1"
	 id="svg17908" inkscape:version="0.91 r13725" sodipodi:docname="Complete Right Hand.svg" xmlns:dc="http://purl.org/dc/elements/1.1/" xmlns:rdf="http://www.w3.org/1999/02/22-rdf-syntax-ns#" xmlns:sodipodi="http://sodipodi.sourceforge.net/DTD/sodipodi-0.dtd" xmlns:svg="http://www.w3.org/2000/svg" xmlns:inkscape="http://www.inkscape.org/namespaces/inkscape" xmlns:cc="http://creativecommons.org/ns#"
	 xmlns="http://www.w3.org/2000/svg" xmlns:xlink="http://www.w3.org/1999/xlink" x="0px" y="0px" width="595.3px" height="841.9px"
	 viewBox="-213 -36.9 595.3 841.9" style="enable-background:new -213 -36.9 595.3 841.9;" xml:space="preserve">
<style type="text/css">
	.st0{fill:none;stroke:#000000;stroke-width:2.657;}
	.st1{fill:none;stroke:#000000;stroke-width:2.6575;}
	.st2{enable-background:new    ;}
	.st3{fill:#FFFFFF;}
	.st4{fill:none;stroke:#000000;stroke-width:2.8346;}
	.st5{fill:none;stroke:#000000;stroke-width:2.8346;stroke-linecap:round;stroke-linejoin:round;}
	.st6{fill:none;stroke:#000000;stroke-width:3.189;}
	.st7{fill:none;stroke:#000000;stroke-width:2.7992;}
	.st8{fill:none;stroke:#FFFFFF;stroke-width:6.378;}
	.st9{fill:none;stroke:#000000;stroke-width:2.3209;}
	.st10{fill:#001A00;}
	.st11{fill:none;stroke:#000000;stroke-width:2.4803;}
	.st12{fill:none;stroke:#000000;stroke-linecap:round;stroke-linejoin:round;}
	.st13{fill:none;stroke:#000000;stroke-linecap:round;stroke-linejoin:round;stroke-dasharray:8,8;}
	.st14{fill:#DA0000;}
</style>
<sodipodi:namedview  inkscape:window-x="1192" inkscape:current-layer="layer1" inkscape:pageopacity="0.0" inkscape:window-y="-8" inkscape:window-maximized="1" inkscape:pageshadow="2" inkscape:window-width="2560" inkscape:window-height="1377" inkscape:document-units="px" showguides="false" inkscape:cy="517.67339" borderopacity="1.0" showgrid="true" inkscape:zoom="0.4351805" inkscape:cx="1425.7784" id="base" bordercolor="#666666" pagecolor="#ffffff">
	<sodipodi:guide  orientation="65.714294,0" position="110.35917,528.30979" id="guide8041"></sodipodi:guide>
	<sodipodi:guide  orientation="0,51.785721" position="155.35715,617.14287" id="guide8043"></sodipodi:guide>
	<sodipodi:guide  orientation="-65.714294,0" position="155.35715,476.42856" id="guide8045"></sodipodi:guide>
	<sodipodi:guide  orientation="0,-51.785721" position="182.14286,551.42858" id="guide8047"></sodipodi:guide>
	<inkscape:grid  type="xygrid" spacingy="3.5433072" id="grid10922" spacingx="3.5433071" units="mm"></inkscape:grid>
</sodipodi:namedview>
<g id="layer1" inkscape:groupmode="layer" inkscape:label="Layer 1">
	<g id="g8066" transform="translate(-160.96665,267.22373)">
		<path id="path5933" inkscape:connector-curvature="0" d="M381.1,179.8c-2.3,0-4.3-1.9-4.3-4.3c0-2.3,1.9-4.3,4.3-4.3
			c2.3,0,4.3,1.9,4.3,4.3C385.4,177.9,383.5,179.8,381.1,179.8z M381.1,177.3c1,0,1.8-0.8,1.8-1.8l0,0c0-1-0.8-1.8-1.8-1.8l0,0
			c-1,0-1.8,0.8-1.8,1.8l0,0C379.4,176.5,380.3,177.3,381.1,177.3L381.1,177.3z"/>
		<path id="path17660-2" sodipodi:nodetypes="cc" inkscape:connector-curvature="0" class="st0" d="M378.3,175.6l-67.8-0.2"/>
		<path id="path5937" inkscape:connector-curvature="0" d="M307.9,179.8c-2.3,0-4.3-1.9-4.3-4.3c0-2.3,1.9-4.3,4.3-4.3
			c2.3,0,4.3,1.9,4.3,4.3C312.1,177.9,310.3,179.8,307.9,179.8z M307.9,177.3c1,0,1.8-0.8,1.8-1.8l0,0c0-1-0.8-1.8-1.8-1.8l0,0
			c-1,0-1.8,0.8-1.8,1.8l0,0C306.1,176.5,306.9,177.3,307.9,177.3L307.9,177.3z"/>
		<path id="path17652-3" sodipodi:nodetypes="ccc" inkscape:connector-curvature="0" class="st0" d="M305.5,175.4l-24.1-2.5l-36-0.2
			"/>
		<path id="path5941" inkscape:connector-curvature="0" d="M242.7,176.9c-2.3,0-4.3-1.9-4.3-4.3c0-2.3,1.9-4.3,4.3-4.3
			c2.3,0,4.3,1.9,4.3,4.3C246.9,175,245,176.9,242.7,176.9z M242.7,174.5c1,0,1.8-0.8,1.8-1.8l0,0c0-1-0.8-1.8-1.8-1.8l0,0
			c-1,0-1.8,0.8-1.8,1.8l0,0C240.9,173.7,241.7,174.5,242.7,174.5L242.7,174.5z"/>
		<path id="path5935" inkscape:connector-curvature="0" d="M177.5,174.1c-2.3,0-4.3-1.9-4.3-4.3c0-2.3,1.9-4.3,4.3-4.3
			c2.3,0,4.3,1.9,4.3,4.3C181.7,172.2,179.8,174.1,177.5,174.1z M177.5,171.6c1,0,1.8-0.8,1.8-1.8l0,0c0-1-0.8-1.8-1.8-1.8l0,0
			c-1,0-1.8,0.8-1.8,1.8l0,0C175.7,170.8,176.5,171.6,177.5,171.6L177.5,171.6z"/>
		<path id="path5939" inkscape:connector-curvature="0" d="M118,176.9c-2.3,0-4.3-1.9-4.3-4.3c0-2.3,1.9-4.3,4.3-4.3
			c2.3,0,4.3,1.9,4.3,4.3C122.2,175,120.3,176.9,118,176.9z M118,174.5c1,0,1.8-0.8,1.8-1.8l0,0c0-1-0.8-1.8-1.8-1.8l0,0
			c-1,0-1.8,0.8-1.8,1.8l0,0C116.2,173.7,117,174.5,118,174.5L118,174.5z"/>
		<path id="path5943" inkscape:connector-curvature="0" d="M61.3,176.9c-2.3,0-4.3-1.9-4.3-4.3c0-2.3,1.9-4.3,4.3-4.3
			c2.3,0,4.3,1.9,4.3,4.3C65.5,175,63.6,176.9,61.3,176.9z M61.3,174.5c1,0,1.8-0.8,1.8-1.8l0,0c0-1-0.8-1.8-1.8-1.8l0,0
			c-1,0-1.8,0.8-1.8,1.8l0,0C59.5,173.7,60.3,174.5,61.3,174.5L61.3,174.5z"/>
		<path id="path17644-1" sodipodi:nodetypes="ccc" inkscape:connector-curvature="0" class="st0" d="M240.2,172.7l-31.4-3.3l-28,0.4
			"/>
		<path id="path17628-6" sodipodi:nodetypes="cc" inkscape:connector-curvature="0" class="st0" d="M120.5,172.4l54-2.4"/>
		<rect id="rect8052" x="319.3" y="169.6" width="7.7" height="11.3"/>
		<path id="path8064" inkscape:connector-curvature="0" class="st1" d="M118.3,175.1v22.1l-4.8,3.3l-45.7,0.6l-6.3-5.7l-0.2-20.2"/>
		<g class="st2">
			<path class="st3" d="M323.1,177.2c-1.1,0-1.9-1-1.9-2.2l0,0c0-1.2,0.7-2.2,1.9-2.2c1.1,0,1.9,1,1.9,2.2l0,0
				C325,176.3,324.3,177.2,323.1,177.2z M323.1,176.4c0.6,0,0.9-0.6,0.9-1.3l0,0c0-0.8-0.4-1.3-0.9-1.3s-0.9,0.6-0.9,1.3l0,0
				C322.3,175.8,322.5,176.4,323.1,176.4z"/>
		</g>
	</g>
	<g id="g8082" transform="translate(-136.05548,129.80238)">
		<path id="path5991" inkscape:connector-curvature="0" d="M380.4,275c-2.3,0-4.3-1.9-4.3-4.3c0-2.3,1.9-4.3,4.3-4.3
			c2.3,0,4.3,1.9,4.3,4.3S382.8,275,380.4,275z M380.4,272.5c1,0,1.8-0.8,1.8-1.8l0,0c0-1-0.8-1.8-1.8-1.8l0,0c-1,0-1.8,0.8-1.8,1.8
			l0,0C378.6,271.7,379.4,272.5,380.4,272.5L380.4,272.5z"/>
		<path id="path5993" inkscape:connector-curvature="0" d="M307.3,275c-2.3,0-4.3-1.9-4.3-4.3c0-2.3,1.9-4.3,4.3-4.3
			c2.3,0,4.3,1.9,4.3,4.3C311.4,273.1,309.5,275,307.3,275z M307.3,272.5c1,0,1.8-0.8,1.8-1.8l0,0c0-1-0.8-1.8-1.8-1.8l0,0
			c-1,0-1.8,0.8-1.8,1.8l0,0C305.4,271.7,306.3,272.5,307.3,272.5C307.1,272.5,307.1,272.5,307.3,272.5z"/>
		<path id="path5995" inkscape:connector-curvature="0" d="M237.7,266.5c-2.3,0-4.3-1.9-4.3-4.3c0-2.3,1.9-4.3,4.3-4.3
			c2.3,0,4.3,1.9,4.3,4.3C242,264.6,240,266.5,237.7,266.5z M237.7,264c1,0,1.8-0.8,1.8-1.8l0,0c0-1-0.8-1.8-1.8-1.8l0,0
			c-1,0-1.8,0.8-1.8,1.8l0,0C235.9,263.2,236.7,264,237.7,264L237.7,264z"/>
		<path id="path5997" inkscape:connector-curvature="0" d="M172.5,260.8c-2.3,0-4.3-1.9-4.3-4.3c0-2.3,1.9-4.3,4.3-4.3
			c2.3,0,4.3,1.9,4.3,4.3C176.8,258.9,174.9,260.8,172.5,260.8z M172.5,258.3c1,0,1.8-0.8,1.8-1.8l0,0c0-1-0.8-1.8-1.8-1.8l0,0
			c-1,0-1.8,0.8-1.8,1.8l0,0C170.7,257.5,171.5,258.3,172.5,258.3L172.5,258.3z"/>
		<path id="path5999" inkscape:connector-curvature="0" d="M113,263.6c-2.3,0-4.3-1.9-4.3-4.3c0-2.3,1.9-4.3,4.3-4.3
			c2.3,0,4.3,1.9,4.3,4.3C117.2,261.7,115.3,263.6,113,263.6z M113,261.2c1,0,1.8-0.8,1.8-1.8l0,0c0-1-0.8-1.8-1.8-1.8l0,0
			c-1,0-1.8,0.8-1.8,1.8l0,0C111.2,260.4,112,261.2,113,261.2L113,261.2z"/>
		<path id="path6001" inkscape:connector-curvature="0" d="M56.3,266.5c-2.3,0-4.3-1.9-4.3-4.3c0-2.3,1.9-4.3,4.3-4.3
			c2.3,0,4.3,1.9,4.3,4.3C60.5,264.6,58.6,266.5,56.3,266.5z M56.3,264c1,0,1.8-0.8,1.8-1.8l0,0c0-1-0.8-1.8-1.8-1.8l0,0
			c-1,0-1.8,0.8-1.8,1.8l0,0C54.5,263.2,55.3,264,56.3,264L56.3,264z"/>
		<path id="path17686-1" sodipodi:nodetypes="cc" inkscape:connector-curvature="0" class="st0" d="M377.7,270.7l-67.4,0.3"/>
		<path id="path17688-3" sodipodi:nodetypes="ccc" inkscape:connector-curvature="0" class="st0" d="M304.4,269.8l-22.2-7.1
			l-41.6-0.5"/>
		<path id="path17690-0" sodipodi:nodetypes="ccc" inkscape:connector-curvature="0" class="st0" d="M234.7,261.7l-33.2-5.6
			l-26.8,0.4"/>
		<path id="path17692-7" sodipodi:nodetypes="ccc" inkscape:connector-curvature="0" class="st0" d="M116.1,259.5l20.1-3.2h33.4"/>
		<path id="path8049" sodipodi:nodetypes="ccc" inkscape:connector-curvature="0" class="st0" d="M60.1,261.1l37.6-6.6L110,259"/>
		<rect id="rect8054" x="317.9" y="265.2" width="7.7" height="11.3"/>
		<g class="st2">
			<path class="st3" d="M322.3,272.3c0,0.3-0.2,0.5-0.5,0.5s-0.5-0.2-0.5-0.5v-3.4c0-0.3,0.2-0.5,0.5-0.5l0,0c0.1,0,0.3,0,0.4,0.1
				l0.6,0.2c0.2,0.1,0.3,0.2,0.3,0.4c0,0.2-0.2,0.4-0.4,0.4c0,0-0.1,0-0.2,0l-0.3-0.1v2.9H322.3L322.3,272.3z"/>
		</g>
	</g>
	<g id="g9385" transform="translate(-19.101525,-9.5395283)">
		<path id="path5979" inkscape:connector-curvature="0" d="M-25.4,480.5c2.3,0,4.3,1.9,4.3,4.3c0,2.3-1.9,4.3-4.3,4.3
			c-2.3,0-4.3-1.9-4.3-4.3C-29.6,482.4-27.7,480.5-25.4,480.5z M-25.4,482.9c-1,0-1.8,0.8-1.8,1.8l0,0c0,1,0.8,1.8,1.8,1.8l0,0
			c1,0,1.8-0.8,1.8-1.8l0,0C-23.6,483.7-24.4,482.9-25.4,482.9L-25.4,482.9z"/>
		<path id="path5981" inkscape:connector-curvature="0" d="M47.9,480.5c2.3,0,4.3,1.9,4.3,4.3c0,2.3-1.9,4.3-4.3,4.3
			c-2.3,0-4.3-1.9-4.3-4.3C43.7,482.4,45.6,480.5,47.9,480.5z M47.9,482.9c-1,0-1.8,0.8-1.8,1.8l0,0c0,1,0.8,1.8,1.8,1.8l0,0
			c1,0,1.8-0.8,1.8-1.8l0,0C49.7,483.7,48.9,482.9,47.9,482.9L47.9,482.9z"/>
		<path id="path5983" inkscape:connector-curvature="0" d="M113.1,489c2.3,0,4.3,1.9,4.3,4.3c0,2.3-1.9,4.3-4.3,4.3
			c-2.3,0-4.3-1.9-4.3-4.3C108.9,490.9,110.8,489,113.1,489z M113.1,491.4c-1,0-1.8,0.8-1.8,1.8l0,0c0,1,0.8,1.8,1.8,1.8l0,0
			c1,0,1.8-0.8,1.8-1.8l0,0C114.9,492.2,114.1,491.4,113.1,491.4L113.1,491.4z"/>
		<path id="path5985" inkscape:connector-curvature="0" d="M178.3,497.5c2.3,0,4.3,1.9,4.3,4.3c0,2.3-1.9,4.3-4.3,4.3
			c-2.3,0-4.3-1.9-4.3-4.3C174.1,499.4,176,497.5,178.3,497.5z M178.3,499.9c-1,0-1.8,0.8-1.8,1.8l0,0c0,1,0.8,1.8,1.8,1.8l0,0
			c1,0,1.8-0.8,1.8-1.8l0,0C180.1,500.7,179.3,499.9,178.3,499.9L178.3,499.9z"/>
		<path id="path5987" inkscape:connector-curvature="0" d="M240.7,494.6c2.3,0,4.3,1.9,4.3,4.3c0,2.3-1.9,4.3-4.3,4.3
			c-2.3,0-4.3-1.9-4.3-4.3S238.3,494.6,240.7,494.6z M240.7,497.1c-1,0-1.8,0.8-1.8,1.8l0,0c0,1,0.8,1.8,1.8,1.8l0,0
			c1,0,1.8-0.8,1.8-1.8l0,0C242.5,497.9,241.7,497.1,240.7,497.1L240.7,497.1z"/>
		<path id="path5989" inkscape:connector-curvature="0" d="M297.4,491.8c2.3,0,4.3,1.9,4.3,4.3c0,2.3-1.9,4.3-4.3,4.3
			c-2.3,0-4.3-1.9-4.3-4.3S295,491.8,297.4,491.8z M297.4,494.3c-1,0-1.8,0.8-1.8,1.8l0,0c0,1,0.8,1.8,1.8,1.8l0,0
			c1,0,1.8-0.8,1.8-1.8l0,0C299.3,495.1,298.4,494.3,297.4,494.3L297.4,494.3z"/>
		<path id="path17736-6" sodipodi:nodetypes="cc" inkscape:connector-curvature="0" class="st4" d="M-21.7,485l67.2-0.2"/>
		<path id="path17738-9" sodipodi:nodetypes="ccc" inkscape:connector-curvature="0" class="st4" d="M51,485.2l21.6,8H111"/>
		<path id="path17740-9" sodipodi:nodetypes="ccc" inkscape:connector-curvature="0" class="st4" d="M116,493.2l33.7,8l26.1,0.5"/>
		<path id="path17742-3" sodipodi:nodetypes="ccc" inkscape:connector-curvature="0" class="st4" d="M237.5,499.2l-21.1,2.5
			l-35.6,0.2"/>
		<rect id="rect8056" x="30.1" y="479.4" width="7.7" height="11.3"/>
		<path id="path8062" inkscape:connector-curvature="0" class="st4" d="M240.7,496v-25l16.2-12.3l29.1,0.8l11.5,12.9l-0.1,20.9"/>
		<g class="st2">
			<path class="st3" d="M32.2,483.5c0-0.3,0.2-0.4,0.5-0.4H35c0.2,0,0.4,0.2,0.4,0.4s-0.2,0.4-0.4,0.4h-1.5l0.7,0.5
				c0.7,0.6,1.1,0.9,1.1,1.6l0,0c0,0.8-0.6,1.3-1.4,1.3c-0.6,0-1-0.2-1.4-0.6c-0.1-0.1-0.1-0.2-0.1-0.3c0-0.2,0.2-0.4,0.4-0.4
				c0.1,0,0.3,0.1,0.3,0.1c0.2,0.3,0.4,0.4,0.7,0.4s0.6-0.2,0.6-0.5s-0.2-0.6-0.7-1l-1.2-1C32.3,483.8,32.2,483.7,32.2,483.5z"/>
		</g>
	</g>
	<g id="g8114" transform="matrix(0.99939083,-0.0348995,0.0348995,0.99939083,-170.2297,87.291901)">
		<path id="path5977" inkscape:connector-curvature="0" d="M61.3,343.9c-2.3,0-4.3-1.9-4.3-4.3c0-2.3,1.9-4.3,4.3-4.3
			c2.3,0,4.3,1.9,4.3,4.3S63.7,343.9,61.3,343.9z M61.3,341.4c1,0,1.8-0.8,1.8-1.8l0,0c0-1-0.8-1.8-1.8-1.8l0,0
			c-1,0-1.8,0.8-1.8,1.8l0,0C59.5,340.6,60.3,341.4,61.3,341.4L61.3,341.4z"/>
		<path id="path5975" inkscape:connector-curvature="0" d="M119.4,341c-2.3,0-4.3-1.9-4.3-4.3c0-2.3,1.9-4.3,4.3-4.3
			c2.3,0,4.3,1.9,4.3,4.3S121.8,341,119.4,341z M119.4,338.5c1,0,1.8-0.8,1.8-1.8l0,0c0-1-0.8-1.8-1.8-1.8l0,0c-1,0-1.8,0.8-1.8,1.8
			l0,0C117.6,337.7,118.4,338.5,119.4,338.5L119.4,338.5z"/>
		<path id="path5973" inkscape:connector-curvature="0" d="M178.9,338.2c-2.3,0-4.3-1.9-4.3-4.3c0-2.3,1.9-4.3,4.3-4.3
			c2.3,0,4.3,1.9,4.3,4.3C183.2,336.3,181.3,338.2,178.9,338.2z M178.9,335.7c1,0,1.8-0.8,1.8-1.8l0,0c0-1-0.8-1.8-1.8-1.8l0,0
			c-1,0-1.8,0.8-1.8,1.8l0,0C177.2,334.9,178,335.7,178.9,335.7L178.9,335.7z"/>
		<path id="path5971" inkscape:connector-curvature="0" d="M244.1,346.7c-2.3,0-4.3-1.9-4.3-4.3c0-2.3,1.9-4.3,4.3-4.3
			c2.3,0,4.3,1.9,4.3,4.3C248.4,344.8,246.5,346.7,244.1,346.7z M244.1,344.2c1,0,1.8-0.8,1.8-1.8l0,0c0-1-0.8-1.8-1.8-1.8l0,0
			c-1,0-1.8,0.8-1.8,1.8l0,0C242.4,343.4,243.2,344.2,244.1,344.2L244.1,344.2z"/>
		<path id="path5969" inkscape:connector-curvature="0" d="M309.3,358c-2.3,0-4.3-1.9-4.3-4.3c0-2.3,1.9-4.3,4.3-4.3
			c2.3,0,4.3,1.9,4.3,4.3S311.7,358,309.3,358z M309.3,355.6c1,0,1.8-0.8,1.8-1.8l0,0c0-1-0.8-1.8-1.8-1.8l0,0c-1,0-1.8,0.8-1.8,1.8
			l0,0C307.6,354.8,308.4,355.6,309.3,355.6L309.3,355.6z"/>
		<path id="path5967" inkscape:connector-curvature="0" d="M383.1,358.6c-2.3,0-4.3-1.9-4.3-4.3c0-2.3,1.9-4.3,4.3-4.3
			c2.3,0,4.3,1.9,4.3,4.3S385.4,358.6,383.1,358.6z M383.1,356.1c1,0,1.8-0.8,1.8-1.8l0,0c0-1-0.8-1.8-1.8-1.8l0,0
			c-1,0-1.8,0.8-1.8,1.8l0,0C381.3,355.3,382.1,356.1,383.1,356.1L383.1,356.1z"/>
		<path id="path17844-2" sodipodi:nodetypes="ccc" inkscape:connector-curvature="0" class="st0" d="M64.3,338.1l35.2-3.3l16.7,2.6"
			/>
		<path id="path17790-8" sodipodi:nodetypes="cc" inkscape:connector-curvature="0" class="st0" d="M379,354.3l-66.8-0.6"/>
		<path id="path17792-5" sodipodi:nodetypes="ccc" inkscape:connector-curvature="0" class="st0" d="M306.9,353.2l-20.8-11.1h-38.9"
			/>
		<path id="path17794-2" sodipodi:nodetypes="ccc" inkscape:connector-curvature="0" class="st0" d="M241,341.7l-35-8.2l-24.4,0.2"
			/>
		<path id="path17796-4" sodipodi:nodetypes="ccc" inkscape:connector-curvature="0" class="st0" d="M121.9,336.6l21.2-2.8l32.2,0.2
			"/>
		<rect id="rect8058" x="319" y="347.6" width="7.7" height="11.3"/>
		<g class="st2">
			<path class="st3" d="M322.8,355.3c-0.9,0-1.5-0.6-1.5-1.4l0,0c0-0.8,0.6-1.1,1.1-1.2l-0.8-0.8c-0.2-0.2-0.3-0.3-0.3-0.5
				c0-0.3,0.2-0.4,0.5-0.4h2c0.2,0,0.4,0.2,0.4,0.4c0,0.2-0.2,0.4-0.4,0.4h-1.3l0.8,0.8c0.1,0.1,0.2,0.3,0.2,0.4
				c0,0.2-0.2,0.4-0.4,0.4H323c-0.5,0-0.8,0.2-0.8,0.5l0,0c0,0.3,0.2,0.5,0.6,0.5c0.3,0,0.6-0.1,0.8-0.3c0.1-0.1,0.2-0.1,0.3-0.1
				c0.2,0,0.4,0.2,0.4,0.4c0,0.1-0.1,0.3-0.2,0.3C323.9,355.1,323.4,355.3,322.8,355.3z"/>
		</g>
	</g>
	<g id="g8130" transform="translate(-153.3905,22.221142)">
		<path id="path5965" inkscape:connector-curvature="0" d="M116.4,381.1c-2.3,0-4.3-1.9-4.3-4.3c0-2.3,1.9-4.3,4.3-4.3
			c2.3,0,4.3,1.9,4.3,4.3S118.8,381.1,116.4,381.1z M116.4,378.7c1,0,1.8-0.8,1.8-1.8l0,0c0-1-0.8-1.8-1.8-1.8l0,0
			c-1,0-1.8,0.8-1.8,1.8l0,0C114.7,377.9,115.5,378.7,116.4,378.7L116.4,378.7z"/>
		<path id="path5963" inkscape:connector-curvature="0" d="M176,378.3c-2.3,0-4.3-1.9-4.3-4.3c0-2.3,1.9-4.3,4.3-4.3
			c2.3,0,4.3,1.9,4.3,4.3C180.2,376.4,178.3,378.3,176,378.3z M176,375.8c1,0,1.8-0.8,1.8-1.8l0,0c0-1-0.8-1.8-1.8-1.8l0,0
			c-1,0-1.8,0.8-1.8,1.8l0,0C174.2,375,175,375.8,176,375.8L176,375.8z"/>
		<path id="path5961" inkscape:connector-curvature="0" d="M241.2,386.8c-2.3,0-4.3-1.9-4.3-4.3c0-2.3,1.9-4.3,4.3-4.3
			c2.3,0,4.3,1.9,4.3,4.3C245.4,384.9,243.5,386.8,241.2,386.8z M241.2,384.3c1,0,1.8-0.8,1.8-1.8l0,0c0-1-0.8-1.8-1.8-1.8l0,0
			c-1,0-1.8,0.8-1.8,1.8l0,0C239.4,383.5,240.2,384.3,241.2,384.3L241.2,384.3z"/>
		<path id="path5959" inkscape:connector-curvature="0" d="M306.4,398.2c-2.3,0-4.3-1.9-4.3-4.3c0-2.3,1.9-4.3,4.3-4.3
			c2.3,0,4.3,1.9,4.3,4.3C310.6,396.3,308.7,398.2,306.4,398.2z M306.4,395.7c1,0,1.8-0.8,1.8-1.8l0,0c0-1-0.8-1.8-1.8-1.8l0,0
			c-1,0-1.8,0.8-1.8,1.8l0,0C304.6,394.9,305.4,395.7,306.4,395.7L306.4,395.7z"/>
		<path id="path5957" inkscape:connector-curvature="0" d="M366.8,398.2c-2.3,0-4.3-1.9-4.3-4.3c0-2.3,1.9-4.3,4.3-4.3
			c2.3,0,4.3,1.9,4.3,4.3S369.3,398.2,366.8,398.2z M366.8,395.7c1,0,1.8-0.8,1.8-1.8l0,0c0-1-0.8-1.8-1.8-1.8l0,0
			c-1,0-1.8,0.8-1.8,1.8l0,0C365.1,394.9,365.9,395.7,366.8,395.7L366.8,395.7z"/>
		<path id="path17850-7" sodipodi:nodetypes="cc" inkscape:connector-curvature="0" class="st0" d="M364.1,394.1l-56-0.4"/>
		<path id="path17852-2" sodipodi:nodetypes="ccc" inkscape:connector-curvature="0" class="st0" d="M303.3,393.3l-19.3-10
			l-40.1-0.8"/>
		<path id="path17854-1" sodipodi:nodetypes="ccc" inkscape:connector-curvature="0" class="st0" d="M239,381.8l-35.3-7.3l-25.2-1"
			/>
		<path id="path17856-7" sodipodi:nodetypes="ccc" inkscape:connector-curvature="0" class="st0" d="M120,376.4l23.8-2.4l29.3,0.1"
			/>
		<rect id="rect8060" x="316.1" y="388.1" width="7.7" height="11.3"/>
		<g class="st2">
			<path class="st3" d="M319.7,395.3c0,0.2-0.2,0.4-0.4,0.4s-0.4-0.2-0.4-0.4v-0.5h-0.2c-0.2,0-0.4-0.2-0.4-0.4s0.2-0.4,0.4-0.4h0.2
				v-2.2c0-0.2,0.2-0.4,0.4-0.4c0.3,0,0.4,0.1,0.6,0.3l1.8,2.1c0.1,0.2,0.2,0.3,0.2,0.5s-0.2,0.4-0.4,0.4h-1.7v0.6H319.7z
				 M320.8,394l-1.1-1.3v1.3H320.8z"/>
		</g>
	</g>
	<g id="g9304" transform="translate(-72.067459,-151.97069)">
		<circle id="circle7928-7" cx="164.1" cy="314.8" r="3.2"/>
		<circle id="circle7930-0" cx="225" cy="314.8" r="3.2"/>
		<path id="path7932-8" sodipodi:nodetypes="cccc" inkscape:connector-curvature="0" class="st5" d="M-18.9,332.2
			c8.8-0.3,17.8-13.3,29.5-16.1l63.3-12l22.6-0.5"/>
		<path id="path7934-8" sodipodi:nodetypes="cccccc" inkscape:connector-curvature="0" class="st5" d="M-19.2,339.6
			c10.3-0.2,19.8-17.4,34-19.1l60.1-11l57.2-0.7l12.8,2.2l18.8,2.8"/>
		<path id="path7936-7" sodipodi:nodetypes="ccccccc" inkscape:connector-curvature="0" class="st5" d="M-19.2,346.5
			c8.6,0.3,23.6-19.5,34.4-21.3L73.3,314l57.8-0.9c24.5,4.5,9.8,5.4,34.9,8.1l14.1-4.4l43.3-1.2"/>
		<rect id="rect7956-4" x="94.2" y="300.2" width="6.5" height="6.5"/>
		<rect id="rect7958-0" x="160.9" y="311.6" width="6.5" height="6.5"/>
		<rect id="rect7960-7" x="221.8" y="311.6" width="6.5" height="6.5"/>
		<path id="path7982-3" inkscape:connector-curvature="0" d="M-18.9,332.2c0-1.8-1.5-3.2-3.2-3.2c-1.8,0-3.2,1.5-3.2,3.2
			c0,1.8,1.5,3.2,3.2,3.2C-20.4,335.4-18.9,334-18.9,332.2z M-20.8,332.2c0,0.7-0.6,1.4-1.4,1.4l0,0c-0.7,0-1.4-0.6-1.4-1.4l0,0
			c0-0.7,0.6-1.4,1.3-1.4l0,0C-21.4,330.8-20.8,331.4-20.8,332.2L-20.8,332.2z"/>
		<path id="path7984-5" inkscape:connector-curvature="0" d="M-18.9,339.4c0-1.8-1.5-3.2-3.2-3.2c-1.8,0-3.2,1.5-3.2,3.2
			c0,1.8,1.5,3.2,3.2,3.2S-18.9,341.2-18.9,339.4z M-20.8,339.4c0,0.7-0.6,1.4-1.4,1.4l0,0c-0.7,0-1.4-0.6-1.4-1.4l0,0
			c0-0.7,0.6-1.4,1.3-1.4l0,0C-21.4,338-20.8,338.6-20.8,339.4L-20.8,339.4z"/>
		<path id="path7986-0" inkscape:connector-curvature="0" d="M-18.9,346.6c0-1.8-1.5-3.2-3.2-3.2c-1.8,0-3.2,1.5-3.2,3.2
			c0,1.8,1.5,3.2,3.2,3.2S-18.9,348.4-18.9,346.6z M-20.8,346.6c0,0.7-0.6,1.4-1.4,1.4l0,0c-0.7,0-1.4-0.6-1.4-1.3l0,0
			c0-0.7,0.6-1.4,1.3-1.4l0,0C-21.4,345.2-20.8,345.8-20.8,346.6L-20.8,346.6z"/>
	</g>
	<g id="g9365" transform="translate(76.52649,46.989847)">
		<path id="path11924" inkscape:connector-curvature="0" d="M-99.3,195.9c0-1.8-1.5-3.2-3.2-3.2c-1.8,0-3.2,1.5-3.2,3.2
			c0,1.8,1.5,3.2,3.2,3.2C-100.7,199.1-99.3,197.7-99.3,195.9z M-101.1,195.9c0,0.7-0.6,1.4-1.4,1.4l0,0c-0.7,0-1.4-0.6-1.4-1.4l0,0
			c0-0.7,0.6-1.4,1.3-1.4l0,0C-101.8,194.5-101.1,195.1-101.1,195.9L-101.1,195.9z"/>
		<path id="path11926" inkscape:connector-curvature="0" d="M-99.3,203.1c0-1.8-1.5-3.2-3.2-3.2c-1.8,0-3.2,1.5-3.2,3.2
			c0,1.8,1.5,3.2,3.2,3.2C-100.7,206.3-99.3,204.9-99.3,203.1z M-101.1,203.1c0,0.7-0.6,1.4-1.4,1.4l0,0c-0.7,0-1.4-0.6-1.4-1.4l0,0
			c0-0.7,0.6-1.4,1.3-1.4l0,0C-101.8,201.7-101.1,202.3-101.1,203.1L-101.1,203.1z"/>
		<path id="path11928" inkscape:connector-curvature="0" d="M-99.3,210.3c0-1.8-1.5-3.2-3.2-3.2c-1.8,0-3.2,1.5-3.2,3.2
			c0,1.8,1.5,3.2,3.2,3.2C-100.7,213.5-99.3,212.1-99.3,210.3z M-101.1,210.3c0,0.7-0.6,1.4-1.4,1.4l0,0c-0.7,0-1.4-0.6-1.4-1.4l0,0
			c0-0.7,0.6-1.4,1.3-1.4l0,0C-101.8,208.9-101.1,209.5-101.1,210.3L-101.1,210.3z"/>
		<path id="path11930" inkscape:connector-curvature="0" d="M-99.3,217.5c0-1.8-1.5-3.2-3.2-3.2c-1.8,0-3.2,1.5-3.2,3.2
			c0,1.8,1.5,3.2,3.2,3.2C-100.7,220.7-99.3,219.3-99.3,217.5z M-101.1,217.5c0,0.7-0.6,1.4-1.4,1.4l0,0c-0.7,0-1.4-0.6-1.4-1.4l0,0
			c0-0.7,0.6-1.4,1.3-1.4l0,0C-101.8,216.1-101.1,216.7-101.1,217.5L-101.1,217.5z"/>
		<path id="path11932" inkscape:connector-curvature="0" d="M-99.3,224.7c0-1.8-1.5-3.2-3.2-3.2c-1.8,0-3.2,1.5-3.2,3.2
			c0,1.8,1.5,3.2,3.2,3.2C-100.7,227.9-99.3,226.5-99.3,224.7z M-101.1,224.7c0,0.7-0.6,1.4-1.4,1.4l0,0c-0.7,0-1.4-0.6-1.4-1.4l0,0
			c0-0.7,0.6-1.4,1.3-1.4l0,0C-101.8,223.3-101.1,223.9-101.1,224.7L-101.1,224.7z"/>
		<path id="path11934" inkscape:connector-curvature="0" d="M-99.3,231.9c0-1.8-1.5-3.2-3.2-3.2c-1.8,0-3.2,1.5-3.2,3.2
			c0,1.8,1.5,3.2,3.2,3.2C-100.7,235.1-99.3,233.7-99.3,231.9z M-101.1,231.9c0,0.7-0.6,1.4-1.4,1.4l0,0c-0.7,0-1.4-0.6-1.4-1.4l0,0
			c0-0.7,0.6-1.4,1.3-1.4l0,0C-101.8,230.5-101.1,231.1-101.1,231.9L-101.1,231.9z"/>
		<rect id="rect11936" x="-194.7" y="107.3" width="8.5" height="8.5"/>
		<rect id="rect11938" x="-194.7" y="373.1" width="8.5" height="8.5"/>
		<rect id="rect11940" x="-194.7" y="172.3" width="8.5" height="8.5"/>
		<rect id="rect11942" x="-194.7" y="237.4" width="8.5" height="8.5"/>
		<rect id="rect11946" x="-179.2" y="338" width="8.5" height="18.2"/>
		<path id="path11948" sodipodi:nodetypes="cc" inkscape:connector-curvature="0" class="st6" d="M-104.5,209.7
			c-76.4,1.3-78.4-2.1-85.7,30.7"/>
		<path id="path11950" sodipodi:nodetypes="cc" inkscape:connector-curvature="0" class="st6" d="M-104.9,216.8
			c-87.8,0.8-73.6-13.2-83.7,89.9"/>
		<path id="path11952" sodipodi:nodetypes="cc" inkscape:connector-curvature="0" class="st6" d="M-104.7,224.5
			c-91.9,1.6-63.4-19.6-83,149.5"/>
		<path id="path11954" sodipodi:nodetypes="cc" inkscape:connector-curvature="0" class="st6" d="M-104.7,232.4
			c-73.1,0.4-62.6-20.8-71.7,106.9"/>
		<path id="path11956" sodipodi:nodetypes="cc" inkscape:connector-curvature="0" class="st6" d="M-104.8,203.2
			c-70-0.5-81.9,5.1-85.4-23.4"/>
		<path id="path11958" sodipodi:nodetypes="csc" inkscape:connector-curvature="0" class="st6" d="M-105.3,196.4
			c-78.5-2.6-78.7,13.8-77.2-45.7c0.9-35.5-2.2-33.2-4.8-38.4"/>
		<rect id="rect11944" x="-194.7" y="302.4" width="8.5" height="8.5"/>
	</g>
	<g id="g9353" transform="translate(-72.209544,-242.50552)">
		<g id="g9017" transform="translate(-35.714286,-65.714286)">
			
				<rect id="rect9336" x="-4.8" y="422.5" transform="matrix(0.9962 -8.715347e-02 8.715347e-02 0.9962 -36.9756 1.6337)" width="10.1" height="3.6"/>
			
				<rect id="rect9338" x="-5.3" y="415.4" transform="matrix(0.9962 -8.715347e-02 8.715347e-02 0.9962 -36.3588 1.5633)" width="10.1" height="3.6"/>
			
				<rect id="rect9340" x="-6" y="408.2" transform="matrix(0.9962 -8.715347e-02 8.715347e-02 0.9962 -35.7338 1.4747)" width="10.1" height="3.6"/>
			<rect id="rect9346" x="197.1" y="450.1" width="9.2" height="9.2"/>
			<rect id="rect9348" x="137.6" y="438.8" width="9.2" height="9.2"/>
			<rect id="rect9350" x="79.5" y="430.3" width="9.2" height="9.2"/>
			<path id="path9358" sodipodi:nodetypes="csc" inkscape:connector-curvature="0" class="st7" d="M1.9,409.7
				c16.5-0.4,14.8,29,27.5,29.9c18.2,1.3,36.6-0.1,55.2-1.9"/>
			<path id="path9362" sodipodi:nodetypes="csc" inkscape:connector-curvature="0" class="st7" d="M2.5,416.8
				c11.5-2,11.6,27.2,24.2,27.3c10.4,0,105.5,5.4,115.9,2.9"/>
			<path id="path9364" sodipodi:nodetypes="ccc" inkscape:connector-curvature="0" class="st7" d="M3.2,424
				c11.8,1.4,5.4,23.4,24.3,24.7c67.9,3.4,156,4.6,172.6,5.8"/>
		</g>
	</g>
	<g id="g9028" transform="translate(-58.045326,-271.53231)">
		
			<rect id="rect9342" x="-16.6" y="393.7" transform="matrix(0.9962 -8.715347e-02 8.715347e-02 0.9962 -34.5105 0.4957)" width="10.1" height="3.6"/>
		
			<rect id="rect9344" x="-17.3" y="386.6" transform="matrix(0.9962 -8.715347e-02 8.715347e-02 0.9962 -33.894 0.4091)" width="10.1" height="3.6"/>
		<rect id="rect9352" x="12.1" y="378.5" width="9.2" height="9.2"/>
		<path id="path9356" sodipodi:nodetypes="cc" inkscape:connector-curvature="0" class="st7" d="M-7.1,394.9
			c11.6-1.4,9.7-12.6,21-13.9"/>
		<path id="path9360" sodipodi:nodetypes="cc" inkscape:connector-curvature="0" class="st7" d="M-7.7,387.8
			c11.4-0.4,2.3-19.9,54.6-13.1"/>
		<polygon id="rect9381" points="45.3,370.5 71.3,369 69.8,378.3 43.8,379.8 		"/>
	</g>
	<g id="g8670" transform="translate(382.85715,-969.8571)">
		<path id="path8318" sodipodi:nodetypes="ccccccccccccc" inkscape:connector-curvature="0" d="M-395.5,1140.6l67.1,1.8l30.5,28.4
			l37.1,0.4l0.7,85.2l-10.7,11.7l-14.7,10.7l-58.1-0.7l-14.3,13.9l-20.8,14.5l-17.3,0.2v-140.6L-395.5,1140.6z"/>
		<rect id="rect8320" x="-287.7" y="1249.3" class="st3" width="4.5" height="4.7"/>
		<rect id="rect8322" x="-343.7" y="1249.3" class="st3" width="4.5" height="4.7"/>
		<polygon id="rect8324" class="st3" points="-335.5,1249.2 -330.3,1249.1 -332.2,1251.9 -335.4,1252.8 		"/>
		<rect id="rect8326" x="-350.3" y="1249.8" class="st3" width="11.9" height="3.7"/>
		<rect id="rect8328" x="-384.4" y="1279.2" class="st3" width="4.5" height="4.7"/>
		<polygon id="rect8330" class="st3" points="-375.4,1279.2 -371,1279.2 -370.6,1283.9 -375.4,1283.9 		"/>
		<circle id="circle8332" class="st3" cx="-343.7" cy="1269.7" r="5.8"/>
		<circle id="circle8334" class="st3" cx="-350.9" cy="1251.7" r="5.8"/>
		<circle id="circle8336" class="st3" cx="-286.7" cy="1269.7" r="5.8"/>
		<circle id="circle8338" class="st3" cx="-293.9" cy="1251.7" r="5.8"/>
		<circle id="circle8340" class="st3" cx="-391.3" cy="1214.8" r="5.8"/>
		<circle id="circle8342" class="st3" cx="-384.1" cy="1232.8" r="5.8"/>
		<circle id="circle8344" class="st3" cx="-391.3" cy="1281.4" r="5.8"/>
		<circle id="circle8346" class="st3" cx="-384.1" cy="1299.4" r="5.8"/>
		<rect id="rect8348" x="-378.2" y="1229.9" class="st3" width="4.5" height="4.7"/>
		<rect id="rect8350" x="-369.5" y="1230.1" class="st3" width="4.5" height="4.7"/>
		<rect id="rect8352" x="-384.7" y="1230.5" class="st3" width="11.9" height="3.7"/>
		<path id="path8666" inkscape:connector-curvature="0" d="M-388.4,1232.8c0,2.3,1.9,4.3,4.3,4.3c2.3,0,4.3-1.9,4.3-4.3
			c0-2.3-1.9-4.3-4.3-4.3S-388.4,1230.4-388.4,1232.8z M-385.9,1232.8c0-1,0.8-1.8,1.8-1.8l0,0c1,0,1.8,0.8,1.8,1.8l0,0
			c0,1-0.8,1.8-1.8,1.8l0,0C-385.1,1234.5-385.9,1233.7-385.9,1232.8L-385.9,1232.8z"/>
		<rect id="rect8354" x="-390.9" y="1279.7" class="st3" width="11.9" height="3.7"/>
		<rect id="rect8358" x="-294.3" y="1249.8" class="st3" width="11.9" height="3.7"/>
		<rect id="rect8360" x="-273.3" y="1242.6" class="st3" width="17.7" height="6.3"/>
		<rect id="rect8362" x="-273.7" y="1235.4" class="st3" width="17.7" height="6.3"/>
		<rect id="rect8364" x="-273.7" y="1228.2" class="st3" width="17.7" height="6.3"/>
		<rect id="rect8366" x="-273.7" y="1221" class="st3" width="17.7" height="6.3"/>
		<rect id="rect8368" x="-274.9" y="1212.9" class="st3" width="18.9" height="37"/>
		<polygon id="rect8372" class="st3" points="-375.7,1145.7 -370.9,1145.7 -370.6,1151.5 -375.7,1151.5 		"/>
		<circle id="circle8376" class="st3" cx="-350.9" cy="1151.7" r="5.8"/>
		<polygon id="rect8378" class="st3" points="-336.6,1149.2 -331.9,1149.2 -331.6,1154.7 -336.6,1154.5 		"/>
		<path id="path8380" sodipodi:nodetypes="cccc" inkscape:connector-curvature="0" class="st8" d="M-383.6,1299.8l22.6-13.9l17.3-16
			h56.6"/>
		<path id="path8384" sodipodi:nodetypes="ccccc" inkscape:connector-curvature="0" class="st8" d="M-373,1281.7l17.6-19.4l82.6,0.1
			l4.6-8.8v-8.2"/>
		<path id="path8388" sodipodi:nodetypes="cccccc" inkscape:connector-curvature="0" class="st8" d="M-332.9,1251l5.2,7.4l52.3-0.2
			l2.8-5.1l0.6-12.3l3.4-2.7"/>
		<path id="path8390" sodipodi:nodetypes="ccc" inkscape:connector-curvature="0" class="st8" d="M-276.6,1254.5l0.1-16.9l8.6-6.7"
			/>
		<path id="path8658" inkscape:connector-curvature="0" d="M-348,1269.7c0,2.3,1.9,4.3,4.3,4.3c2.3,0,4.3-1.9,4.3-4.3
			c0-2.3-1.9-4.3-4.3-4.3S-348,1267.3-348,1269.7z M-345.5,1269.7c0-1,0.8-1.8,1.8-1.8l0,0c1,0,1.8,0.8,1.8,1.8l0,0
			c0,1-0.8,1.8-1.8,1.8l0,0C-344.7,1271.4-345.5,1270.6-345.5,1269.7L-345.5,1269.7z"/>
		<path id="path8394" sodipodi:nodetypes="ccc" inkscape:connector-curvature="0" class="st8" d="M-367.1,1232.4l88.7-0.8l10.2-7.9"
			/>
		<path id="path8660" inkscape:connector-curvature="0" d="M-355.2,1251.7c0,2.3,1.9,4.3,4.3,4.3c2.3,0,4.3-1.9,4.3-4.3
			c0-2.3-1.9-4.3-4.3-4.3S-355.2,1249.3-355.2,1251.7z M-352.7,1251.7c0-1,0.8-1.8,1.8-1.8l0,0c1,0,1.8,0.8,1.8,1.8l0,0
			c0,1-0.8,1.8-1.8,1.8l0,0C-351.9,1253.4-352.7,1252.6-352.7,1251.7L-352.7,1251.7z"/>
		<path id="path8398" sodipodi:nodetypes="ccc" inkscape:connector-curvature="0" class="st8" d="M-372.4,1148.5l34.3,16.7
			l51.1,37.8"/>
		<polygon id="rect8400" class="st3" points="-340.2,1153.6 -352.1,1152.7 -352.1,1149 -340.2,1149.9 		"/>
		<path id="path8656" inkscape:connector-curvature="0" d="M-290.9,1269.7c0,2.3,1.9,4.3,4.3,4.3c2.3,0,4.3-1.9,4.3-4.3
			c0-2.3-1.9-4.3-4.3-4.3S-290.9,1267.3-290.9,1269.7z M-288.5,1269.7c0-1,0.8-1.8,1.8-1.8l0,0c1,0,1.8,0.8,1.8,1.8l0,0
			c0,1-0.8,1.8-1.8,1.8l0,0C-287.7,1271.4-288.5,1270.6-288.5,1269.7L-288.5,1269.7z"/>
		<path id="path8648" inkscape:connector-curvature="0" d="M-298.1,1251.7c0,2.3,1.9,4.3,4.3,4.3c2.3,0,4.3-1.9,4.3-4.3
			c0-2.3-1.9-4.3-4.3-4.3S-298.1,1249.3-298.1,1251.7z M-295.7,1251.7c0-1,0.8-1.8,1.8-1.8l0,0c1,0,1.8,0.8,1.8,1.8l0,0
			c0,1-0.8,1.8-1.8,1.8l0,0C-294.9,1253.4-295.7,1252.6-295.7,1251.7L-295.7,1251.7z"/>
		<path id="path8406" sodipodi:nodetypes="ccc" inkscape:connector-curvature="0" class="st8" d="M-343.7,1169.7l55.9,47.5h30.9"/>
		<circle id="circle8410" class="st3" cx="-343.7" cy="1169.7" r="5.8"/>
		<path id="path8412_1_" sodipodi:nodetypes="cccc" inkscape:connector-curvature="0" class="st9" d="M-341,1269.7l51.8,0.2"/>
		<path id="path8412" sodipodi:nodetypes="cccc" inkscape:connector-curvature="0" class="st9" d="M-381.2,1298.3l20.4-12.7
			l15.3-13.8"/>
		<g id="g8414" transform="translate(-449.5252,680.66574)">
			<rect id="rect8416" x="72.2" y="550.3" width="2.6" height="2.7"/>
			<rect id="rect8418" x="81.1" y="550.3" width="2.6" height="2.7"/>
		</g>
		<rect id="rect8420" x="-382.3" y="1231.3" width="6.8" height="2.1"/>
		<rect id="rect8422" x="-383.4" y="1280.2" width="2.6" height="2.7"/>
		<rect id="rect8424" x="-374.5" y="1280.2" width="2.6" height="2.7"/>
		<rect id="rect8426" x="-388.3" y="1280.5" width="6.8" height="2.1"/>
		<rect id="rect8428" x="-342.7" y="1250.3" width="2.6" height="2.7"/>
		<rect id="rect8430" x="-333.9" y="1250.3" width="2.6" height="2.7"/>
		<rect id="rect8432" x="-347.7" y="1250.6" width="6.8" height="2.1"/>
		<rect id="rect8434" x="-286.7" y="1250.3" width="2.6" height="2.7"/>
		<rect id="rect8436" x="-277.9" y="1250.3" width="2.6" height="2.7"/>
		<rect id="rect8438" x="-291.7" y="1250.6" width="6.8" height="2.1"/>
		<rect id="rect8444" x="-374.5" y="1147.1" width="2.6" height="2.7"/>
		<rect id="rect8374" x="-390.9" y="1146.6" class="st3" width="11.9" height="3.7"/>
		<rect id="rect8440" x="-384.4" y="1146.1" class="st3" width="4.5" height="4.7"/>
		<circle id="circle8370" class="st3" cx="-391.3" cy="1148.1" r="5.8"/>
		<rect id="rect8446" x="-388.3" y="1147.3" width="6.8" height="2.1"/>
		<rect id="rect8448" x="-345.6" y="1149.4" class="st3" width="4.5" height="4.7"/>
		<rect id="rect8450" x="-344.6" y="1150.4" width="2.6" height="2.7"/>
		<rect id="rect8452" x="-348.4" y="1150.7" width="5.6" height="2.1"/>
		<path id="path8454" sodipodi:nodetypes="ccccc" inkscape:connector-curvature="0" class="st9" d="M-373,1281.7l17.6-19.4l82.6,0.1
			l4.6-8.8v-8.2"/>
		<path id="path8456" sodipodi:nodetypes="cccccc" inkscape:connector-curvature="0" class="st9" d="M-332.7,1251.4l4.9,6.9
			l52.5-0.1l2.8-5.1v-12l3.9-3.1"/>
		<path id="path8458" sodipodi:nodetypes="ccc" inkscape:connector-curvature="0" class="st9" d="M-276.6,1251.1v-13.7l8.8-6.7"/>
		<path id="path8460" sodipodi:nodetypes="ccc" inkscape:connector-curvature="0" class="st9" d="M-367.1,1232.4l88.2-0.4l10.5-8.1"
			/>
		<path id="path8462" sodipodi:nodetypes="ccc" inkscape:connector-curvature="0" class="st9" d="M-342.4,1170.9l54.6,46.4l19.7-0.3
			"/>
		<rect id="rect8464" x="-291.5" y="1199.8" class="st3" width="17.7" height="6.3"/>
		<rect id="rect8466" x="-287.7" y="1201.2" width="10.1" height="3.6"/>
		<rect id="rect8468" x="-269.4" y="1244" width="9.6" height="3.6"/>
		<rect id="rect8470" x="-269.4" y="1236.7" width="9.6" height="3.6"/>
		<rect id="rect8472" x="-269.4" y="1229.5" width="9.6" height="3.6"/>
		<rect id="rect8474" x="-269.4" y="1222.3" width="9.6" height="3.6"/>
		<rect id="rect8476" x="-269.4" y="1215.1" width="9.6" height="3.6"/>
		<path id="path8650" inkscape:connector-curvature="0" d="M-355.2,1151.7c0,2.3,1.9,4.3,4.3,4.3c2.3,0,4.3-1.9,4.3-4.3
			c0-2.3-1.9-4.3-4.3-4.3C-353.3,1147.5-355.2,1149.4-355.2,1151.7z M-352.7,1151.7c0-1,0.8-1.8,1.8-1.8l0,0c1,0,1.8,0.8,1.8,1.8
			l0,0c0,1-0.8,1.8-1.8,1.8l0,0C-351.9,1153.5-352.7,1152.7-352.7,1151.7L-352.7,1151.7z"/>
		<path id="path8480" sodipodi:nodetypes="ccc" inkscape:connector-curvature="0" class="st9" d="M-373.2,1148.4l34.5,16.3l52,38.3"
			/>
		<path id="path8482" sodipodi:nodetypes="ccc" inkscape:connector-curvature="0" class="st8" d="M-333.7,1151.8l33.7,24l39.3,0.6"
			/>
		<path id="path8484" sodipodi:nodetypes="ccc" inkscape:connector-curvature="0" class="st9" d="M-333.7,1151.8l33.7,24l39.3,0.6"
			/>
		<rect id="rect8486" x="-335.7" y="1150.4" width="2.6" height="2.7"/>
		<path id="path8488_1_" sodipodi:nodetypes="cccccccc" inkscape:connector-curvature="0" class="st8" d="M-380.7,1166.4l34.2,2.9"
			/>
		<path id="path8488" sodipodi:nodetypes="cccccccc" inkscape:connector-curvature="0" class="st8" d="M-384.4,1300.1l-12.9-15.9
			l1.3-14.2l13.2-15.9l-10.5-15.1l2.3-24.2l6.1-48.4"/>
		<circle id="circle8386" class="st3" cx="-384.1" cy="1166.1" r="5.8"/>
		<path id="path8490_1_" sodipodi:nodetypes="ccccccccc" inkscape:connector-curvature="0" class="st9" d="M-380.7,1166.4l34.2,2.9"
			/>
		<path id="path8490_3_" sodipodi:nodetypes="ccccccccc" inkscape:connector-curvature="0" class="st9" d="M-390.5,1211.4l2.6-20.4
			l2.9-22.5"/>
		<path id="path8490_2_" sodipodi:nodetypes="ccccccccc" inkscape:connector-curvature="0" class="st9" d="M-386.5,1297.5
			l-10.7-13.3l0.3-14.2l14.2-15.9l-10.5-15.1l1.9-21.2"/>
		<path id="path8654" inkscape:connector-curvature="0" d="M-388.4,1166.1c0,2.3,1.9,4.3,4.3,4.3c2.3,0,4.3-1.9,4.3-4.3
			c0-2.3-1.9-4.3-4.3-4.3C-386.5,1161.9-388.4,1163.8-388.4,1166.1z M-385.9,1166.1c0-1,0.8-1.8,1.8-1.8l0,0c1,0,1.8,0.8,1.8,1.8
			l0,0c0,1-0.8,1.8-1.8,1.8l0,0C-385.1,1167.9-385.9,1167.1-385.9,1166.1L-385.9,1166.1z"/>
		<path id="path8652" inkscape:connector-curvature="0" d="M-348,1169.7c0,2.3,1.9,4.3,4.3,4.3c2.3,0,4.3-1.9,4.3-4.3
			c0-2.3-1.9-4.3-4.3-4.3C-346.1,1165.5-348,1167.4-348,1169.7z M-345.5,1169.7c0-1,0.8-1.8,1.8-1.8l0,0c1,0,1.8,0.8,1.8,1.8l0,0
			c0,1-0.8,1.8-1.8,1.8l0,0C-344.7,1171.5-345.5,1170.7-345.5,1169.7L-345.5,1169.7z"/>
		<path id="path8668" inkscape:connector-curvature="0" d="M-395.6,1214.8c0,2.3,1.9,4.3,4.3,4.3c2.3,0,4.3-1.9,4.3-4.3
			c0-2.3-1.9-4.3-4.3-4.3S-395.6,1212.4-395.6,1214.8z M-393.1,1214.8c0-1,0.8-1.8,1.8-1.8l0,0c1,0,1.8,0.8,1.8,1.8l0,0
			c0,1-0.8,1.8-1.8,1.8l0,0C-392.3,1216.5-393.1,1215.7-393.1,1214.8L-393.1,1214.8z"/>
		<path id="path8664" inkscape:connector-curvature="0" d="M-395.6,1281.4c0,2.3,1.9,4.3,4.3,4.3c2.3,0,4.3-1.9,4.3-4.3
			c0-2.3-1.9-4.3-4.3-4.3S-395.6,1279-395.6,1281.4z M-393.1,1281.4c0-1,0.8-1.8,1.8-1.8l0,0c1,0,1.8,0.8,1.8,1.8l0,0
			c0,1-0.8,1.8-1.8,1.8l0,0C-392.3,1283.1-393.1,1282.3-393.1,1281.4L-393.1,1281.4z"/>
		<path id="path8662" inkscape:connector-curvature="0" d="M-388.4,1299.4c0,2.3,1.9,4.3,4.3,4.3c2.3,0,4.3-1.9,4.3-4.3
			c0-2.3-1.9-4.3-4.3-4.3S-388.4,1297-388.4,1299.4z M-385.9,1299.4c0-1,0.8-1.8,1.8-1.8l0,0c1,0,1.8,0.8,1.8,1.8l0,0
			c0,1-0.8,1.8-1.8,1.8l0,0C-385.1,1301.1-385.9,1300.3-385.9,1299.4L-385.9,1299.4z"/>
		<rect id="rect8442" x="-383.4" y="1147.1" width="2.6" height="2.7"/>
		<path id="path8594" inkscape:connector-curvature="0" d="M-395.6,1148.1c0,2.3,1.9,4.3,4.3,4.3c2.3,0,4.3-1.9,4.3-4.3
			c0-2.3-1.9-4.3-4.3-4.3C-393.7,1143.9-395.6,1145.8-395.6,1148.1z M-393.1,1148.1c0-1,0.8-1.8,1.8-1.8l0,0c1,0,1.8,0.8,1.8,1.8
			l0,0c0,1-0.8,1.8-1.8,1.8l0,0C-392.3,1149.9-393.1,1149.1-393.1,1148.1L-393.1,1148.1z"/>
	</g>
	<g id="g9605" transform="matrix(0,1,-1,0,807.44152,-341.33669)">
		<g id="g8998" transform="matrix(0,1,-1,0,1060.909,-47.714311)">
			<rect id="rect9000" x="633.9" y="337.6" width="13.6" height="292.2"/>
			<circle id="circle9002" class="st3" cx="642.2" cy="542.1" r="6.4"/>
			<rect id="rect9004" x="639" y="521" class="st3" width="6.4" height="16"/>
			<circle id="circle9006" class="st3" cx="642.2" cy="606.7" r="6.4"/>
			<rect id="rect9008" x="639" y="586.4" class="st3" width="6.4" height="15.2"/>
			<circle id="circle9010" class="st3" cx="642.2" cy="476.9" r="6.4"/>
			<rect id="rect9012" x="639" y="456" class="st3" width="6.4" height="15.7"/>
			<circle id="circle9014" class="st3" cx="642.2" cy="411.8" r="6.4"/>
			<rect id="rect9016" x="639" y="417" class="st3" width="6.4" height="16"/>
			<circle id="circle9018" class="st3" cx="642.2" cy="346.5" r="6.4"/>
			<path id="path9020" inkscape:connector-curvature="0" d="M642.2,407.4c2.3,0,4.3,1.9,4.3,4.3c0,2.3-1.9,4.3-4.3,4.3
				c-2.3,0-4.3-1.9-4.3-4.3S639.7,407.4,642.2,407.4z M642.2,409.9c-1,0-1.8,0.8-1.8,1.8l0,0c0,1,0.8,1.8,1.8,1.8l0,0
				c1,0,1.8-0.8,1.8-1.8l0,0C643.9,410.7,643,409.9,642.2,409.9L642.2,409.9z"/>
			<rect id="rect9022" x="641" y="415.8" width="2.1" height="8"/>
			<path id="path9024" inkscape:connector-curvature="0" d="M642.2,481.1c2.3,0,4.3-1.9,4.3-4.3c0-2.3-1.9-4.3-4.3-4.3
				c-2.3,0-4.3,1.9-4.3,4.3S639.7,481.1,642.2,481.1z M642.2,478.7c-1,0-1.8-0.8-1.8-1.8l0,0c0-1,0.8-1.8,1.8-1.8l0,0
				c1,0,1.8,0.8,1.8,1.8l0,0C643.9,477.9,643,478.7,642.2,478.7L642.2,478.7z"/>
			<rect id="rect9026" x="641" y="465.3" width="2.1" height="8"/>
			<path id="path9028" inkscape:connector-curvature="0" d="M642.2,546.3c2.3,0,4.3-1.9,4.3-4.3c0-2.3-1.9-4.3-4.3-4.3
				c-2.3,0-4.3,1.9-4.3,4.3S639.7,546.3,642.2,546.3z M642.2,543.9c-1,0-1.8-0.8-1.8-1.8l0,0c0-1,0.8-1.8,1.8-1.8l0,0
				c1,0,1.8,0.8,1.8,1.8l0,0C643.9,543.1,643,543.9,642.2,543.9L642.2,543.9z"/>
			<rect id="rect9030" x="641" y="530.3" width="2.1" height="8"/>
			<path id="path9032" inkscape:connector-curvature="0" d="M642.2,611.5c2.3,0,4.3-1.9,4.3-4.3c0-2.3-1.9-4.3-4.3-4.3
				c-2.3,0-4.3,1.9-4.3,4.3S639.7,611.5,642.2,611.5z M642.2,609.1c-1,0-1.8-0.8-1.8-1.8l0,0c0-1,0.8-1.8,1.8-1.8l0,0
				c1,0,1.8,0.8,1.8,1.8l0,0C643.9,608.3,643,609.1,642.2,609.1L642.2,609.1z"/>
			<rect id="rect9034" x="641" y="595.6" width="2.1" height="8"/>
			<rect id="rect9036" x="639" y="351.5" class="st3" width="6.4" height="15.8"/>
			<rect id="rect9038" x="641" y="350" width="2.1" height="8"/>
			<path id="path9040" inkscape:connector-curvature="0" d="M642.2,342.2c2.3,0,4.3,1.9,4.3,4.3c0,2.3-1.9,4.3-4.3,4.3
				c-2.3,0-4.3-1.9-4.3-4.3C637.9,344.2,639.7,342.2,642.2,342.2z M642.2,344.7c-1,0-1.8,0.8-1.8,1.8l0,0c0,1,0.8,1.8,1.8,1.8l0,0
				c1,0,1.8-0.8,1.8-1.8l0,0C643.9,345.5,643,344.7,642.2,344.7L642.2,344.7z"/>
			<g id="g9042" transform="matrix(0,1,-1,0,762.68827,-294.76343)">
				
					<rect id="rect9044" x="650.5" y="119.2" transform="matrix(-2.535182e-06 -1 1 -2.535182e-06 531.4226 772.3267)" width="2.7" height="2.6"/>
				
					<rect id="rect9046" x="659.5" y="119.3" transform="matrix(-2.535182e-06 -1 1 -2.535182e-06 540.2227 781.4935)" width="2.7" height="2.6"/>
			</g>
			<g id="g9048" transform="matrix(0,1,-1,0,762.68827,-212.50083)">
				
					<rect id="rect9050" x="634.1" y="119.3" transform="matrix(-2.535182e-06 -1 1 -2.535182e-06 514.9225 756.0468)" width="2.7" height="2.6"/>
				
					<rect id="rect9052" x="642.9" y="119.2" transform="matrix(-2.535182e-06 -1 1 -2.535182e-06 523.7228 764.8143)" width="2.7" height="2.6"/>
			</g>
			<g id="g9054" transform="matrix(0,1,-1,0,762.68827,-169.78503)">
				
					<rect id="rect9056" x="625.5" y="119.2" transform="matrix(-2.535182e-06 -1 1 -2.535182e-06 506.3238 747.3918)" width="2.7" height="2.6"/>
				
					<rect id="rect9058" x="634.6" y="119.3" transform="matrix(-2.535182e-06 -1 1 -2.535182e-06 515.3227 756.5596)" width="2.7" height="2.6"/>
			</g>
			<g id="g9060" transform="matrix(0,1,-1,0,762.68827,-88.467029)">
				
					<rect id="rect9062" x="609.4" y="119.3" transform="matrix(-2.535182e-06 -1 1 -2.535182e-06 490.1223 731.3008)" width="2.7" height="2.6"/>
				
					<rect id="rect9064" x="618.1" y="119.2" transform="matrix(-2.535182e-06 -1 1 -2.535182e-06 499.0234 739.9684)" width="2.7" height="2.6"/>
			</g>
			<g id="g9066" transform="matrix(0,1,-1,0,762.68827,-6.9012286)">
				
					<rect id="rect9068" x="592.8" y="119.3" transform="matrix(-2.535182e-06 -1 1 -2.535182e-06 473.5237 714.8063)" width="2.7" height="2.6"/>
				
					<rect id="rect9070" x="601.9" y="119.4" transform="matrix(-2.535182e-06 -1 1 -2.535182e-06 482.5236 723.9732)" width="2.7" height="2.6"/>
			</g>
			<g id="g9072" transform="translate(147.02493,-0.61651615)">
				<rect id="rect9074" x="485.3" y="436.9" class="st3" width="13" height="2.1"/>
				<rect id="rect9076" x="485.3" y="451.3" class="st3" width="13" height="2.1"/>
			</g>
			<rect id="rect9078" x="632.4" y="615.5" class="st3" width="13" height="2.1"/>
		</g>
		<g id="g9080" transform="matrix(0,1,-1,0,1060.909,-28.406851)">
			<rect id="rect9082" x="630" y="337.6" width="13.6" height="292.2"/>
			<circle id="circle9084" class="st3" cx="638.3" cy="542.1" r="6.4"/>
			<rect id="rect9086" x="635" y="521" class="st3" width="6.4" height="16"/>
			<circle id="circle9088" class="st3" cx="638.3" cy="606.7" r="6.4"/>
			<rect id="rect9090" x="635" y="586.4" class="st3" width="6.4" height="15.2"/>
			<circle id="circle9092" class="st3" cx="638.3" cy="476.9" r="6.4"/>
			<rect id="rect9094" x="635" y="456" class="st3" width="6.4" height="15.7"/>
			<circle id="circle9096" class="st3" cx="638.3" cy="411.8" r="6.4"/>
			<rect id="rect9098" x="635" y="417" class="st3" width="6.4" height="16"/>
			<circle id="circle9100" class="st3" cx="638.3" cy="346.5" r="6.4"/>
			<path id="path9102" inkscape:connector-curvature="0" d="M638.3,407.4c2.3,0,4.3,1.9,4.3,4.3c0,2.3-1.9,4.3-4.3,4.3
				c-2.3,0-4.3-1.9-4.3-4.3S636,407.4,638.3,407.4z M638.3,409.9c-1,0-1.8,0.8-1.8,1.8l0,0c0,1,0.8,1.8,1.8,1.8l0,0
				c1,0,1.8-0.8,1.8-1.8l0,0C640,410.7,639.3,409.9,638.3,409.9L638.3,409.9z"/>
			<rect id="rect9104" x="637.2" y="415.8" width="2.1" height="8"/>
			<path id="path9106" inkscape:connector-curvature="0" d="M638.3,481.1c2.3,0,4.3-1.9,4.3-4.3c0-2.3-1.9-4.3-4.3-4.3
				c-2.3,0-4.3,1.9-4.3,4.3S636,481.1,638.3,481.1z M638.3,478.7c-1,0-1.8-0.8-1.8-1.8l0,0c0-1,0.8-1.8,1.8-1.8l0,0
				c1,0,1.8,0.8,1.8,1.8l0,0C640,477.9,639.3,478.7,638.3,478.7L638.3,478.7z"/>
			<rect id="rect9108" x="637.2" y="465.3" width="2.1" height="8"/>
			<path id="path9110" inkscape:connector-curvature="0" d="M638.3,546.3c2.3,0,4.3-1.9,4.3-4.3c0-2.3-1.9-4.3-4.3-4.3
				c-2.3,0-4.3,1.9-4.3,4.3S636,546.3,638.3,546.3z M638.3,543.9c-1,0-1.8-0.8-1.8-1.8l0,0c0-1,0.8-1.8,1.8-1.8l0,0
				c1,0,1.8,0.8,1.8,1.8l0,0C640,543.1,639.3,543.9,638.3,543.9L638.3,543.9z"/>
			<rect id="rect9112" x="637.2" y="530.3" width="2.1" height="8"/>
			<path id="path9114" inkscape:connector-curvature="0" d="M638.3,611.5c2.3,0,4.3-1.9,4.3-4.3c0-2.3-1.9-4.3-4.3-4.3
				c-2.3,0-4.3,1.9-4.3,4.3S636,611.5,638.3,611.5z M638.3,609.1c-1,0-1.8-0.8-1.8-1.8l0,0c0-1,0.8-1.8,1.8-1.8l0,0
				c1,0,1.8,0.8,1.8,1.8l0,0C640,608.3,639.3,609.1,638.3,609.1L638.3,609.1z"/>
			<rect id="rect9116" x="637.2" y="595.6" width="2.1" height="8"/>
			<rect id="rect9118" x="635.2" y="351.5" class="st3" width="6.4" height="15.8"/>
			<rect id="rect9120" x="637.2" y="350" width="2.1" height="8"/>
			<path id="path9122" inkscape:connector-curvature="0" d="M638.3,342.2c2.3,0,4.3,1.9,4.3,4.3c0,2.3-1.9,4.3-4.3,4.3
				c-2.3,0-4.3-1.9-4.3-4.3C634,344.2,636,342.2,638.3,342.2z M638.3,344.7c-1,0-1.8,0.8-1.8,1.8l0,0c0,1,0.8,1.8,1.8,1.8l0,0
				c1,0,1.8-0.8,1.8-1.8l0,0C640,345.5,639.3,344.7,638.3,344.7L638.3,344.7z"/>
			<g id="g9124" transform="matrix(0,1,-1,0,762.68827,-294.76343)">
				
					<rect id="rect9126" x="650.6" y="123.2" transform="matrix(-2.535182e-06 -1 1 -2.535182e-06 527.4142 776.4267)" width="2.7" height="2.6"/>
				
					<rect id="rect9128" x="659.5" y="123.2" transform="matrix(-2.535182e-06 -1 1 -2.535182e-06 536.3149 785.2937)" width="2.7" height="2.6"/>
			</g>
			<g id="g9130" transform="matrix(0,1,-1,0,762.68827,-212.50083)">
				
					<rect id="rect9132" x="634.1" y="123.2" transform="matrix(-2.535182e-06 -1 1 -2.535182e-06 510.9149 759.9468)" width="2.7" height="2.6"/>
				
					<rect id="rect9134" x="643" y="123.2" transform="matrix(-2.535182e-06 -1 1 -2.535182e-06 519.8149 768.8137)" width="2.7" height="2.6"/>
			</g>
			<g id="g9136" transform="matrix(0,1,-1,0,762.68827,-169.78503)">
				
					<rect id="rect9138" x="625.6" y="123.3" transform="matrix(-2.535182e-06 -1 1 -2.535182e-06 502.3156 751.4918)" width="2.7" height="2.6"/>
				
					<rect id="rect9140" x="634.4" y="123.2" transform="matrix(-2.535182e-06 -1 1 -2.535182e-06 511.3143 760.2595)" width="2.7" height="2.6"/>
			</g>
			<g id="g9142" transform="matrix(0,1,-1,0,762.68827,-88.467029)">
				
					<rect id="rect9144" x="609.3" y="123.1" transform="matrix(-2.535182e-06 -1 1 -2.535182e-06 486.2153 735.1007)" width="2.7" height="2.6"/>
				
					<rect id="rect9146" x="618.2" y="123.1" transform="matrix(-2.535182e-06 -1 1 -2.535182e-06 495.1154 743.9677)" width="2.7" height="2.6"/>
			</g>
			<g id="g9148" transform="matrix(0,1,-1,0,762.68827,-6.9012286)">
				
					<rect id="rect9150" x="592.9" y="123.2" transform="matrix(-2.535182e-06 -1 1 -2.535182e-06 469.7153 718.7062)" width="2.7" height="2.6"/>
				
					<rect id="rect9152" x="601.8" y="123.3" transform="matrix(-2.535182e-06 -1 1 -2.535182e-06 478.6152 727.7737)" width="2.7" height="2.6"/>
			</g>
			<g id="g9154" transform="translate(147.02493,-0.61651615)">
				<rect id="rect9156" x="481.5" y="436.9" class="st3" width="13" height="2.1"/>
				<rect id="rect9158" x="481.5" y="451.3" class="st3" width="13" height="2.1"/>
			</g>
			<rect id="rect9160" x="628.5" y="615.5" class="st3" width="13" height="2.1"/>
		</g>
		<g id="g9244" transform="matrix(0,1,-1,0,1060.909,10.208019)">
			<rect id="rect9246" x="622.3" y="337.6" width="13.6" height="292.2"/>
			<circle id="circle9248" class="st3" cx="630.5" cy="542.1" r="6.4"/>
			<rect id="rect9250" x="627.4" y="521" class="st3" width="6.4" height="16"/>
			<circle id="circle9252" class="st3" cx="630.5" cy="606.7" r="6.4"/>
			<rect id="rect9254" x="627.4" y="586.4" class="st3" width="6.4" height="15.2"/>
			<circle id="circle9256" class="st3" cx="630.5" cy="476.9" r="6.4"/>
			<rect id="rect9258" x="627.4" y="456" class="st3" width="6.4" height="15.7"/>
			<circle id="circle9260" class="st3" cx="630.5" cy="411.8" r="6.4"/>
			<rect id="rect9262" x="627.4" y="417" class="st3" width="6.4" height="16"/>
			<circle id="circle9264" class="st3" cx="630.5" cy="346.5" r="6.4"/>
			<path id="path9266" inkscape:connector-curvature="0" d="M630.5,407.4c2.3,0,4.3,1.9,4.3,4.3c0,2.3-1.9,4.3-4.3,4.3
				c-2.3,0-4.3-1.9-4.3-4.3S628.2,407.4,630.5,407.4z M630.5,409.9c-1,0-1.8,0.8-1.8,1.8l0,0c0,1,0.8,1.8,1.8,1.8l0,0
				c1,0,1.8-0.8,1.8-1.8l0,0C632.4,410.7,631.5,409.9,630.5,409.9L630.5,409.9z"/>
			<rect id="rect9268" x="629.5" y="415.8" width="2.1" height="8"/>
			<path id="path9270" inkscape:connector-curvature="0" d="M630.5,481.1c2.3,0,4.3-1.9,4.3-4.3c0-2.3-1.9-4.3-4.3-4.3
				c-2.3,0-4.3,1.9-4.3,4.3S628.2,481.1,630.5,481.1z M630.5,478.7c-1,0-1.8-0.8-1.8-1.8l0,0c0-1,0.8-1.8,1.8-1.8l0,0
				c1,0,1.8,0.8,1.8,1.8l0,0C632.4,477.9,631.5,478.7,630.5,478.7L630.5,478.7z"/>
			<rect id="rect9272" x="629.5" y="465.3" width="2.1" height="8"/>
			<path id="path9274" inkscape:connector-curvature="0" d="M630.5,546.3c2.3,0,4.3-1.9,4.3-4.3c0-2.3-1.9-4.3-4.3-4.3
				c-2.3,0-4.3,1.9-4.3,4.3S628.2,546.3,630.5,546.3z M630.5,543.9c-1,0-1.8-0.8-1.8-1.8l0,0c0-1,0.8-1.8,1.8-1.8l0,0
				c1,0,1.8,0.8,1.8,1.8l0,0C632.4,543.1,631.5,543.9,630.5,543.9L630.5,543.9z"/>
			<rect id="rect9276" x="629.5" y="530.3" width="2.1" height="8"/>
			<path id="path9278-5" inkscape:connector-curvature="0" d="M630.5,611.5c2.3,0,4.3-1.9,4.3-4.3c0-2.3-1.9-4.3-4.3-4.3
				c-2.3,0-4.3,1.9-4.3,4.3S628.2,611.5,630.5,611.5z M630.5,609.1c-1,0-1.8-0.8-1.8-1.8l0,0c0-1,0.8-1.8,1.8-1.8l0,0
				c1,0,1.8,0.8,1.8,1.8l0,0C632.4,608.3,631.5,609.1,630.5,609.1L630.5,609.1z"/>
			<rect id="rect9280" x="629.5" y="595.6" width="2.1" height="8"/>
			<rect id="rect9282" x="627.4" y="351.5" class="st3" width="6.4" height="15.8"/>
			<rect id="rect9284" x="629.5" y="350" width="2.1" height="8"/>
			<path id="path9286" inkscape:connector-curvature="0" d="M630.5,342.2c2.3,0,4.3,1.9,4.3,4.3c0,2.3-1.9,4.3-4.3,4.3
				c-2.3,0-4.3-1.9-4.3-4.3C626.3,344.2,628.2,342.2,630.5,342.2z M630.5,344.7c-1,0-1.8,0.8-1.8,1.8l0,0c0,1,0.8,1.8,1.8,1.8l0,0
				c1,0,1.8-0.8,1.8-1.8l0,0C632.4,345.5,631.5,344.7,630.5,344.7L630.5,344.7z"/>
			<g id="g9288" transform="matrix(0,1,-1,0,762.68827,-294.76343)">
				
					<rect id="rect9290" x="650.6" y="130.8" transform="matrix(-2.535182e-06 -1 1 -2.535182e-06 519.7986 784.0261)" width="2.7" height="2.6"/>
				
					<rect id="rect9292" x="659.5" y="131" transform="matrix(-2.535182e-06 -1 1 -2.535182e-06 528.5974 793.1941)" width="2.7" height="2.6"/>
			</g>
			<g id="g9294" transform="matrix(0,1,-1,0,762.68827,-212.50083)">
				
					<rect id="rect9296" x="634.2" y="130.8" transform="matrix(-2.535182e-06 -1 1 -2.535182e-06 503.3984 767.6469)" width="2.7" height="2.6"/>
				
					<rect id="rect9298" x="643.1" y="130.9" transform="matrix(-2.535182e-06 -1 1 -2.535182e-06 512.1981 776.6136)" width="2.7" height="2.6"/>
			</g>
			<g id="g9300" transform="matrix(0,1,-1,0,762.68827,-169.78503)">
				
					<rect id="rect9302" x="625.5" y="130.9" transform="matrix(-2.535182e-06 -1 1 -2.535182e-06 494.6987 759.0914)" width="2.7" height="2.6"/>
				
					<rect id="rect9304" x="634.5" y="131" transform="matrix(-2.535182e-06 -1 1 -2.535182e-06 503.5989 768.1592)" width="2.7" height="2.6"/>
			</g>
			<g id="g9306" transform="matrix(0,1,-1,0,762.68827,-88.467029)">
				
					<rect id="rect9308" x="609.3" y="131" transform="matrix(-2.535182e-06 -1 1 -2.535182e-06 478.3991 742.9008)" width="2.7" height="2.6"/>
				
					<rect id="rect9310" x="618.3" y="130.7" transform="matrix(-2.535182e-06 -1 1 -2.535182e-06 487.599 751.6678)" width="2.7" height="2.6"/>
			</g>
			<g id="g9312" transform="matrix(0,1,-1,0,762.68827,-6.9012286)">
				
					<rect id="rect9314" x="593" y="131" transform="matrix(-2.535182e-06 -1 1 -2.535182e-06 461.9994 726.606)" width="2.7" height="2.6"/>
				
					<rect id="rect9316" x="601.9" y="130.9" transform="matrix(-2.535182e-06 -1 1 -2.535182e-06 471.0994 735.4733)" width="2.7" height="2.6"/>
			</g>
			<g id="g9318" transform="translate(147.02493,-0.61651615)">
				<rect id="rect9320" x="473.7" y="436.9" class="st3" width="13" height="2.1"/>
				<rect id="rect9322" x="473.7" y="451.3" class="st3" width="13" height="2.1"/>
			</g>
			<rect id="rect9324" x="620.7" y="615.5" class="st3" width="13" height="2.1"/>
		</g>
		<g id="g5673" transform="matrix(0,1,-1,0,1060.909,10.208019)">
			<rect id="rect5675" x="622.3" y="337.6" width="13.6" height="292.2"/>
			<circle id="circle5677" class="st3" cx="630.5" cy="542.1" r="6.4"/>
			<rect id="rect5679" x="627.4" y="521" class="st3" width="6.4" height="16"/>
			<circle id="circle5681" class="st3" cx="630.5" cy="606.7" r="6.4"/>
			<rect id="rect5683" x="627.4" y="586.4" class="st3" width="6.4" height="15.2"/>
			<circle id="circle5685" class="st3" cx="630.5" cy="476.9" r="6.4"/>
			<rect id="rect5687" x="627.4" y="456" class="st3" width="6.4" height="15.7"/>
			<circle id="circle5689" class="st3" cx="630.5" cy="411.8" r="6.4"/>
			<rect id="rect5691" x="627.4" y="417" class="st3" width="6.4" height="16"/>
			<circle id="circle5693" class="st3" cx="630.5" cy="346.5" r="6.4"/>
			<path id="path5695" inkscape:connector-curvature="0" d="M630.5,407.4c2.3,0,4.3,1.9,4.3,4.3c0,2.3-1.9,4.3-4.3,4.3
				c-2.3,0-4.3-1.9-4.3-4.3S628.2,407.4,630.5,407.4z M630.5,409.9c-1,0-1.8,0.8-1.8,1.8l0,0c0,1,0.8,1.8,1.8,1.8l0,0
				c1,0,1.8-0.8,1.8-1.8l0,0C632.4,410.7,631.5,409.9,630.5,409.9L630.5,409.9z"/>
			<rect id="rect5697" x="629.5" y="415.8" width="2.1" height="8"/>
			<path id="path5699" inkscape:connector-curvature="0" d="M630.5,481.1c2.3,0,4.3-1.9,4.3-4.3c0-2.3-1.9-4.3-4.3-4.3
				c-2.3,0-4.3,1.9-4.3,4.3S628.2,481.1,630.5,481.1z M630.5,478.7c-1,0-1.8-0.8-1.8-1.8l0,0c0-1,0.8-1.8,1.8-1.8l0,0
				c1,0,1.8,0.8,1.8,1.8l0,0C632.4,477.9,631.5,478.7,630.5,478.7L630.5,478.7z"/>
			<rect id="rect5701" x="629.5" y="465.3" width="2.1" height="8"/>
			<path id="path5703" inkscape:connector-curvature="0" d="M630.5,546.3c2.3,0,4.3-1.9,4.3-4.3c0-2.3-1.9-4.3-4.3-4.3
				c-2.3,0-4.3,1.9-4.3,4.3S628.2,546.3,630.5,546.3z M630.5,543.9c-1,0-1.8-0.8-1.8-1.8l0,0c0-1,0.8-1.8,1.8-1.8l0,0
				c1,0,1.8,0.8,1.8,1.8l0,0C632.4,543.1,631.5,543.9,630.5,543.9L630.5,543.9z"/>
			<rect id="rect5705" x="629.5" y="530.3" width="2.1" height="8"/>
			<path id="path5707" inkscape:connector-curvature="0" d="M630.5,611.5c2.3,0,4.3-1.9,4.3-4.3c0-2.3-1.9-4.3-4.3-4.3
				c-2.3,0-4.3,1.9-4.3,4.3S628.2,611.5,630.5,611.5z M630.5,609.1c-1,0-1.8-0.8-1.8-1.8l0,0c0-1,0.8-1.8,1.8-1.8l0,0
				c1,0,1.8,0.8,1.8,1.8l0,0C632.4,608.3,631.5,609.1,630.5,609.1L630.5,609.1z"/>
			<rect id="rect5709" x="629.5" y="595.6" width="2.1" height="8"/>
			<rect id="rect5711" x="627.4" y="351.5" class="st3" width="6.4" height="15.8"/>
			<rect id="rect5713" x="629.5" y="350" width="2.1" height="8"/>
			<path id="path5715" inkscape:connector-curvature="0" d="M630.5,342.2c2.3,0,4.3,1.9,4.3,4.3c0,2.3-1.9,4.3-4.3,4.3
				c-2.3,0-4.3-1.9-4.3-4.3C626.3,344.2,628.2,342.2,630.5,342.2z M630.5,344.7c-1,0-1.8,0.8-1.8,1.8l0,0c0,1,0.8,1.8,1.8,1.8l0,0
				c1,0,1.8-0.8,1.8-1.8l0,0C632.4,345.5,631.5,344.7,630.5,344.7L630.5,344.7z"/>
			<g id="g5717" transform="matrix(0,1,-1,0,762.68827,-294.76343)">
				
					<rect id="rect5719" x="650.6" y="130.8" transform="matrix(-2.535182e-06 -1 1 -2.535182e-06 519.7986 784.0261)" width="2.7" height="2.6"/>
				
					<rect id="rect5721" x="659.5" y="131" transform="matrix(-2.535182e-06 -1 1 -2.535182e-06 528.5974 793.1941)" width="2.7" height="2.6"/>
			</g>
			<g id="g5723" transform="matrix(0,1,-1,0,762.68827,-212.50083)">
				
					<rect id="rect5725" x="634.2" y="130.8" transform="matrix(-2.535182e-06 -1 1 -2.535182e-06 503.3984 767.6469)" width="2.7" height="2.6"/>
				
					<rect id="rect5727" x="643.1" y="130.9" transform="matrix(-2.535182e-06 -1 1 -2.535182e-06 512.1981 776.6136)" width="2.7" height="2.6"/>
			</g>
			<g id="g5729" transform="matrix(0,1,-1,0,762.68827,-169.78503)">
				
					<rect id="rect5731" x="625.5" y="130.9" transform="matrix(-2.535182e-06 -1 1 -2.535182e-06 494.6987 759.0914)" width="2.7" height="2.6"/>
				
					<rect id="rect5733" x="634.5" y="131" transform="matrix(-2.535182e-06 -1 1 -2.535182e-06 503.5989 768.1592)" width="2.7" height="2.6"/>
			</g>
			<g id="g5735" transform="matrix(0,1,-1,0,762.68827,-88.467029)">
				
					<rect id="rect5737" x="609.3" y="131" transform="matrix(-2.535182e-06 -1 1 -2.535182e-06 478.3991 742.9008)" width="2.7" height="2.6"/>
				
					<rect id="rect5739" x="618.3" y="130.7" transform="matrix(-2.535182e-06 -1 1 -2.535182e-06 487.599 751.6678)" width="2.7" height="2.6"/>
			</g>
			<g id="g5741" transform="matrix(0,1,-1,0,762.68827,-6.9012286)">
				
					<rect id="rect5743" x="593" y="131" transform="matrix(-2.535182e-06 -1 1 -2.535182e-06 461.9994 726.606)" width="2.7" height="2.6"/>
				
					<rect id="rect5745" x="601.9" y="130.9" transform="matrix(-2.535182e-06 -1 1 -2.535182e-06 471.0994 735.4733)" width="2.7" height="2.6"/>
			</g>
			<g id="g5747" transform="translate(147.02493,-0.61651615)">
				<rect id="rect5749" x="473.7" y="436.9" class="st3" width="13" height="2.1"/>
				<rect id="rect5751" x="473.7" y="451.3" class="st3" width="13" height="2.1"/>
			</g>
			<rect id="rect5753" x="620.7" y="615.5" class="st3" width="13" height="2.1"/>
		</g>
		<g id="g8934" transform="matrix(0,1,-1,0,1060.909,-9.0994211)">
			<rect id="rect8936" x="626.2" y="337.6" width="13.6" height="292.2"/>
			<circle id="circle8938" class="st3" cx="634.4" cy="542.1" r="6.4"/>
			<rect id="rect8940" x="631.3" y="521" class="st3" width="6.4" height="16"/>
			<circle id="circle8942" class="st3" cx="634.4" cy="606.7" r="6.4"/>
			<rect id="rect8944" x="631.3" y="586.4" class="st3" width="6.4" height="15.2"/>
			<circle id="circle8946" class="st3" cx="634.4" cy="476.9" r="6.4"/>
			<rect id="rect8948" x="631.3" y="456" class="st3" width="6.4" height="15.7"/>
			<circle id="circle8950" class="st3" cx="634.4" cy="411.8" r="6.4"/>
			<rect id="rect8952" x="631.3" y="417" class="st3" width="6.4" height="16"/>
			<circle id="circle8954" class="st3" cx="634.4" cy="346.5" r="6.4"/>
			<path id="path8956" inkscape:connector-curvature="0" d="M634.4,407.4c2.3,0,4.3,1.9,4.3,4.3c0,2.3-1.9,4.3-4.3,4.3
				c-2.3,0-4.3-1.9-4.3-4.3C630.2,409.3,632,407.4,634.4,407.4z M634.4,409.9c-1,0-1.8,0.8-1.8,1.8l0,0c0,1,0.8,1.8,1.8,1.8l0,0
				c1,0,1.8-0.8,1.8-1.8l0,0C636.2,410.7,635.4,409.9,634.4,409.9L634.4,409.9z"/>
			<rect id="rect8958" x="633.4" y="415.8" width="2.1" height="8"/>
			<path id="path8960" inkscape:connector-curvature="0" d="M634.4,481.1c2.3,0,4.3-1.9,4.3-4.3c0-2.3-1.9-4.3-4.3-4.3
				c-2.3,0-4.3,1.9-4.3,4.3C630.2,479.2,632,481.1,634.4,481.1z M634.4,478.7c-1,0-1.8-0.8-1.8-1.8l0,0c0-1,0.8-1.8,1.8-1.8l0,0
				c1,0,1.8,0.8,1.8,1.8l0,0C636.2,477.9,635.4,478.7,634.4,478.7L634.4,478.7z"/>
			<rect id="rect8962" x="633.4" y="465.3" width="2.1" height="8"/>
			<path id="path8964" inkscape:connector-curvature="0" d="M634.4,546.3c2.3,0,4.3-1.9,4.3-4.3c0-2.3-1.9-4.3-4.3-4.3
				c-2.3,0-4.3,1.9-4.3,4.3C630.2,544.4,632,546.3,634.4,546.3z M634.4,543.9c-1,0-1.8-0.8-1.8-1.8l0,0c0-1,0.8-1.8,1.8-1.8l0,0
				c1,0,1.8,0.8,1.8,1.8l0,0C636.2,543.1,635.4,543.9,634.4,543.9L634.4,543.9z"/>
			<rect id="rect8966" x="633.4" y="530.3" width="2.1" height="8"/>
			<path id="path8968" inkscape:connector-curvature="0" d="M634.4,611.5c2.3,0,4.3-1.9,4.3-4.3c0-2.3-1.9-4.3-4.3-4.3
				c-2.3,0-4.3,1.9-4.3,4.3C630.2,609.6,632,611.5,634.4,611.5z M634.4,609.1c-1,0-1.8-0.8-1.8-1.8l0,0c0-1,0.8-1.8,1.8-1.8l0,0
				c1,0,1.8,0.8,1.8,1.8l0,0C636.2,608.3,635.4,609.1,634.4,609.1L634.4,609.1z"/>
			<rect id="rect8970" x="633.4" y="595.6" width="2.1" height="8"/>
			<rect id="rect8972" x="631.3" y="351.5" class="st3" width="6.4" height="15.8"/>
			<rect id="rect8974" x="633.4" y="350" width="2.1" height="8"/>
			<path id="path8976" inkscape:connector-curvature="0" d="M634.4,342.2c2.3,0,4.3,1.9,4.3,4.3c0,2.3-1.9,4.3-4.3,4.3
				c-2.3,0-4.3-1.9-4.3-4.3C630.2,344.2,632,342.2,634.4,342.2z M634.4,344.7c-1,0-1.8,0.8-1.8,1.8l0,0c0,1,0.8,1.8,1.8,1.8l0,0
				c1,0,1.8-0.8,1.8-1.8l0,0C636.2,345.5,635.4,344.7,634.4,344.7L634.4,344.7z"/>
			<g id="g8978" transform="matrix(0,1,-1,0,762.68827,-294.76343)">
				
					<rect id="rect8980" x="650.5" y="127" transform="matrix(-2.535182e-06 -1 1 -2.535182e-06 523.6061 780.1262)" width="2.7" height="2.6"/>
				
					<rect id="rect8982" x="659.6" y="127" transform="matrix(-2.535182e-06 -1 1 -2.535182e-06 532.6058 789.2941)" width="2.7" height="2.6"/>
			</g>
			<g id="g8984" transform="matrix(0,1,-1,0,762.68827,-212.50083)">
				
					<rect id="rect8986" x="634.1" y="127.1" transform="matrix(-2.535182e-06 -1 1 -2.535182e-06 507.1065 763.8458)" width="2.7" height="2.6"/>
				
					<rect id="rect8988" x="643" y="127.1" transform="matrix(-2.535182e-06 -1 1 -2.535182e-06 516.0064 772.7138)" width="2.7" height="2.6"/>
			</g>
			<g id="g8990" transform="matrix(0,1,-1,0,762.68827,-169.78503)">
				
					<rect id="rect8992" x="625.6" y="127" transform="matrix(-2.535182e-06 -1 1 -2.535182e-06 498.6069 755.2917)" width="2.7" height="2.6"/>
				
					<rect id="rect8994" x="634.6" y="127.1" transform="matrix(-2.535182e-06 -1 1 -2.535182e-06 507.5067 764.3592)" width="2.7" height="2.6"/>
			</g>
			<g id="g8996" transform="matrix(0,1,-1,0,762.68827,-88.467029)">
				
					<rect id="rect8998" x="609.4" y="127.1" transform="matrix(-2.535182e-06 -1 1 -2.535182e-06 482.3071 739.1002)" width="2.7" height="2.6"/>
				
					<rect id="rect9001" x="618.2" y="127" transform="matrix(-2.535182e-06 -1 1 -2.535182e-06 491.3072 747.868)" width="2.7" height="2.6"/>
			</g>
			<g id="g9003" transform="matrix(0,1,-1,0,762.68827,-6.9012286)">
				
					<rect id="rect9005" x="593" y="127" transform="matrix(-2.535182e-06 -1 1 -2.535182e-06 466.0074 722.7059)" width="2.7" height="2.6"/>
				
					<rect id="rect9007" x="602" y="127.1" transform="matrix(-2.535182e-06 -1 1 -2.535182e-06 474.9074 731.7734)" width="2.7" height="2.6"/>
			</g>
			<g id="g9009" transform="translate(147.02493,-0.61651615)">
				<rect id="rect9011" x="477.6" y="436.9" class="st3" width="13" height="2.1"/>
				<rect id="rect9013" x="477.6" y="451.3" class="st3" width="13" height="2.1"/>
			</g>
			<rect id="rect9015" x="624.5" y="615.5" class="st3" width="13" height="2.1"/>
		</g>
		<g id="g9080_1_" transform="matrix(0,-1,1,0,-160.76409,450.14471)">
			<polygon id="rect9082_1_" points="-120,884.3 -133.6,884.3 -133.6,630.4 -116.6,630.5 -116.7,591.5 -103.1,591.5 -103.1,642.1 
				-120,642.4 			"/>
			<circle id="circle9084_1_" class="st3" cx="-128.3" cy="679.8" r="6.4"/>
			<rect id="rect9086_1_" x="-131.4" y="684.9" class="st3" width="6.4" height="16"/>
			<circle id="circle9088_1_" class="st3" cx="-112.1" cy="615.3" r="6.4"/>
			<rect id="rect9090_1_" x="-115.2" y="620.4" class="st3" width="6.4" height="15.2"/>
			<circle id="circle9092_1_" class="st3" cx="-128.3" cy="745.1" r="6.4"/>
			<rect id="rect9094_1_" x="-131.4" y="750.1" class="st3" width="6.4" height="15.7"/>
			<circle id="circle9096_1_" class="st3" cx="-128.3" cy="810.2" r="6.4"/>
			<rect id="rect9098_1_" x="-131.5" y="788.9" class="st3" width="6.4" height="16"/>
			<circle id="circle9100_1_" class="st3" cx="-128.3" cy="875.5" r="6.4"/>
			<path id="path9102_1_" inkscape:connector-curvature="0" d="M-128.3,814.5c-2.3,0-4.3-1.9-4.3-4.3c0-2.3,1.9-4.3,4.3-4.3
				c2.3,0,4.3,1.9,4.3,4.3S-125.9,814.5-128.3,814.5z M-128.3,812c1,0,1.8-0.8,1.8-1.8l0,0c0-1-0.8-1.8-1.8-1.8l0,0
				c-1,0-1.8,0.8-1.8,1.8l0,0C-130,811.2-129.2,812-128.3,812L-128.3,812z"/>
			<rect id="rect9104_1_" x="-129.2" y="798.1" width="2.1" height="8"/>
			<path id="path9106_1_" inkscape:connector-curvature="0" d="M-128.3,740.8c-2.3,0-4.3,1.9-4.3,4.3c0,2.3,1.9,4.3,4.3,4.3
				c2.3,0,4.3-1.9,4.3-4.3S-125.9,740.8-128.3,740.8z M-128.3,743.3c1,0,1.8,0.8,1.8,1.8l0,0c0,1-0.8,1.8-1.8,1.8l0,0
				c-1,0-1.8-0.8-1.8-1.8l0,0C-130,744.1-129.2,743.3-128.3,743.3L-128.3,743.3z"/>
			<rect id="rect9108_1_" x="-129.2" y="748.7" width="2.1" height="8"/>
			<path id="path9110_1_" inkscape:connector-curvature="0" d="M-128.3,675.6c-2.3,0-4.3,1.9-4.3,4.3c0,2.3,1.9,4.3,4.3,4.3
				c2.3,0,4.3-1.9,4.3-4.3S-125.9,675.6-128.3,675.6z M-128.3,678.1c1,0,1.8,0.8,1.8,1.8l0,0c0,1-0.8,1.8-1.8,1.8l0,0
				c-1,0-1.8-0.8-1.8-1.8l0,0C-130,678.9-129.2,678.1-128.3,678.1L-128.3,678.1z"/>
			<rect id="rect9112_1_" x="-129.2" y="683.6" width="2.1" height="8"/>
			<path id="path9114_1_" inkscape:connector-curvature="0" d="M-112.1,610.4c-2.3,0-4.3,1.9-4.3,4.3c0,2.3,1.9,4.3,4.3,4.3
				c2.3,0,4.3-1.9,4.3-4.3S-109.7,610.4-112.1,610.4z M-112.1,612.9c1,0,1.8,0.8,1.8,1.8l0,0c0,1-0.8,1.8-1.8,1.8l0,0
				c-1,0-1.8-0.8-1.8-1.8l0,0C-113.9,613.6-113.1,612.9-112.1,612.9L-112.1,612.9z"/>
			<rect id="rect9116_1_" x="-113" y="618.4" width="2.1" height="8"/>
			<rect id="rect9118_1_" x="-131.4" y="854.6" class="st3" width="6.4" height="15.8"/>
			<rect id="rect9120_1_" x="-129.2" y="863.9" width="2.1" height="8"/>
			<path id="path9122_1_" inkscape:connector-curvature="0" d="M-128.3,879.7c-2.3,0-4.3-1.9-4.3-4.3c0-2.3,1.9-4.3,4.3-4.3
				c2.3,0,4.3,1.9,4.3,4.3S-125.9,879.7-128.3,879.7z M-128.3,877.2c1,0,1.8-0.8,1.8-1.8l0,0c0-1-0.8-1.8-1.8-1.8l0,0
				c-1,0-1.8,0.8-1.8,1.8l0,0C-130,876.4-129.2,877.2-128.3,877.2L-128.3,877.2z"/>
			<g id="g9124_1_" transform="matrix(0,1,-1,0,762.68827,-294.76343)">
				
					<rect id="rect9126_1_" x="1158.2" y="889.5" transform="matrix(2.535182e-06 1 -1 2.535182e-06 2050.2607 -268.7619)" width="2.7" height="2.6"/>
				
					<rect id="rect9128_1_" x="1149.3" y="889.5" transform="matrix(2.535182e-06 1 -1 2.535182e-06 2041.361 -259.8614)" width="2.7" height="2.6"/>
			</g>
			<g id="g9130_1_" transform="matrix(0,1,-1,0,762.68827,-212.50083)">
				
					<rect id="rect9132_1_" x="1010.1" y="889.5" transform="matrix(2.535182e-06 1 -1 2.535182e-06 1902.2578 -120.5638)" width="2.7" height="2.6"/>
				
					<rect id="rect9134_1_" x="1001.2" y="889.5" transform="matrix(2.535182e-06 1 -1 2.535182e-06 1893.3582 -111.6637)" width="2.7" height="2.6"/>
			</g>
			<g id="g9136_1_" transform="matrix(0,1,-1,0,762.68827,-169.78503)">
				
					<rect id="rect9138_1_" x="933.3" y="889.6" transform="matrix(2.535182e-06 1 -1 2.535182e-06 1825.5564 -43.7171)" width="2.7" height="2.6"/>
				
					<rect id="rect9140_1_" x="924.4" y="889.6" transform="matrix(2.535182e-06 1 -1 2.535182e-06 1816.6562 -34.8163)" width="2.7" height="2.6"/>
			</g>
			<g id="g9142_1_" transform="matrix(0,1,-1,0,762.68827,-88.467029)">
				
					<rect id="rect9144_1_" x="786.7" y="889.5" transform="matrix(2.535182e-06 1 -1 2.535182e-06 1678.8534 102.6951)" width="2.7" height="2.6"/>
				
					<rect id="rect9146_1_" x="777.7" y="889.5" transform="matrix(2.535182e-06 1 -1 2.535182e-06 1669.8534 111.6949)" width="2.7" height="2.6"/>
			</g>
			<g id="g9148_1_" transform="matrix(0,1,-1,0,762.68827,-6.9012286)">
				
					<rect id="rect9150_1_" x="640.2" y="873.3" transform="matrix(2.535182e-06 1 -1 2.535182e-06 1516.1505 233.1414)" width="2.7" height="2.6"/>
				
					<rect id="rect9152_1_" x="631.2" y="873.3" transform="matrix(2.535182e-06 1 -1 2.535182e-06 1507.1506 242.1414)" width="2.7" height="2.6"/>
			</g>
			<g id="g9154_1_" transform="translate(147.02493,-0.61651615)">
				<rect id="rect9156_1_" x="-278.4" y="784.1" class="st3" width="13" height="2.1"/>
				<rect id="rect9158_1_" x="-278.4" y="769.7" class="st3" width="13" height="2.1"/>
			</g>
			<rect id="rect9160_1_" x="-115.3" y="604.3" class="st3" width="13" height="2.1"/>
		</g>
	</g>
	<path id="path9108" inkscape:connector-curvature="0" class="st10" d="M-36.9,293.3c0-1.8,1.5-3.2,3.2-3.2c1.8,0,3.2,1.5,3.2,3.2
		c0,1.8-1.5,3.2-3.2,3.2C-35.5,296.5-36.9,295.1-36.9,293.3z M-35,293.3c0,0.7,0.6,1.4,1.4,1.4l0,0c0.7,0,1.4-0.6,1.4-1.3l0,0
		c0-0.7-0.6-1.4-1.3-1.4l0,0C-34.4,291.9-35,292.5-35,293.3L-35,293.3z"/>
	<path id="path9119" inkscape:connector-curvature="0" d="M-36.9,329.3c0-1.8,1.5-3.2,3.2-3.2c1.8,0,3.2,1.5,3.2,3.2
		c0,1.8-1.5,3.2-3.2,3.2C-35.5,332.5-36.9,331.1-36.9,329.3z M-35,329.3c0,0.7,0.6,1.4,1.4,1.4l0,0c0.7,0,1.4-0.6,1.4-1.4l0,0
		c0-0.7-0.6-1.4-1.3-1.4l0,0C-34.4,327.9-35,328.5-35,329.3L-35,329.3z"/>
	<path id="path9121" inkscape:connector-curvature="0" d="M-36.9,336.5c0-1.8,1.5-3.2,3.2-3.2c1.8,0,3.2,1.5,3.2,3.2
		c0,1.8-1.5,3.2-3.2,3.2C-35.5,339.7-36.9,338.3-36.9,336.5z M-35,336.5c0,0.7,0.6,1.4,1.4,1.4l0,0c0.7,0,1.4-0.6,1.4-1.3l0,0
		c0-0.7-0.6-1.4-1.3-1.4l0,0C-34.4,335.1-35,335.7-35,336.5L-35,336.5z"/>
	<path id="path9123" inkscape:connector-curvature="0" d="M-36.9,343.7c0-1.8,1.5-3.2,3.2-3.2c1.8,0,3.2,1.5,3.2,3.2
		c0,1.8-1.5,3.2-3.2,3.2C-35.5,346.9-36.9,345.5-36.9,343.7z M-35,343.7c0,0.7,0.6,1.4,1.4,1.4l0,0c0.7,0,1.4-0.6,1.4-1.4l0,0
		c0-0.7-0.6-1.4-1.3-1.4l0,0C-34.4,342.3-35,342.9-35,343.7L-35,343.7z"/>
	<path id="path9125" inkscape:connector-curvature="0" d="M-80.1,293.3c0-1.8,1.5-3.2,3.2-3.2c1.8,0,3.2,1.5,3.2,3.2
		c0,1.8-1.5,3.2-3.2,3.2C-78.7,296.5-80.1,295.1-80.1,293.3z M-78.2,293.3c0,0.7,0.6,1.4,1.4,1.4l0,0c0.7,0,1.4-0.6,1.4-1.4l0,0
		c0-0.7-0.6-1.4-1.3-1.4l0,0C-77.6,291.9-78.2,292.5-78.2,293.3L-78.2,293.3z"/>
	<path id="path9139" inkscape:connector-curvature="0" d="M-80.1,343.7c0-1.8,1.5-3.2,3.2-3.2c1.8,0,3.2,1.5,3.2,3.2
		c0,1.8-1.5,3.2-3.2,3.2C-78.7,346.9-80.1,345.5-80.1,343.7z M-78.2,343.7c0,0.7,0.6,1.4,1.4,1.4l0,0c0.7,0,1.4-0.6,1.4-1.4l0,0
		c0-0.7-0.6-1.4-1.3-1.4l0,0C-77.6,342.3-78.2,342.9-78.2,343.7L-78.2,343.7z"/>
	<path id="path9141" inkscape:connector-curvature="0" d="M-80.1,350.9c0-1.8,1.5-3.2,3.2-3.2c1.8,0,3.2,1.5,3.2,3.2
		c0,1.8-1.5,3.2-3.2,3.2C-78.7,354.1-80.1,352.7-80.1,350.9z M-78.2,350.9c0,0.7,0.6,1.4,1.4,1.4l0,0c0.7,0,1.4-0.6,1.4-1.4l0,0
		c0-0.7-0.6-1.4-1.3-1.4l0,0C-77.6,349.5-78.2,350.1-78.2,350.9L-78.2,350.9z"/>
	<path id="path9143" inkscape:connector-curvature="0" class="st10" d="M-80.1,358.1c0-1.8,1.5-3.2,3.2-3.2c1.8,0,3.2,1.5,3.2,3.2
		c0,1.8-1.5,3.2-3.2,3.2C-78.7,361.3-80.1,359.9-80.1,358.1z M-78.2,358.1c0,0.7,0.6,1.4,1.4,1.4l0,0c0.7,0,1.4-0.6,1.4-1.4l0,0
		c0-0.7-0.6-1.4-1.3-1.4l0,0C-77.6,356.7-78.2,357.3-78.2,358.1L-78.2,358.1z"/>
	<path id="path9145" inkscape:connector-curvature="0" d="M-80.1,365.3c0-1.8,1.5-3.2,3.2-3.2c1.8,0,3.2,1.5,3.2,3.2
		c0,1.8-1.5,3.2-3.2,3.2C-78.7,368.5-80.1,367.1-80.1,365.3z M-78.2,365.3c0,0.7,0.6,1.4,1.4,1.4l0,0c0.7,0,1.4-0.6,1.4-1.4l0,0
		c0-0.7-0.6-1.4-1.3-1.4l0,0C-77.6,363.9-78.2,364.5-78.2,365.3L-78.2,365.3z"/>
	<path id="path9147" inkscape:connector-curvature="0" class="st10" d="M-80.1,372.5c0-1.8,1.5-3.2,3.2-3.2c1.8,0,3.2,1.5,3.2,3.2
		c0,1.8-1.5,3.2-3.2,3.2C-78.7,375.7-80.1,374.3-80.1,372.5z M-78.2,372.5c0,0.7,0.6,1.4,1.4,1.4l0,0c0.7,0,1.4-0.6,1.4-1.4l0,0
		c0-0.7-0.6-1.4-1.3-1.4l0,0C-77.6,371.1-78.2,371.7-78.2,372.5L-78.2,372.5z"/>
	<path id="path9149" sodipodi:nodetypes="cccc" inkscape:connector-curvature="0" class="st11" d="M-78.9,356.7l-3.4-3.1v-53.5
		l3.7-5.2"/>
	<path id="path9476" sodipodi:nodetypes="cccccc" inkscape:connector-curvature="0" class="st11" d="M-35.6,295.2l-3.6,3l-0.7,18.1
		l-30.7,24.6l-0.3,26.7l-3.8,4.5"/>
	<path id="path9544" inkscape:connector-curvature="0" class="st10" d="M-56.5,319c0-1.8,1.5-3.2,3.2-3.2c1.8,0,3.2,1.5,3.2,3.2
		c0,1.8-1.5,3.2-3.2,3.2C-55,322.3-56.5,320.8-56.5,319z M-54.6,319c0,0.7,0.6,1.4,1.4,1.4l0,0c0.7,0,1.4-0.6,1.4-1.3l0,0
		c0-0.7-0.6-1.4-1.3-1.4l0,0C-54,317.7-54.6,318.3-54.6,319L-54.6,319z"/>
	<path id="path9546" inkscape:connector-curvature="0" d="M-51.3,330.1c0-1.8,1.5-3.2,3.2-3.2c1.8,0,3.2,1.5,3.2,3.2
		c0,1.8-1.5,3.2-3.2,3.2C-49.9,333.3-51.3,331.9-51.3,330.1z M-49.4,330.1c0,0.7,0.6,1.4,1.4,1.4l0,0c0.7,0,1.4-0.6,1.4-1.4l0,0
		c0-0.7-0.6-1.4-1.3-1.4l0,0C-48.8,328.7-49.4,329.3-49.4,330.1L-49.4,330.1z"/>
	<path id="path9549" inkscape:connector-curvature="0" d="M-51.3,341.3c0-1.8,1.5-3.2,3.2-3.2c1.8,0,3.2,1.5,3.2,3.2
		c0,1.8-1.5,3.2-3.2,3.2C-49.9,344.5-51.3,343.1-51.3,341.3z M-49.4,341.3c0,0.7,0.6,1.4,1.4,1.4l0,0c0.7,0,1.4-0.6,1.4-1.4l0,0
		c0-0.7-0.6-1.4-1.3-1.4l0,0C-48.8,339.9-49.4,340.5-49.4,341.3L-49.4,341.3z"/>
	<path id="path9551" inkscape:connector-curvature="0" class="st11" d="M-35.9,335.7l-9.5-4.3"/>
	<path id="path9553" sodipodi:nodetypes="cc" inkscape:connector-curvature="0" class="st11" d="M-36.3,343.2l-9.4-1.6"/>
	<path id="path9555" inkscape:connector-curvature="0" d="M-68.2,321.3c0-1.8,1.5-3.2,3.2-3.2c1.8,0,3.2,1.5,3.2,3.2
		c0,1.8-1.5,3.2-3.2,3.2C-66.7,324.5-68.2,323-68.2,321.3z M-66.3,321.3c0,0.7,0.6,1.4,1.4,1.4l0,0c0.7,0,1.4-0.6,1.4-1.3l0,0
		c0-0.7-0.6-1.4-1.3-1.4l0,0C-65.7,319.9-66.3,320.5-66.3,321.3L-66.3,321.3z"/>
	<path id="path9557" inkscape:connector-curvature="0" d="M-68.2,329.3c0-1.8,1.5-3.2,3.2-3.2c1.8,0,3.2,1.5,3.2,3.2
		c0,1.8-1.5,3.2-3.2,3.2C-66.7,332.5-68.2,331-68.2,329.3z M-66.3,329.3c0,0.7,0.6,1.4,1.4,1.4l0,0c0.7,0,1.4-0.6,1.4-1.4l0,0
		c0-0.7-0.6-1.4-1.3-1.4l0,0C-65.7,327.9-66.3,328.5-66.3,329.3L-66.3,329.3z"/>
	<path id="path9559" inkscape:connector-curvature="0" class="st11" d="M-65.4,326.8v-3.7"/>
	<path id="path9561" sodipodi:nodetypes="cccc" inkscape:connector-curvature="0" class="st11" d="M-66.5,319.7l-4.3-4.6l-0.5-17.5
		l-3.4-3.1"/>
	<path id="path9563" inkscape:connector-curvature="0" class="st10" d="M-57.8,351.6c0-1.8,1.5-3.2,3.2-3.2c1.8,0,3.2,1.5,3.2,3.2
		c0,1.8-1.5,3.2-3.2,3.2C-56.4,354.8-57.8,353.4-57.8,351.6z M-55.9,351.6c0,0.7,0.6,1.4,1.4,1.4l0,0c0.7,0,1.4-0.6,1.4-1.4l0,0
		c0-0.7-0.6-1.4-1.3-1.4l0,0C-55.3,350.2-55.9,350.8-55.9,351.6L-55.9,351.6z"/>
	<path id="path9565" inkscape:connector-curvature="0" class="st10" d="M-58.1,343.9c0-1.8,1.5-3.2,3.2-3.2c1.8,0,3.2,1.5,3.2,3.2
		c0,1.8-1.5,3.2-3.2,3.2C-56.7,347.2-58.1,345.7-58.1,343.9z M-56.2,343.9c0,0.7,0.6,1.4,1.4,1.4l0,0c0.7,0,1.4-0.6,1.4-1.4l0,0
		c0-0.7-0.6-1.4-1.3-1.4l0,0C-55.6,342.6-56.2,343.2-56.2,343.9L-56.2,343.9z"/>
	<path id="path9569" sodipodi:nodetypes="cc" inkscape:connector-curvature="0" class="st11" d="M-52.4,321.2l2.9,2.4"/>
	<path id="path9571" inkscape:connector-curvature="0" class="st11" d="M-55.6,349.2l-0.1-3.4"/>
	<path id="path9573" inkscape:connector-curvature="0" class="st11" d="M-56.1,342.1l-6.4-7.3"/>
	<g id="rect9603">
		<g>
			<polyline class="st12" points="-133.1,81.1 -133.1,77.1 -129.1,77.1 			"/>
			<line class="st13" x1="-121.1" y1="77.1" x2="290.9" y2="77.1"/>
			<polyline class="st12" points="294.9,77.1 298.9,77.1 298.9,81.1 			"/>
			<line class="st13" x1="298.9" y1="89.1" x2="298.9" y2="501.1"/>
			<polyline class="st12" points="298.9,505.1 298.9,509.1 294.9,509.1 			"/>
			<line class="st13" x1="286.9" y1="509.1" x2="-125.1" y2="509.1"/>
			<polyline class="st12" points="-129.1,509.1 -133.1,509.1 -133.1,505.1 			"/>
			<line class="st13" x1="-133.1" y1="497.1" x2="-133.1" y2="85.1"/>
		</g>
	</g>
	<g id="g9891" transform="translate(6.304577,-825.90522)">
		<rect id="rect9367" x="233.5" y="983" width="13.6" height="225.6"/>
		<circle id="circle9369" class="st3" cx="238.9" cy="992.3" r="6.4"/>
		<rect id="rect9371" x="235.7" y="997.4" class="st3" width="6.4" height="16"/>
		<circle id="circle9373" class="st3" cx="238.9" cy="1057.6" r="6.4"/>
		<rect id="rect9375" x="235.7" y="1062.7" class="st3" width="6.4" height="15.7"/>
		<circle id="circle9377" class="st3" cx="238.9" cy="1122.7" r="6.4"/>
		<rect id="rect9379" x="235.7" y="1101.4" class="st3" width="6.4" height="16"/>
		<circle id="circle9381" class="st3" cx="238.9" cy="1188" r="6.4"/>
		<path id="path9383" inkscape:connector-curvature="0" d="M238.9,1127c-2.3,0-4.3-1.9-4.3-4.3c0-2.3,1.9-4.3,4.3-4.3
			c2.3,0,4.3,1.9,4.3,4.3C243.1,1125.1,241.2,1127,238.9,1127z M238.9,1124.5c1,0,1.8-0.8,1.8-1.8l0,0c0-1-0.8-1.8-1.8-1.8l0,0
			c-1,0-1.8,0.8-1.8,1.8l0,0C237.1,1123.7,237.9,1124.5,238.9,1124.5L238.9,1124.5z"/>
		<rect id="rect9385" x="237.8" y="1110.7" width="2.1" height="8"/>
		<path id="path9387" inkscape:connector-curvature="0" d="M238.9,1053.3c-2.3,0-4.3,1.9-4.3,4.3c0,2.3,1.9,4.3,4.3,4.3
			c2.3,0,4.3-1.9,4.3-4.3C243.1,1055.2,241.2,1053.3,238.9,1053.3z M238.9,1055.8c1,0,1.8,0.8,1.8,1.8l0,0c0,1-0.8,1.8-1.8,1.8l0,0
			c-1,0-1.8-0.8-1.8-1.8l0,0C237.1,1056.6,237.9,1055.8,238.9,1055.8L238.9,1055.8z"/>
		<rect id="rect9389" x="237.8" y="1061.2" width="2.1" height="8"/>
		<path id="path9391" inkscape:connector-curvature="0" d="M238.9,988.1c-2.3,0-4.3,1.9-4.3,4.3c0,2.3,1.9,4.3,4.3,4.3
			c2.3,0,4.3-1.9,4.3-4.3C243.1,990,241.2,988.1,238.9,988.1z M238.9,990.6c1,0,1.8,0.8,1.8,1.8l0,0c0,1-0.8,1.8-1.8,1.8l0,0
			c-1,0-1.8-0.8-1.8-1.8l0,0C237.1,991.4,237.9,990.6,238.9,990.6L238.9,990.6z"/>
		<rect id="rect9393" x="237.8" y="996.2" width="2.1" height="8"/>
		<rect id="rect9395" x="235.7" y="1167.2" class="st3" width="6.4" height="15.8"/>
		<rect id="rect9397" x="237.8" y="1176.5" width="2.1" height="8"/>
		<path id="path9399" inkscape:connector-curvature="0" d="M238.9,1192.2c-2.3,0-4.3-1.9-4.3-4.3c0-2.3,1.9-4.3,4.3-4.3
			c2.3,0,4.3,1.9,4.3,4.3C243.1,1190.3,241.2,1192.2,238.9,1192.2z M238.9,1189.7c1,0,1.8-0.8,1.8-1.8l0,0c0-1-0.8-1.8-1.8-1.8l0,0
			c-1,0-1.8,0.8-1.8,1.8l0,0C237.1,1188.9,237.9,1189.7,238.9,1189.7L238.9,1189.7z"/>
		<rect id="rect9403" x="237.6" y="1176" width="2.7" height="2.6"/>
		<rect id="rect9405" x="237.6" y="1167.1" width="2.7" height="2.6"/>
		<rect id="rect9409" x="237.6" y="1110.2" width="2.7" height="2.6"/>
		<rect id="rect9411" x="237.6" y="1101.3" width="2.7" height="2.6"/>
		<rect id="rect9415" x="237.6" y="1076" width="2.7" height="2.6"/>
		<rect id="rect9417" x="237.6" y="1067.1" width="2.7" height="2.6"/>
		<rect id="rect9421" x="237.6" y="1011" width="2.7" height="2.6"/>
		<rect id="rect9423" x="237.6" y="1002.1" width="2.7" height="2.6"/>
		<rect id="rect9427" x="235.7" y="1155.3" class="st3" width="13" height="2.1"/>
		<rect id="rect9429" x="235.7" y="1140.9" class="st3" width="13" height="2.1"/>
		<rect id="rect9433" x="235.7" y="1038.5" class="st3" width="13" height="2.1"/>
		<rect id="rect9435" x="235.7" y="1024.1" class="st3" width="13" height="2.1"/>
		<rect id="rect9439" x="236.1" y="1196.6" class="st3" width="13" height="2.1"/>
		<g id="g9887" transform="translate(0,2)">
			<rect id="rect9883" x="235.7" y="1094.1" class="st3" width="13" height="2.1"/>
			<rect id="rect9885" x="235.7" y="1079.7" class="st3" width="13" height="2.1"/>
		</g>
	</g>
	<g id="g10924" transform="translate(234.28571,-356.42857)">
		<path id="path10896" inkscape:connector-curvature="0" d="M-189.6,725.4c1.8,0,3.2,1.5,3.2,3.2c0,1.8-1.5,3.2-3.2,3.2
			c-1.8,0-3.2-1.5-3.2-3.2C-192.9,726.8-191.4,725.4-189.6,725.4z M-189.6,727.2c-0.7,0-1.4,0.6-1.4,1.4l0,0c0,0.7,0.6,1.4,1.3,1.4
			l0,0c0.7,0,1.4-0.6,1.4-1.3l0,0C-188.3,727.9-188.9,727.2-189.6,727.2L-189.6,727.2z"/>
		<path id="path10898" inkscape:connector-curvature="0" d="M-232.8,725.4c1.8,0,3.2,1.5,3.2,3.2c0,1.8-1.5,3.2-3.2,3.2
			c-1.8,0-3.2-1.5-3.2-3.2C-236.1,726.8-234.6,725.4-232.8,725.4z M-232.8,727.2c-0.7,0-1.4,0.6-1.4,1.4l0,0c0,0.7,0.6,1.4,1.3,1.4
			l0,0c0.7,0,1.4-0.6,1.4-1.3l0,0C-231.5,727.9-232.1,727.2-232.8,727.2L-232.8,727.2z"/>
		<path id="path10900" inkscape:connector-curvature="0" d="M-240,725.4c1.8,0,3.2,1.5,3.2,3.2c0,1.8-1.5,3.2-3.2,3.2
			c-1.8,0-3.2-1.5-3.2-3.2C-243.3,726.8-241.8,725.4-240,725.4z M-240,727.2c-0.7,0-1.4,0.6-1.4,1.4l0,0c0,0.7,0.6,1.4,1.3,1.4l0,0
			c0.7,0,1.4-0.6,1.4-1.3l0,0C-238.7,727.9-239.3,727.2-240,727.2L-240,727.2z"/>
		<path id="path10902" inkscape:connector-curvature="0" d="M-189.6,682.2c1.8,0,3.2,1.5,3.2,3.2c0,1.8-1.5,3.2-3.2,3.2
			c-1.8,0-3.2-1.5-3.2-3.2C-192.9,683.6-191.4,682.2-189.6,682.2z M-189.6,684c-0.7,0-1.4,0.6-1.4,1.4l0,0c0,0.7,0.6,1.4,1.3,1.4
			l0,0c0.7,0,1.4-0.6,1.4-1.3l0,0C-188.3,684.7-188.9,684-189.6,684L-189.6,684z"/>
		<g id="g10904" transform="matrix(0,-1,-1,0,569.55963,840.948)">
			<path id="path10906" inkscape:connector-curvature="0" d="M124,653.5c0,1.8-1.5,3.2-3.2,3.2c-1.8,0-3.2-1.5-3.2-3.2
				c0-1.8,1.5-3.2,3.2-3.2C122.6,650.3,124,651.7,124,653.5z M122.1,653.5c0-0.7-0.6-1.4-1.3-1.4l0,0c-0.7,0-1.4,0.6-1.4,1.3l0,0
				c0,0.7,0.6,1.4,1.3,1.4l0,0C121.5,654.9,122.1,654.3,122.1,653.5L122.1,653.5z"/>
			<path id="path10908" inkscape:connector-curvature="0" d="M150.4,653.5c0,1.8-1.5,3.2-3.2,3.2c-1.8,0-3.2-1.5-3.2-3.2
				c0-1.8,1.5-3.2,3.2-3.2S150.4,651.7,150.4,653.5z M148.5,653.5c0-0.7-0.6-1.4-1.3-1.4l0,0c-0.7,0-1.4,0.6-1.4,1.3l0,0
				c0,0.7,0.6,1.4,1.3,1.4l0,0C147.9,654.9,148.5,654.3,148.5,653.5L148.5,653.5z"/>
			<path id="path10910" inkscape:connector-curvature="0" d="M147.8,667.7c0,1.8-1.5,3.2-3.2,3.2c-1.8,0-3.2-1.5-3.2-3.2
				c0-1.8,1.5-3.2,3.2-3.2C146.4,664.5,147.8,665.9,147.8,667.7z M145.9,667.7c0-0.7-0.6-1.4-1.3-1.4l0,0c-0.7,0-1.4,0.6-1.4,1.3
				l0,0c0,0.7,0.6,1.4,1.3,1.4l0,0C145.3,669,145.9,668.5,145.9,667.7L145.9,667.7z"/>
			<path id="path10912" inkscape:connector-curvature="0" d="M132.7,676.7c0,1.8-1.5,3.2-3.2,3.2c-1.8,0-3.2-1.5-3.2-3.2
				c0-1.8,1.5-3.2,3.2-3.2C131.2,673.5,132.7,675,132.7,676.7z M130.8,676.7c0-0.7-0.6-1.4-1.3-1.4l0,0c-0.7,0-1.4,0.6-1.4,1.3l0,0
				c0,0.7,0.6,1.4,1.3,1.4l0,0C130.2,678.2,130.8,677.5,130.8,676.7L130.8,676.7z"/>
		</g>
		<path id="path10914" sodipodi:nodetypes="ccccc" inkscape:connector-curvature="0" class="st11" d="M-86.2,692.2l-8.5-1.4
			l-51.5,1.8l-10.7-6.5l-30.6-0.2"/>
		<path id="path10916" sodipodi:nodetypes="cccccc" inkscape:connector-curvature="0" class="st11" d="M-84.2,717.8l-26.9,0.3
			l-3.5-3.3l-34.3-0.1l-9.5,14l-28.7-0.3"/>
		<path id="path10918" sodipodi:nodetypes="ccccc" inkscape:connector-curvature="0" class="st11" d="M-109.7,711l-42,0.1l-7.7,12.7
			l-70.8-0.2l-2.1,3.2"/>
		<path id="path10920" sodipodi:nodetypes="ccccc" inkscape:connector-curvature="0" class="st11" d="M-100.6,696.4l-47.8,0.8
			l-9.7-6.7H-213l-25.7,36.3"/>
	</g>
	<g class="st2">
		<path class="st3" d="M55.4,245.4c0,0.9-0.7,1.7-1.7,1.7s-1.7-0.7-1.7-1.7v-1.9l-1.3-1.2l-2.9,4c-0.4,0.5-0.8,0.8-1.4,0.8
			c-0.8,0-1.6-0.6-1.6-1.5c0-0.4,0.1-0.7,0.4-1.1l3.1-4.2l-2.6-2.3c-0.5-0.4-0.8-0.9-0.8-1.4c0-0.8,0.6-1.5,1.5-1.5
			c0.6,0,1,0.3,1.5,0.7l4.2,3.9v-7.3c0-0.9,0.7-1.7,1.7-1.7s1.7,0.7,1.7,1.7L55.4,245.4L55.4,245.4z"/>
		<path class="st3" d="M39.4,247.1c-1.6,0-2.7-0.6-3.5-1.5l0,0c0,0.7-0.6,1.4-1.6,1.4c-0.9,0-1.6-0.7-1.6-1.6v-5.3
			c0-1.6,0.4-2.9,1.3-3.7c0.8-0.8,2.1-1.3,4-1.3c1.6,0,2.7,0.2,3.7,0.6c0.5,0.2,0.9,0.7,0.9,1.3c0,0.8-0.6,1.4-1.4,1.4
			c-0.2,0-0.3,0-0.5-0.1c-0.6-0.2-1.4-0.3-2.3-0.3c-1.7,0-2.5,0.8-2.5,2.1v0.2c0.8-0.3,1.7-0.5,2.9-0.5c2.8,0,4.7,1.2,4.7,3.7l0,0
			C43.4,245.8,41.6,247.1,39.4,247.1z M38.4,244.8c1.1,0,1.8-0.5,1.8-1.4l0,0c0-1-0.9-1.6-2.3-1.6c-0.8,0-1.6,0.2-2.1,0.4v0.6
			C35.8,244,36.8,244.8,38.4,244.8z"/>
		<path class="st3" d="M27.6,250.5c-2,0-3-0.9-4-3.3l-4.1-9.8c-0.1-0.2-0.2-0.5-0.2-0.8c0-0.9,0.7-1.5,1.6-1.5s1.3,0.6,1.6,1.3
			l2.5,6.8l2.5-6.8c0.3-0.8,0.8-1.2,1.6-1.2c0.9,0,1.6,0.7,1.6,1.6c0,0.2-0.1,0.5-0.2,0.8l-4,9.3l0.1,0.3c0.3,0.6,0.6,0.7,1.2,0.7
			c0.2,0,0.4,0,0.7-0.1c0.1,0,0.3-0.1,0.5-0.1c0.7,0,1.3,0.5,1.3,1.4s-0.6,1.2-1.1,1.4C28.8,250.4,28.3,250.5,27.6,250.5z"/>
		<path class="st3" d="M7.9,245.7c-0.2-0.2-0.4-0.5-0.4-1c0-0.7,0.5-1.3,1.3-1.3c0.4,0,0.6,0.1,0.8,0.3c0.7,0.5,1.4,0.8,2.4,0.8
			c1.5,0,2.5-0.8,2.9-2.3H8.2c-0.9,0-1.6-0.6-1.6-1.6c0-2.4,1.7-5.6,5.6-5.6c3.4,0,5.8,2.8,5.8,6.1l0,0c0,3.6-2.6,6.1-6.1,6.1
			C10.3,247.2,9,246.6,7.9,245.7z M14.9,240.1c-0.3-1.5-1.2-2.5-2.5-2.5c-1.4,0-2.3,1-2.5,2.5H14.9z"/>
	</g>
	<g>
		<path d="M-62.9,500.2c0,0.5-0.4,0.9-0.9,0.9c-0.5,0-0.9-0.4-0.9-0.9v-1.7c0-1.3-0.5-2-1.4-2.2c-0.4-0.1-0.7-0.4-0.7-0.9
			s0.3-0.9,0.9-0.9c0.5,0,0.9,0.6,1.2,1.2v-0.3c0-0.5,0.4-0.9,0.9-0.9c0.5,0,0.9,0.4,0.9,0.9V500.2z"/>
		<path d="M-67.8,493c0,0.6-0.5,0.9-1,0.9c-0.6,0-1-0.4-1-0.9l0,0c0-0.6,0.4-0.9,1-0.9S-67.8,492.5-67.8,493L-67.8,493z M-68,500.1
			c0,0.5-0.4,0.9-0.9,0.9s-0.9-0.4-0.9-0.9v-4.7c0-0.5,0.4-0.9,0.9-0.9s0.9,0.4,0.9,0.9C-68,495.4-68,500.1-68,500.1z"/>
		<path d="M-74.3,502.9c-1.3,0-2.2-0.3-2.8-0.9c-0.5-0.5-0.8-1.3-0.8-2.5v-4.1c0-0.5,0.4-0.9,0.9-0.9s0.9,0.4,0.9,0.9l0,0
			c0.5-0.6,1.1-1,2.1-1c1.5,0,2.9,1.1,2.9,3l0,0c0,1.9-1.4,3-2.9,3c-1,0-1.6-0.4-2.1-1v0.4c0,1.2,0.6,1.8,1.8,1.8
			c0.7,0,1.3-0.2,1.8-0.4c0.1-0.1,0.2-0.1,0.3-0.1c0.4,0,0.7,0.3,0.7,0.7c0,0.3-0.2,0.6-0.5,0.7C-72.8,502.8-73.5,502.9-74.3,502.9z
			 M-74.6,499c0.9,0,1.6-0.6,1.6-1.5l0,0c0-0.9-0.7-1.5-1.6-1.5s-1.6,0.6-1.6,1.5l0,0C-76.2,498.3-75.5,498.9-74.6,499z"/>
		<path d="M-79.6,493.1l-0.1,7c0,0.5-0.4,0.9-0.9,0.9s-0.9-0.4-0.9-0.9v-2.7c0-0.9-0.4-1.3-1.1-1.3s-1.1,0.4-1.1,1.3v2.8
			c0,0.5-0.4,0.9-0.9,0.9s-0.9-0.4-0.9-0.9v-3.3c0-1.5,0.8-2.4,2.2-2.4c0.9,0,1.5,0.5,1.9,1v-2.4c0-0.5,0.4-0.9,0.9-0.9
			S-79.6,492.6-79.6,493.1L-79.6,493.1z"/>
		<path d="M-89.3,501.2c-0.4,0-0.7-0.1-1-0.2s-0.5-0.4-0.5-0.7c0-0.5,0.4-0.8,0.8-0.8c0,0,0.1,0,0.2,0c0.4,0,0.6-0.2,0.6-0.6v-2.7
			H-90c-0.5,0-0.8-0.4-0.8-0.8c0-0.5,0.4-0.8,0.8-0.8h0.8v-0.8c0-0.5,0.4-0.9,0.9-0.9s0.9,0.4,0.9,0.9v0.8h0.1
			c0.5,0,0.8,0.4,0.8,0.8c0,0.5-0.4,0.8-0.8,0.8h-0.1v3C-87.4,500.6-88.1,501.1-89.3,501.2z"/>
		<path d="M-95.6,502c0,0.5-0.4,0.9-0.9,0.9s-0.9-0.4-0.9-0.9v-1.9c-0.4,0.6-1,1-2,1c-1.5,0-2.9-1.2-2.9-3.3l0,0
			c0-2.1,1.4-3.3,2.9-3.3c0.9,0,1.6,0.4,2,1v-0.1c0-0.5,0.4-0.9,0.9-0.9s0.9,0.4,0.9,0.9V502z M-99,499.6c0.9,0,1.6-0.7,1.6-1.8l0,0
			c0-1.1-0.7-1.8-1.6-1.8s-1.6,0.7-1.6,1.8l0,0C-100.6,498.9-99.9,499.6-99,499.6z"/>
		<path d="M-106.8,501.1c-1.1,0-1.8-0.3-2.3-0.8c-0.2-0.2-0.3-0.4-0.3-0.6c0-0.5,0.4-0.8,0.8-0.8c0.2,0,0.4,0.1,0.5,0.2
			c0.3,0.2,0.7,0.4,1.2,0.4c1,0,1.6-0.8,1.6-1.8l0,0c0-1-0.7-1.8-1.6-1.8c-0.4,0-0.8,0.1-1.1,0.4c-0.1,0.1-0.3,0.2-0.5,0.2
			c-0.4,0-0.8-0.3-0.8-0.8c0-0.3,0.2-0.5,0.3-0.6c0.5-0.4,1.2-0.7,2.2-0.7c2,0,3.4,1.5,3.4,3.4l0,0
			C-103.4,499.6-104.9,501.1-106.8,501.1z"/>
		<path d="M-110.6,500.1c0,0.5-0.4,0.9-0.9,0.9s-0.9-0.4-0.9-0.9l0,0c-0.4,0.6-1,1-2,1c-1.5,0-2.9-1.2-2.9-3.3l0,0
			c0-2.1,1.4-3.3,2.9-3.3c0.9,0,1.6,0.4,2,1v-2.4c0-0.5,0.4-0.9,0.9-0.9s0.9,0.4,0.9,0.9V500.1z M-113.9,499.6
			c0.9,0,1.6-0.7,1.6-1.8l0,0c0-1.1-0.7-1.8-1.6-1.8s-1.6,0.7-1.6,1.8l0,0C-115.5,498.9-114.8,499.6-113.9,499.6z"/>
	</g>
</g>
<g id="g12999" transform="translate(-97.491315,-372.54429)">
	<path id="path17844" sodipodi:nodetypes="cc" inkscape:connector-curvature="0" class="st1" d="M378.1,786.5
		c3.3-9.7,3.6-0.3,2.3-42"/>
	<path id="path17790" sodipodi:nodetypes="cc" inkscape:connector-curvature="0" class="st1" d="M363.9,478.1v75.6"/>
	<path id="path17792" sodipodi:nodetypes="cc" inkscape:connector-curvature="0" class="st1" d="M364.2,553.9
		c-1.2,34.3,12.5,0.7,11,65.3"/>
	<path id="path17794" sodipodi:nodetypes="cc" inkscape:connector-curvature="0" class="st1" d="M375.8,620
		c-1.1,30.4,8.6-0.3,7.9,64.4"/>
	<path id="path17796" sodipodi:nodetypes="cc" inkscape:connector-curvature="0" class="st1" d="M381,743.6l2.7-59"/>
	<ellipse id="path8222" class="st14" cx="363.9" cy="478.1" rx="0.1" ry="0.4"/>
	<g id="g8551" transform="translate(74.642857,-15.714286)">
		<rect id="rect8516" x="282.9" y="535.3" width="11.3" height="7.7"/>
		<g class="st2">
			<path class="st3" d="M286.5,539.3c0-0.9,0.6-1.5,1.4-1.5l0,0c0.8,0,1.1,0.6,1.2,1.1l0.8-0.8c0.2-0.2,0.3-0.3,0.5-0.3
				c0.3,0,0.4,0.2,0.4,0.5v2c0,0.2-0.2,0.4-0.4,0.4s-0.4-0.2-0.4-0.4V539l-0.8,0.8c-0.1,0.1-0.3,0.2-0.4,0.2c-0.2,0-0.4-0.2-0.4-0.4
				v-0.1c0-0.5-0.2-0.8-0.5-0.8l0,0c-0.3,0-0.5,0.2-0.5,0.6c0,0.3,0.1,0.6,0.3,0.8c0.1,0.1,0.1,0.2,0.1,0.3c0,0.2-0.2,0.4-0.4,0.4
				c-0.1,0-0.3-0.1-0.3-0.2C286.7,540.4,286.5,539.9,286.5,539.3z"/>
		</g>
	</g>
	<g id="g12711" transform="translate(481.82944,-4.5136492)">
		<circle id="circle12713" class="st3" cx="-103.8" cy="790.9" r="2.4"/>
		<path id="path12715" inkscape:connector-curvature="0" d="M-103.8,795.1c2.3,0,4.3-1.9,4.3-4.3c0-2.3-1.9-4.3-4.3-4.3
			c-2.3,0-4.3,1.9-4.3,4.3C-108,793.2-106.1,795.1-103.8,795.1z M-103.8,792.6c-1,0-1.8-0.8-1.8-1.8l0,0c0-1,0.8-1.8,1.8-1.8l0,0
			c1,0,1.8,0.8,1.8,1.8l0,0C-102,791.9-102.8,792.6-103.8,792.6L-103.8,792.6z"/>
	</g>
	<g id="g12717" transform="translate(428.67982,-8.0569592)">
		<circle id="circle12719" class="st3" cx="-47.8" cy="752" r="2.4"/>
		<path id="path12721" inkscape:connector-curvature="0" d="M-47.8,756.2c2.3,0,4.3-1.9,4.3-4.3c0-2.3-1.9-4.3-4.3-4.3
			c-2.3,0-4.3,1.9-4.3,4.3C-52,754.3-50.1,756.2-47.8,756.2z M-47.8,753.6c-1,0-1.8-0.8-1.8-1.8l0,0c0-1,0.8-1.8,1.8-1.8l0,0
			c1,0,1.8,0.8,1.8,1.8l0,0C-46,752.8-46.8,753.6-47.8,753.6L-47.8,753.6z"/>
	</g>
	<g id="g12723" transform="translate(354.27038,-11.600259)">
		<circle id="circle12725" class="st3" cx="29.4" cy="695.9" r="2.4"/>
		<path id="path12727" inkscape:connector-curvature="0" d="M29.4,700.1c2.3,0,4.3-1.9,4.3-4.3c0-2.3-1.9-4.3-4.3-4.3
			c-2.3,0-4.3,1.9-4.3,4.3C25.2,698.3,27.1,700.1,29.4,700.1z M29.4,697.6c-1,0-1.8-0.8-1.8-1.8l0,0c0-1,0.8-1.8,1.8-1.8l0,0
			c1,0,1.8,0.8,1.8,1.8l0,0C31.2,696.9,30.4,697.6,29.4,697.6L29.4,697.6z"/>
	</g>
	<g id="g12729" transform="translate(272.77433,-0.97034916)">
		<circle id="circle12731" class="st3" cx="102.5" cy="620.2" r="2.4"/>
		<path id="path12733" inkscape:connector-curvature="0" d="M102.5,624.3c2.3,0,4.3-1.9,4.3-4.3c0-2.3-1.9-4.3-4.3-4.3
			c-2.3,0-4.3,1.9-4.3,4.3S100.1,624.3,102.5,624.3z M102.5,621.8c-1,0-1.8-0.8-1.8-1.8l0,0c0-1,0.8-1.8,1.8-1.8l0,0
			c1,0,1.8,0.8,1.8,1.8l0,0C104.2,621,103.4,621.8,102.5,621.8L102.5,621.8z"/>
	</g>
	<g id="g12735" transform="translate(191.27826,13.202881)">
		<circle id="circle12737" class="st3" cx="172.6" cy="540.8" r="2.4"/>
		<path id="path12739" inkscape:connector-curvature="0" d="M172.6,544.9c2.3,0,4.3-1.9,4.3-4.3c0-2.3-1.9-4.3-4.3-4.3
			c-2.3,0-4.3,1.9-4.3,4.3S170.2,544.9,172.6,544.9z M172.6,542.5c-1,0-1.8-0.8-1.8-1.8l0,0c0-1,0.8-1.8,1.8-1.8l0,0
			c1,0,1.8,0.8,1.8,1.8l0,0C174.4,541.6,173.6,542.5,172.6,542.5L172.6,542.5z"/>
	</g>
	<g id="g12741" transform="translate(120.41212,13.202881)">
		<circle id="circle12743" class="st3" cx="243.5" cy="464.9" r="2.4"/>
		<path id="path12745" inkscape:connector-curvature="0" d="M243.5,469.2c2.3,0,4.3-1.9,4.3-4.3c0-2.3-1.9-4.3-4.3-4.3
			c-2.3,0-4.3,1.9-4.3,4.3S241.1,469.2,243.5,469.2z M243.5,466.7c-1,0-1.8-0.8-1.8-1.8l0,0c0-1,0.8-1.8,1.8-1.8l0,0
			c1,0,1.8,0.8,1.8,1.8l0,0C245.3,465.9,244.5,466.7,243.5,466.7L243.5,466.7z"/>
	</g>
</g>
</svg>
